<?xml version="1.0" encoding="iso-8859-1"?>
<!-- Generator: Adobe Illustrator 9.0, SVG Export Plug-In  -->
<!DOCTYPE svg PUBLIC "-//W3C//DTD SVG 20000303 Stylable//EN"   "http://www.w3.org/TR/2000/03/WD-SVG-20000303/DTD/svg-20000303-stylable.dtd" [
	<!ENTITY st0 "fill-rule:nonzero;clip-rule:nonzero;fill:#101177;stroke:#000000;stroke-miterlimit:4;">
	<!ENTITY st1 "fill:#FFFFFF;stroke:#101177;stroke-width:3.75;">
	<!ENTITY st2 "stroke:none;">
]>
<svg  width="32pt" height="32pt" viewBox="0 0 32 32" xml:space="preserve">
	<g id="Layer_x0020_1" style="&st0;">
		<g style="&st2;">
			<g>
				<g>
					<path style="&st1;" d="M14.75,27.628c7.112,0,12.875-5.766,12.875-12.877c0-7.111-5.764-12.876-12.875-12.876c-7.111,0-12.877,5.765-12.877,12.876c0,7.112,5.766,12.877,12.877,12.877z"/>
				</g>
			</g>
			<g>
				<path d="M22.131,16.511c0.791,1.48-0.891,3.92-3.756,5.453s-5.828,1.576-6.62,0.098c-0.79-1.479,0.891-3.92,3.756-5.453c2.865-1.533,5.828-1.575,6.619-0.098z"/>
				<g>
					<path d="M10.012,12.35c0.594,1.114,0.452,2.351-0.317,2.762c-0.772,0.41-1.878-0.156-2.472-1.269c-0.595-1.112-0.453-2.347,0.315-2.759c0.771-0.412,1.878,0.156,2.474,1.266z"/>
					<path d="M17.77,8.204c0.594,1.111,0.453,2.347-0.318,2.759c-0.77,0.414-1.877-0.155-2.471-1.268c-0.593-1.111-0.451-2.348,0.319-2.761c0.768-0.409,1.877,0.157,2.471,1.27z"/>
				</g>
			</g>
		</g>
	</g>
</svg>
