<?xml version="1.0" encoding="iso-8859-1"?>
<!-- Generator: Adobe Illustrator 9.0, SVG Export Plug-In  -->
<!DOCTYPE svg PUBLIC "-//W3C//DTD SVG 20000303 Stylable//EN"   "http://www.w3.org/TR/2000/03/WD-SVG-20000303/DTD/svg-20000303-stylable.dtd" [
	<!ENTITY st0 "fill:#FF7F00;stroke:#FF7F00;stroke-width:1.944;">
	<!ENTITY st1 "fill-rule:nonzero;clip-rule:nonzero;fill:none;stroke:#D90000;stroke-width:3.4585;stroke-miterlimit:4;">
	<!ENTITY st2 "fill:#FFFFFF;stroke:none;">
	<!ENTITY st3 "fill:#FF7F00;stroke:#FF7F00;stroke-width:1.944;stroke-linecap:round;stroke-linejoin:round;">
]>
<svg  width="33.458pt" height="25.623pt" viewBox="0 0 33.458 25.623" xml:space="preserve">
	<g id="Layer_x0020_1" style="&st1;">
		<g>
			<g>
				<path style="&st3;" d="M0.972,24.552l6.209-9.27c11.7-7.74,19.487-13.597,21.15-14.31c0.63-0.271,3.396,1.63,4.05,4.95c0.065,0.332-20.475,14.19-21.6,14.85l-9.81,3.779z"/>
				<path style="&st2;" d="M7.092,16.363c0,0-3.779,5.438-3.834,5.49c-0.055,0.055,0.81,0.811,0.81,0.811s5.921-2.322,6.084-2.431c0.162-0.108-0.63-1.836-1.224-2.483c-0.595-0.648-1.458-1.441-1.836-1.387"/>
				<path style="&st0;" d="M3.493,21.042c1.259,0.631,1.438,1.352,1.331,1.783c-0.108,0.432-2.159,0.971-2.484,0.971c-0.323,0,1.153-2.754,1.153-2.754z"/>
			</g>
		</g>
		<g>
			<path d="M16.041,16.05c0,4.332,3.512,7.844,7.844,7.844c4.334,0,7.844-3.513,7.844-7.844s-3.51-7.845-7.844-7.845c-4.332,0-7.844,3.513-7.844,7.845z"/>
			<path d="M27.806,20.843L19.527,10.82"/>
		</g>
	</g>
</svg>
