<?xml version="1.0" encoding="iso-8859-1"?>
<!-- Generator: Adobe Illustrator 9.0, SVG Export Plug-In  -->
<!DOCTYPE svg PUBLIC "-//W3C//DTD SVG 20000303 Stylable//EN"   "http://www.w3.org/TR/2000/03/WD-SVG-20000303/DTD/svg-20000303-stylable.dtd" [
	<!ENTITY st0 "fill:#890C4C;stroke:none;">
	<!ENTITY st1 "fill-rule:nonzero;clip-rule:nonzero;stroke:#000000;stroke-miterlimit:4;">
]>
<svg  width="30pt" height="30pt" viewBox="0 0 30 30" xml:space="preserve">
	<g id="Layer_x0020_1" style="&st1;">
		<g>
			<g>
				<path style="&st0;" d="M13.382,6.24c0.25-1.125,1.186-4.296,4.041-5.833c3.25-1.75,7.875-0.375,9.375,3.125c1.322,3.083,1.102,6.049-0.875,10c-1.375,2.75-5,6.875-6.25,8.25c-1.07,1.178-5.5,5.5-5.875,5.875"/>
			</g>
			<g>
				<path style="&st0;" d="M14.215,6.24c-0.25-1.125-1.187-4.296-4.042-5.833c-3.25-1.75-7.875-0.375-9.375,3.125c-1.321,3.083-1.101,6.049,0.875,10c1.375,2.75,5,6.875,6.25,8.25c1.07,1.178,5.5,5.5,5.875,5.875"/>
			</g>
		</g>
	</g>
</svg>
