<?xml version="1.0" encoding="iso-8859-1"?>
<!-- Generator: Adobe Illustrator 9.0, SVG Export Plug-In  -->
<!DOCTYPE svg PUBLIC "-//W3C//DTD SVG 20000303 Stylable//EN"   "http://www.w3.org/TR/2000/03/WD-SVG-20000303/DTD/svg-20000303-stylable.dtd" [
	<!ENTITY st0 "fill:none;stroke-width:3;stroke-linecap:square;">
	<!ENTITY st1 "fill:none;stroke:#FFFFFF;stroke-width:2.744;stroke-linecap:round;">
	<!ENTITY st2 "fill-rule:nonzero;clip-rule:nonzero;fill:#020000;stroke:#020000;stroke-width:3.2;stroke-miterlimit:4;">
	<!ENTITY st3 "stroke-width:3;">
	<!ENTITY st4 "fill:none;stroke:#FFFFFF;stroke-width:2.4;">
	<!ENTITY st5 "stroke:none;">
]>
<svg  width="36pt" height="48pt" viewBox="0 0 36 48" xml:space="preserve">
	<g id="Layer_x0020_1" style="&st2;">
		<g>
			<g>
				<g>
					<g>
						<g>
							<g>
								<g>
									<path style="&st3;" d="M4.234,40.914c3.868,4.172,10.386,4.418,14.557,0.55c4.172-3.868,4.418-10.385,0.551-14.557c-3.868-4.172-10.386-4.42-14.558-0.551c-4.172,3.868-4.418,10.386-0.55,14.558z"/>
								</g>
							</g>
						</g>
					</g>
					<path style="&st5;" d="M18.926,29.026l-7.514-3.756l4.4-8.802l7.514,3.757l-4.4,8.801z"/>
				</g>
				<path style="&st0;" d="M16.779,24.554c3.31-9.302,7.186-8.11,5.755-12.403"/>
				<path style="&st4;" d="M18.568,38.417"/>
				<path style="&st1;" d="M6.09,29.787c1.48-2.961,5.081-4.161,8.042-2.681"/>
			</g>
			<path d="M26.799,11.587l7.402-0.986"/>
			<path d="M23.5,7.635l1.48-7.318"/>
			<path d="M12.713,4.997l6.016,4.423"/>
		</g>
	</g>
</svg>
