<?xml version="1.0" encoding="iso-8859-1"?>
<!-- Generator: Adobe Illustrator 9.0, SVG Export Plug-In  -->
<!DOCTYPE svg PUBLIC "-//W3C//DTD SVG 20000303 Stylable//EN"   "http://www.w3.org/TR/2000/03/WD-SVG-20000303/DTD/svg-20000303-stylable.dtd" [
	<!ENTITY st0 "fill:#D90000;stroke:none;">
	<!ENTITY st1 "fill:#FFFFFF;stroke:#D90000;stroke-width:3.75;">
	<!ENTITY st2 "fill-rule:nonzero;clip-rule:nonzero;stroke:#000000;stroke-miterlimit:4;">
]>
<svg  width="32pt" height="32pt" viewBox="0 0 32 32" xml:space="preserve">
	<g id="Layer_x0020_1" style="&st2;">
		<g>
			<g>
				<g>
					<g>
						<path style="&st1;" d="M14.75,27.628c7.112,0,12.875-5.766,12.875-12.877c0-7.111-5.764-12.876-12.875-12.876c-7.111,0-12.877,5.765-12.877,12.876c0,7.112,5.766,12.877,12.877,12.877z"/>
					</g>
				</g>
				<g>
				</g>
			</g>
			<g>
				<path style="&st0;" d="M14.214,17.931c-0.255-5.571-1.908-9.233-1.908-10.632c0-1.348,1.119-2.315,2.441-2.315c1.325,0,2.444,0.967,2.444,2.315c0,1.399-1.654,5.061-1.908,10.632h-1.069z M14.748,19.863c1.274,0,2.315,1.043,2.315,2.34
					c0,1.272-1.041,2.315-2.315,2.315c-1.297,0-2.34-1.043-2.34-2.315c0-1.297,1.043-2.34,2.34-2.34z"/>
			</g>
		</g>
	</g>
</svg>
