<?xml version="1.0" encoding="iso-8859-1"?>
<!-- Generator: Adobe Illustrator 9.0, SVG Export Plug-In  -->
<!DOCTYPE svg PUBLIC "-//W3C//DTD SVG 20000303 Stylable//EN"   "http://www.w3.org/TR/2000/03/WD-SVG-20000303/DTD/svg-20000303-stylable.dtd" [
	<!ENTITY st0 "fill-rule:nonzero;clip-rule:nonzero;stroke:#000000;stroke-miterlimit:4;">
	<!ENTITY st1 "fill:#2A5FAA;stroke:none;">
]>
<svg  width="30pt" height="32pt" viewBox="0 0 30 32" xml:space="preserve">
	<g id="Layer_x0020_1" style="&st0;">
		<path style="&st1;" d="M0.151,23.672c0.444,0.224,2.069,0.588,4.602,1.04c3.938,0.704,4.857,2.33,8.317,4.307c1.56,0.892,3.564,1.782,4.232,1.856c3.619,0.402,4.387-0.946,6.385-1.708c3.119-1.188,4.01-2.673,4.418-5.383c0.434-2.865-0.557-4.047-2.783-8.799
			c-1.152-2.454-1.795-7.483-2.426-10.797c-0.678-3.562-3.311-3.104-3.043,0.075c0.238,2.816,0.375,3.33,0.568,6.044c0.127,1.791-0.652,0.86-1.203-0.515c-1.453-3.636-1.924-5.5-3.025-7.791c-1.5-3.129-3.94-2.476-2.944,1.13c0.598,2.16,3.907,9.403,2.383,9.292
			c-0.586-0.043-5.012-8.576-7.241-11.36C6.804-0.919,5.273,0.062,5.273,1.509c0,1.377,6.683,12.14,6.238,12.697c-0.544,0.679-3.454-3.676-5.904-6.683C3.266,4.649,1.932,4.738,1.265,6.299C0.595,7.857,8.17,17.436,9.062,19.218C9.951,21,9.294,21.322,7.613,21.11
			c-1.782-0.223-3.379-0.705-6.052-0.036c-1.465,0.366-2.228,2.005-1.41,2.598z"/>
	</g>
</svg>
