<?xml version="1.0" encoding="UTF-8"?>
<svg xmlns="http://www.w3.org/2000/svg" xmlns:xlink="http://www.w3.org/1999/xlink" height="16px" viewBox="0 0 16 16" width="16px"><filter id="a" height="100%" width="100%" x="0%" y="0%"><feColorMatrix color-interpolation-filters="sRGB" values="0 0 0 0 1 0 0 0 0 1 0 0 0 0 1 0 0 0 1 0"/></filter><mask id="b"><g filter="url(#a)"><path d="m -1.6 -1.6 h 19.2 v 19.2 h -19.2 z" fill-opacity="0.5"/></g></mask><clipPath id="c"><path d="m 0 0 h 1600 v 1200 h -1600 z"/></clipPath><mask id="d"><g filter="url(#a)"><path d="m -1.6 -1.6 h 19.2 v 19.2 h -19.2 z" fill-opacity="0.7"/></g></mask><clipPath id="e"><path d="m 0 0 h 1600 v 1200 h -1600 z"/></clipPath><mask id="f"><g filter="url(#a)"><path d="m -1.6 -1.6 h 19.2 v 19.2 h -19.2 z" fill-opacity="0.35"/></g></mask><clipPath id="g"><path d="m 0 0 h 1600 v 1200 h -1600 z"/></clipPath><g mask="url(#b)"><g clip-path="url(#c)" transform="matrix(1 0 0 1 -56 -916)"><path d="m 550 182 c -0.351562 0.003906 -0.695312 0.101562 -1 0.28125 v 3.4375 c 0.304688 0.179688 0.648438 0.277344 1 0.28125 c 1.105469 0 2 -0.894531 2 -2 s -0.894531 -2 -2 -2 z m 0 5 c -0.339844 0 -0.679688 0.058594 -1 0.175781 v 6.824219 h 4 v -4 c 0 -1.65625 -1.34375 -3 -3 -3 z m 0 0"/></g></g><g mask="url(#d)"><g clip-path="url(#e)" transform="matrix(1 0 0 1 -56 -916)"><path d="m 569 182 v 4 c 1.105469 0 2 -0.894531 2 -2 s -0.894531 -2 -2 -2 z m 0 5 v 7 h 3 v -4 c 0 -1.65625 -1.34375 -3 -3 -3 z m 0 0"/></g></g><g mask="url(#f)"><g clip-path="url(#g)" transform="matrix(1 0 0 1 -56 -916)"><path d="m 573 182.269531 v 3.449219 c 0.613281 -0.355469 0.996094 -1.007812 1 -1.71875 c 0 -0.714844 -0.382812 -1.375 -1 -1.730469 z m 0 4.90625 v 6.824219 h 2 v -4 c 0 -1.269531 -0.800781 -2.402344 -2 -2.824219 z m 0 0"/></g></g><g fill="#222222"><path d="m 13.949219 8.359375 s 0 0.019531 0.003906 0.011719 l -5.003906 4.914062 l 0.699219 -0.285156 h -4.621094 l 0.707031 0.292969 l -3.683594 -3.683594 v -0.019531 l 6.554688 -6.554688 h 0.019531 l -0.292969 -0.707031 c 0 0.265625 0.105469 0.519531 0.292969 0.707031 z m -3.617188 -6.03125 c 0 -0.265625 -0.105469 -0.519531 -0.292969 -0.707031 c -0.789062 -0.789063 -2.058593 -0.789063 -2.847656 0 l -6.554687 6.554687 c -0.789063 0.789063 -0.789063 2.058594 0 2.847657 l 3.683593 3.683593 c 0.1875 0.1875 0.441407 0.292969 0.707032 0.292969 h 4.621094 c 0.261718 0 0.511718 -0.101562 0.699218 -0.285156 l 5.015625 -4.921875 c 0.789063 -0.789063 0.789063 -2.058594 0 -2.847657 l -5.324219 -5.324218 z m 0 0"/><path d="m 5.664062 15 h 9.804688 c 0.273438 0 0.5 -0.222656 0.5 -0.5 s -0.226562 -0.5 -0.5 -0.5 h -9.804688 c -0.277343 0 -0.5 0.222656 -0.5 0.5 s 0.222657 0.5 0.5 0.5 z m 0 0"/><path d="m 4.277344 7.007812 l 6.015625 5.992188 c 0.195312 0.195312 0.511719 0.195312 0.707031 0 s 0.195312 -0.511719 0 -0.707031 l -6.015625 -5.996094 c -0.195313 -0.195313 -0.511719 -0.195313 -0.707031 0.003906 c -0.195313 0.195313 -0.195313 0.511719 0 0.707031 z m 0 0"/><path d="m 4.132812 6.152344 l -3.03125 3.257812 l 3.527344 4.402344 l 4.929688 0.1875 l 1.589844 -1.34375 z m 0 0" fill-opacity="0.329412"/></g></svg>
