<?xml version="1.0" encoding="iso-8859-1"?>
<!-- Generator: Adobe Illustrator 9.0, SVG Export Plug-In  -->
<!DOCTYPE svg PUBLIC "-//W3C//DTD SVG 20000303 Stylable//EN"   "http://www.w3.org/TR/2000/03/WD-SVG-20000303/DTD/svg-20000303-stylable.dtd" [
	<!ENTITY st0 "fill:#FFE64C;stroke:none;">
	<!ENTITY st1 "fill:url(#aigrd1);stroke:none;">
	<!ENTITY st2 "fill:#264C8B;stroke:none;">
	<!ENTITY st3 "fill-rule:nonzero;clip-rule:nonzero;stroke:#000000;stroke-miterlimit:4;">
]>
<svg  width="26.661pt" height="42.525pt" viewBox="0 0 26.661 42.525" xml:space="preserve">
	<g id="Layer_x0020_1" style="&st3;">
		<g>
			<g>
				<g>
					<g>
					</g>
				</g>
			</g>
			<path style="&st2;" d="M0,4.69l12.855,37.835l4.558-9.247l9.248,4.558L13.805,0L0,4.69z"/>
			<path style="&st0;" d="M15.434,15.958l-6.687,2.271L8.152,16.48l2.109-0.717l-1.8-5.297l-2.109,0.716L5.799,9.554C6.121,9.444,6.424,9.32,6.707,9.182c0.283-0.139,0.507-0.289,0.672-0.45c0.194-0.19,0.319-0.396,0.375-0.615s0.047-0.467-0.026-0.742l2.233-0.759
				l2.817,8.293l2.062-0.7l0.594,1.75z"/>
		</g>
		<linearGradient id="aigrd1" gradientUnits="userSpaceOnUse" x1="17.2158" y1="33.2451" x2="12.4278" y2="18.5091" gradientTransform="matrix(1 0 0 1 -0.7085 -2.334)">
			<stop  offset="0.0337" style="stop-color:#264C8B"/>
			<stop  offset="0.1131" style="stop-color:#244D8B"/>
			<stop  offset="0.1417" style="stop-color:#1D4E8C"/>
			<stop  offset="0.162" style="stop-color:#12528E"/>
			<stop  offset="0.1742" style="stop-color:#065590"/>
			<stop  offset="0.2213" style="stop-color:#0C5B94"/>
			<stop  offset="0.2854" style="stop-color:#1E6BA0"/>
			<stop  offset="0.3591" style="stop-color:#3A85B4"/>
			<stop  offset="0.3933" style="stop-color:#4A93BF"/>
			<stop  offset="0.466" style="stop-color:#4892C0"/>
			<stop  offset="0.4921" style="stop-color:#4191C3"/>
			<stop  offset="0.5107" style="stop-color:#358DCA"/>
			<stop  offset="0.5112" style="stop-color:#358DCA"/>
			<stop  offset="0.5732" style="stop-color:#328BC8"/>
			<stop  offset="0.623" style="stop-color:#2883C0"/>
			<stop  offset="0.6684" style="stop-color:#1777B3"/>
			<stop  offset="0.7022" style="stop-color:#056AA6"/>
			<stop  offset="0.7137" style="stop-color:#0867A4"/>
			<stop  offset="0.7964" style="stop-color:#195896"/>
			<stop  offset="0.8871" style="stop-color:#234F8E"/>
			<stop  offset="1" style="stop-color:#264C8B"/>
		</linearGradient>
		<path style="&st1;" d="M5.27,20.054c0.167,0.667,4.062,11.875,4.062,11.875l13.875-4.125l-4-11.812L5.27,20.054z"/>
	</g>
</svg>
