<?xml version="1.0" encoding="iso-8859-1"?>
<!-- Generator: Adobe Illustrator 9.0, SVG Export Plug-In  -->
<!DOCTYPE svg PUBLIC "-//W3C//DTD SVG 20000303 Stylable//EN"   "http://www.w3.org/TR/2000/03/WD-SVG-20000303/DTD/svg-20000303-stylable.dtd" [
	<!ENTITY st0 "fill-rule:nonzero;clip-rule:nonzero;stroke:#000000;stroke-miterlimit:4;">
	<!ENTITY st1 "fill:#409D27;stroke:none;">
	<!ENTITY st2 "fill:#FFFFFF;stroke:#409D27;stroke-width:3;">
]>
<svg  width="24.221pt" height="24.226pt" viewBox="0 0 24.221 24.226" xml:space="preserve">
	<g id="Layer_x0020_1" style="&st0;">
		<g>
			<path style="&st2;" d="M22.723,12.112c0,5.862-4.752,10.614-10.613,10.614c-5.86,0-10.611-4.752-10.611-10.614C1.498,6.251,6.249,1.5,12.109,1.5c5.861,0,10.613,4.752,10.613,10.613z"/>
			<path style="&st1;" d="M10.061,18.867l0.383-3.939l-3.137,2.252l-1.99-3.438l3.559-1.608l-3.559-1.648l1.99-3.446l3.137,2.3l-0.383-3.98h3.979l-0.382,3.98l3.217-2.3l2.029,3.446l-3.638,1.648l3.638,1.608l-2.029,3.438l-3.217-2.252l0.382,3.939h-3.979"/>
		</g>
	</g>
</svg>
