<svg width="27" height="29">
 <!-- PersonalEmblem.eps converted by ill2svg.pl -->
 <defs>
 </defs>
 <g> <!-- Layer: Layer 1 -->
  <g style="fill: #295eaa">
   <path d="M0.916 21.867C1.32 22.07 2.797 22.401 5.1 22.812C8.679 23.453 9.515 24.93 12.66 26.727C14.079 27.538 15.9 28.348 16.508 28.415C19.798 28.781 20.495 27.555 22.312 26.863C25.147 25.783 25.958 24.433 26.329 21.969C26.722 19.364 25.822 18.29 23.798 13.97C22.751 11.739 22.167 7.167 21.594 4.155C20.978 0.917 18.583 1.333 18.827 4.223C19.044 6.784 19.167 7.25 19.343 9.717C19.459 11.346 18.75 10.5 18.25 9.25C16.928 5.945 16.5 4.25 15.5 2.167C14.135 -0.677 11.917 -0.083 12.823 3.194C13.366 5.158 16.374 11.742 14.989 11.641C14.456 11.602 10.433 3.845 8.407 1.313C6.965 -0.489 5.572 0.403 5.572 1.719C5.572 2.971 11.647 12.755 11.243 13.261C10.749 13.878 8.103 9.92 5.876 7.186C3.748 4.574 2.535 4.655 1.929 6.073C1.32 7.49 8.206 16.198 9.017 17.817C9.825 19.438 9.228 19.731 7.699 19.539C6.079 19.336 4.628 18.898 2.198 19.505C0.866 19.838 0.173 21.328 0.916 21.867z"/>
   <!-- 0 1 1 1 0.8824 0.4431 0.0431 0.0078 (N) * -->
   <!-- (N) * -->
  </g>
 </g>
</svg>
