<?xml version="1.0" encoding="iso-8859-1"?>
<!-- Generator: Adobe Illustrator 9.0, SVG Export Plug-In  -->
<!DOCTYPE svg PUBLIC "-//W3C//DTD SVG 20000303 Stylable//EN"   "http://www.w3.org/TR/2000/03/WD-SVG-20000303/DTD/svg-20000303-stylable.dtd" [
	<!ENTITY st0 "fill:#FFFFFF;stroke:#274D8B;stroke-width:2;">
	<!ENTITY st1 "fill:#FFFFFF;stroke:#274D8B;stroke-width:1.8646;">
	<!ENTITY st2 "fill-rule:nonzero;clip-rule:nonzero;fill:#274D8B;stroke:#000000;stroke-miterlimit:4;">
	<!ENTITY st3 "stroke:none;">
]>
<svg  width="38pt" height="18pt" viewBox="0 0 38 18" xml:space="preserve">
	<g id="Layer_x0020_1" style="&st2;">
		<g style="&st3;">
			<path style="&st1;" d="M25.573,15.512c4.008,0,7.256-3.248,7.256-7.256S29.581,1,25.573,1H8.186C4.18,1,0.931,4.249,0.931,8.256s3.249,7.256,7.255,7.256h17.387z"/>
			<path style="&st0;" d="M26.047,15.512c4.008,0,7.256-3.248,7.256-7.256S30.055,1,26.047,1H8.661C4.655,1,1.406,4.249,1.406,8.256s3.249,7.256,7.255,7.256h17.387z"/>
			<path d="M6.826,6.527c0.87,0,1.017,1.063,1.017,1.829c0,0.662-0.146,1.745-1.017,1.754V6.527z M4.922,11.809h1.662c1.156,0,3.201-0.299,3.201-3.546c0-2.128-1.168-3.49-3.333-3.49h-1.53v7.036z"/>
			<path d="M12.604,8.02V6.284c0.521-0.028,0.895,0.234,0.895,0.849c0,0.457-0.271,0.896-0.773,0.896l-0.121-0.01z M15.709,11.809l-1.418-2.932c0.756-0.297,1.094-0.988,1.094-1.763c0-1.857-1.195-2.342-2.848-2.342H10.7v7.036h1.904V9.933
				c0-0.346-0.021-0.69-0.028-1.036l0.017-0.02l1.057,2.932h2.061z"/>
			<path d="M18.221,9.411l0.261-1.633c0.076-0.439,0.122-0.887,0.177-1.326h0.02c0.044,0.439,0.084,0.887,0.138,1.326l0.206,1.633h-0.801z M21.356,11.809l-1.494-7.036H17.54l-1.689,7.036h1.96l0.157-0.906h1.281l0.137,0.906h1.971z"/>
			<path d="M21.983,11.809V4.773h3.358v1.661h-1.458v1.017h1.363v1.66h-1.363v2.698h-1.9z"/>
			<path d="M27.17,11.809V6.49h-1.047V4.773h4.041V6.49h-1.092v5.319H27.17z"/>
		</g>
	</g>
</svg>
