<?xml version="1.0" encoding="iso-8859-1"?>
<!-- Generator: Adobe Illustrator 9.0, SVG Export Plug-In  -->
<!DOCTYPE svg PUBLIC "-//W3C//DTD SVG 20000303 Stylable//EN"   "http://www.w3.org/TR/2000/03/WD-SVG-20000303/DTD/svg-20000303-stylable.dtd" [
	<!ENTITY st0 "fill:#18481D;stroke:none;">
	<!ENTITY st1 "fill-rule:nonzero;clip-rule:nonzero;stroke:#000000;stroke-miterlimit:4;">
	<!ENTITY st2 "stroke:none;">
]>
<svg  width="46pt" height="21pt" viewBox="0 0 46 21" xml:space="preserve">
	<g id="Layer_x0020_1" style="&st1;">
		<g>
			<path style="&st2;" d="M23.567,4.083C25.022,2.296,28.243,0.17,30.323,0c2.078-0.169,13.168,2.381,13.859,4.083c0.693,1.701,0.865,5.444-1.213,8.335s-3.812,3.912-5.717,4.422c-1.905,0.511-3.984,0.341-4.852-1.021c-0.865-1.36-0.865-3.062-2.078-2.551
				c-1.212,0.51-2.425,2.892-4.331,4.252c-1.906,1.361-4.461,3.146-9.486,2.467c-5.024-0.681-7.262-2.945-9.095-5.104c-1.949-2.296-2.345-2.614-3.249-3.827c-5.387-7.23-4.423-9.07-3.875-9.728c1.237-1.485,4.247,1.213,5.569,1.89
				C7.849,4.24,6.054,5.244,5.101,5.244c-1.213,0-2.475-2.363-2.819-1.688C1.911,4.286,4.373,6.83,5.549,7.57c3.248,2.041,6.237,0.68,8.835,0.425C18.694,7.572,19.41,7.57,22.7,7.91c3.292,0.34,5.717,1.956,7.623,1.616c1.569-0.28,3.268-2.137,5.198-2.679
				c2.134-0.6,4.3-0.88,3.509-1.659c-0.884-0.868-3.639-2.552-5.199-3.062c-1.559-0.511-3.768-0.638-4.938-0.255c-1.283,0.42-2.555,2.552-3.596,3.062c-1.037,0.51-3.117,0.85-1.73-0.851z"/>
			<path style="&st0;" d="M10.326,12.771c0.206,1.619,0.722,2.531,2.166,3.645c2.432,1.877,5.465,1.822,7.424,1.62c1.952-0.202,3.093-0.708,4.332-1.722c1.237-1.012,1.959-2.43,1.754-3.645c-0.26-1.521-1.342-2.632-4.022-2.835c-2.681-0.202-1.958-0.265-5.465-0.101
				c-4.332,0.203-6.084,1.417-6.188,3.038"/>
			<path style="&st0;" d="M33.563,11.522c-0.211,1.34,0.273,3.037,1.373,3.441c0.729,0.268,2.665,0.115,4.125-0.877c1.84-1.251,3.039-2.677,3.438-4.388c0.551-2.363-1.582-2.294-3.367-2.025c-1.665,0.251-2.43,0.629-2.751,0.81c-0.962,0.54-2.544,1.282-2.817,3.038z
				"/>
		</g>
	</g>
</svg>
