<svg width="29" height="42">
 <!-- CertifiedEmblem62000.eps converted by ill2svg.pl -->
 <defs>
 </defs>
 <g> <!-- Layer: Layer 1 -->
  <g style="fill: #254b8b">
   <path d="M7.808 14.461L8.756 37.652L12.704 33.036L16.373 36.953C16.373 36.953 15.618 16.521 15.914 13.303"/>
   <!-- 0 1 1 1 0.8745 0.5333 0.1294 0.0353 /BBAccumRotation -->
   <!-- (0.288975) XT -->
  </g>
  <g style="fill: #254b8b; stroke: #ffffff; stroke-width: 1.35; stroke-miterlimit: 4">
   <path d="M16.625 12.228L27.618 32.671L22.132 32.11L20.764 39.09C20.764 39.09 9.949 17.695 8.056 15.076"/>
   <!-- 0 0 0 0 /BBAccumRotation -->
   <!-- (0.288975) XT -->
   <!-- 1 Ap -->
   <path d="M13.384 19.268C18.212 17.832 20.964 12.753 19.528 7.925C18.093 3.096 13.014 0.345 8.185 1.781C3.356 3.216 0.605 8.295 2.041 13.123C3.477 17.952 8.555 20.703 13.384 19.268z"/>
   <!-- /BBAccumRotation -->
   <!-- (0.288975) XT -->
   <path d="M12.077 14.873C14.476 14.16 15.841 11.635 15.127 9.233C14.413 6.832 11.89 5.463 9.492 6.176C7.093 6.889 5.728 9.414 6.442 11.815C7.156 14.217 9.679 15.586 12.077 14.873z"/>
   <!-- /BBAccumRotation -->
   <!-- (0.288975) XT -->
  </g>
 </g>
</svg>
