<?xml version="1.0" encoding="iso-8859-1"?>
<!-- Generator: Adobe Illustrator 9.0, SVG Export Plug-In  -->
<!DOCTYPE svg PUBLIC "-//W3C//DTD SVG 20000303 Stylable//EN"   "http://www.w3.org/TR/2000/03/WD-SVG-20000303/DTD/svg-20000303-stylable.dtd" [
	<!ENTITY st0 "stroke:none;">
	<!ENTITY st1 "fill:#FFFFFF;stroke:#1B1076;stroke-width:2.6;">
	<!ENTITY st2 "fill-rule:nonzero;clip-rule:nonzero;fill:#1B1076;stroke:#000000;stroke-miterlimit:4;">
]>
<svg  width="26pt" height="26pt" viewBox="0 0 26 26" xml:space="preserve">
	<g id="Layer_x0020_1" style="&st2;">
		<g style="&st0;">
			<path style="&st1;" d="M21.185,6.885c2.752,5.145,0.811,11.548-4.334,14.3c-5.146,2.753-11.547,0.812-14.3-4.334c-2.754-5.145-0.813-11.546,4.333-14.3c5.146-2.752,11.548-0.812,14.301,4.334z"/>
			<path d="M18.88,13.437c0.733,1.37-0.823,3.627-3.475,5.046s-5.393,1.458-6.125,0.091c-0.73-1.368,0.824-3.628,3.476-5.045c2.651-1.419,5.392-1.458,6.124-0.092z"/>
			<g>
				<path d="M7.433,8.896c0.414,0.773,0.314,1.632-0.221,1.918s-1.305-0.108-1.719-0.882C5.081,9.159,5.18,8.301,5.714,8.015c0.535-0.286,1.305,0.108,1.719,0.881z"/>
				<path d="M13.795,5.494c0.413,0.772,0.314,1.631-0.22,1.917c-0.535,0.286-1.306-0.108-1.719-0.882c-0.414-0.773-0.314-1.631,0.221-1.917s1.305,0.108,1.718,0.882z"/>
			</g>
		</g>
	</g>
</svg>
