<?xml version="1.0" encoding="iso-8859-1"?>
<!-- Generator: Adobe Illustrator 9.0, SVG Export Plug-In  -->
<!DOCTYPE svg PUBLIC "-//W3C//DTD SVG 20000303 Stylable//EN"   "http://www.w3.org/TR/2000/03/WD-SVG-20000303/DTD/svg-20000303-stylable.dtd" [
	<!ENTITY st0 "fill-rule:nonzero;clip-rule:nonzero;fill:#FFFFFF;stroke:#000000;stroke-miterlimit:4;">
	<!ENTITY st1 "fill:#3466DE;">
	<!ENTITY st2 "stroke:none;">
]>
<svg  width="26pt" height="24pt" viewBox="0 0 26 24" xml:space="preserve">
	<g id="Layer_x0020_1" style="&st0;">
		<g style="&st2;">
			<path style="&st1;" d="M19.454,3.337c4.451,4.45,4.449,11.666,0,16.117c-4.449,4.449-11.664,4.449-16.115,0c-4.451-4.451-4.451-11.667,0-16.116c4.451-4.45,11.666-4.45,16.115,0z"/>
			<path d="M5.734,15.292c-0.642-0.643-2.193-1.994-0.974-3.213c1.152-1.152,2.592,0.354,3.256,1.02l2.128,2.127c0.798,0.799,1.927,1.95,0.82,3.059c-1.063,1.063-2.237,0-2.927-0.688l-2.304-2.305z M5.668,18.417c2.216,2.217,3.999,3.667,6.549,1.119
				c2.546-2.549,1.096-4.332-1.121-6.549l-1.186-1.185c-2.184-2.049-3.923-3.457-6.403-0.976c-2.483,2.482-1.074,4.223,0.974,6.404l1.188,1.186z"/>
			<path d="M16.116,15.237l-8.31-8.31l1.552-1.551l3.689,3.69l0.021-0.022c-0.41-0.897-0.742-2.028-1.02-2.97l-0.786-2.604l1.749-1.751l1.52,5.618l6.891,2.592l-1.75,1.751L14.93,9.864l0.355,1.44l2.381,2.382l-1.551,1.551z"/>
		</g>
	</g>
</svg>
