<?xml version="1.0" encoding="iso-8859-1"?>
<!-- Generator: Adobe Illustrator 9.0, SVG Export Plug-In  -->
<!DOCTYPE svg PUBLIC "-//W3C//DTD SVG 20000303 Stylable//EN"   "http://www.w3.org/TR/2000/03/WD-SVG-20000303/DTD/svg-20000303-stylable.dtd" [
	<!ENTITY st0 "fill:none;stroke:#D90000;stroke-width:3.06;">
	<!ENTITY st1 "fill-rule:nonzero;clip-rule:nonzero;fill:#FFFFFF;stroke:#000000;stroke-miterlimit:4;">
	<!ENTITY st2 "stroke:none;">
]>
<svg  width="32pt" height="20pt" viewBox="0 0 32 20" xml:space="preserve">
	<g id="Layer_x0020_1" style="&st1;">
		<g style="&st2;">
			<path d="M1.528,9.18c0,4.225,6.165,7.65,13.771,7.65s13.77-3.426,13.77-7.65c0-4.225-6.164-7.65-13.77-7.65S1.528,4.955,1.528,9.18z"/>
			<path style="&st0;" d="M1.528,9.18c0,4.225,6.165,7.65,13.771,7.65s13.77-3.426,13.77-7.65c0-4.225-6.164-7.65-13.77-7.65S1.528,4.955,1.528,9.18z"/>
			<path d="M8.414,8.415c0,3.802,3.082,6.885,6.885,6.885s6.885-3.083,6.885-6.885c0-3.803-3.082-6.885-6.885-6.885S8.414,4.612,8.414,8.415z"/>
			<path style="&st0;" d="M8.414,8.415c0,3.802,3.082,6.885,6.885,6.885s6.885-3.083,6.885-6.885c0-3.803-3.082-6.885-6.885-6.885S8.414,4.612,8.414,8.415z"/>
			<path d="M18.741,12.622l-7.268-8.797 M18.741,12.622"/>
			<path style="&st0;" d="M18.741,12.622l-7.268-8.797 M18.741,12.622"/>
		</g>
	</g>
</svg>
