<?xml version="1.0" encoding="iso-8859-1"?>
<!-- Generator: Adobe Illustrator 9.0, SVG Export Plug-In  -->
<!DOCTYPE svg PUBLIC "-//W3C//DTD SVG 20000303 Stylable//EN"   "http://www.w3.org/TR/2000/03/WD-SVG-20000303/DTD/svg-20000303-stylable.dtd" [
	<!ENTITY st0 "fill:#FF7F00;stroke:#FF7F00;stroke-width:2.43;stroke-linecap:round;stroke-linejoin:round;">
	<!ENTITY st1 "fill:#FF7F00;stroke:#FF7F00;stroke-width:2.43;">
	<!ENTITY st2 "fill-rule:nonzero;clip-rule:nonzero;fill:#FFFFFF;stroke:#D90000;stroke-width:3.4986;stroke-miterlimit:4;">
	<!ENTITY st3 "stroke:none;">
]>
<svg  width="42pt" height="32pt" viewBox="0 0 42 32" xml:space="preserve">
	<g id="Layer_x0020_1" style="&st2;">
		<g>
			<g>
				<g>
					<path style="&st0;" d="M1.215,30.69l7.762-11.587C23.602,9.429,33.336,2.107,35.414,1.216c0.788-0.338,4.244,2.038,5.062,6.188c0.082,0.415-25.594,17.736-27,18.562L1.215,30.69z"/>
					<path style="&st3;" d="M8.865,20.454c0,0-4.725,6.795-4.793,6.862c-0.067,0.067,1.013,1.013,1.013,1.013s7.401-2.902,7.604-3.038c0.203-0.135-0.787-2.295-1.529-3.104c-0.743-0.811-1.822-1.801-2.295-1.732"/>
					<path style="&st1;" d="M4.365,26.304c1.574,0.787,1.799,1.688,1.664,2.229c-0.135,0.539-2.699,1.214-3.105,1.214c-0.404,0,1.441-3.442,1.441-3.442z"/>
				</g>
			</g>
			<g>
				<path d="M16.289,13.816c0,4.225,3.627,7.65,8.101,7.65s8.101-3.425,8.101-7.65c0-4.225-3.627-7.65-8.101-7.65s-8.101,3.425-8.101,7.65z"/>
				<path d="M28.439,18.491l-8.55-9.775"/>
			</g>
		</g>
	</g>
</svg>
