<?xml version="1.0" encoding="iso-8859-1"?>
<!-- Generator: Adobe Illustrator 9.0, SVG Export Plug-In  -->
<!DOCTYPE svg PUBLIC "-//W3C//DTD SVG 20000303 Stylable//EN"   "http://www.w3.org/TR/2000/03/WD-SVG-20000303/DTD/svg-20000303-stylable.dtd" [
	<!ENTITY st0 "fill:none;stroke:#006532;stroke-width:3.2992;">
	<!ENTITY st1 "fill:#9ED67D;stroke:#006532;stroke-width:3.2992;">
	<!ENTITY st2 "fill:#3EA639;stroke:none;">
	<!ENTITY st3 "fill-rule:nonzero;clip-rule:nonzero;stroke:#000000;stroke-miterlimit:4;">
]>
<svg  width="42" height="26pt" viewBox="0 0 426 26" xml:space="preserve">
	<g id="Layer_x0020_1" style="&st3;">
		<g>
			<g>
				<g>
					<path style="&st1;" d="M12.976,24.304c6.256,0,11.33-5.071,11.33-11.328c0-6.257-5.074-11.328-11.33-11.328c-6.256,0-11.329,5.071-11.329,11.328c0,6.257,5.072,11.328,11.329,11.328z"/>
				</g>
			</g>
			<g>
				<g>
					<path style="&st1;" d="M27.18,24.323c6.257,0,11.329-5.072,11.329-11.329c0-6.256-5.072-11.328-11.329-11.328S15.851,6.738,15.851,12.994c0,6.257,5.072,11.329,11.329,11.329z"/>
				</g>
			</g>
			<path style="&st2;" d="M20.711,4.288c-1.686,1.467-3.447,3.959-3.665,5.719c-0.221,1.76-0.735,2.492-0.295,4.546c0.442,2.052,0.88,3.444,1.76,4.546c0.879,1.099,1.906,2.053,2.126,2.272s0.073,0.073,1.467-2.272c1.393-2.348,1.832-3.959,1.832-5.939
				s-0.66-4.619-1.026-5.719c-0.366-1.099-2.199-3.153-2.199-3.153z"/>
			<g>
				<g>
					<path style="&st0;" d="M12.976,24.304c6.256,0,11.33-5.071,11.33-11.328c0-6.257-5.074-11.328-11.33-11.328c-6.256,0-11.329,5.071-11.329,11.328c0,6.257,5.072,11.328,11.329,11.328z"/>
				</g>
			</g>
			<g>
				<g>
					<path style="&st0;" d="M27.18,24.323c6.257,0,11.329-5.072,11.329-11.329c0-6.256-5.072-11.328-11.329-11.328S15.851,6.738,15.851,12.994c0,6.257,5.072,11.329,11.329,11.329z"/>
				</g>
			</g>
		</g>
	</g>
</svg>
