<svg width="51" height="25">
 <!-- DraftEmblem62000.eps converted by ill2svg.pl -->
 <defs>
 </defs>
 <g> <!-- Layer: Layer 1 -->
   <!-- 0 1 1 1 1 Ap -->
  <g style="fill:none; stroke: #176ed5; stroke-width: 1.89; stroke-miterlimit: 4">
   <path d="M38.519 23.773C44.565 23.773 49.465 18.875 49.465 12.83C49.465 6.785 44.565 1.884 38.519 1.884L12.297 1.884C6.252 1.884 1.352 6.785 1.352 12.83C1.352 18.875 6.252 23.773 12.297 23.773L38.519 23.773z"/>
   <!-- 0 Ap -->
  </g>
  <g style="fill: #176ed5">
   <path d="M9.554 10.268C10.86 10.268 11.084 11.869 11.084 13.02C11.084 14.017 10.86 15.645 9.554 15.659L9.554 10.268zM6.69 18.215L9.189 18.215C10.93 18.215 14.005 17.765 14.005 12.879C14.005 9.678 12.25 7.628 8.993 7.628L6.69 7.628L6.69 18.215z"/>
   <path d="M18.245 12.514L18.245 9.903C19.031 9.861 19.593 10.254 19.593 11.181C19.593 11.869 19.185 12.528 18.428 12.528L18.245 12.514zM22.92 18.215L20.786 13.806C21.923 13.356 22.429 12.317 22.429 11.152C22.429 8.358 20.631 7.628 18.147 7.628L15.381 7.628L15.381 18.215L18.245 18.215L18.245 15.393C18.245 14.873 18.217 14.353 18.203 13.834L18.231 13.806L19.817 18.215L22.92 18.215z"/>
   <path d="M26.697 14.606L27.09 12.149C27.202 11.489 27.272 10.815 27.357 10.155L27.385 10.155C27.455 10.815 27.511 11.489 27.596 12.149L27.904 14.606L26.697 14.606zM31.415 18.215L29.168 7.628L25.672 7.628L23.131 18.215L26.079 18.215L26.317 16.853L28.241 16.853L28.452 18.215L31.415 18.215z"/>
   <path d="M32.356 18.215L32.356 7.628L37.409 7.628L37.409 10.127L35.219 10.127L35.219 11.658L37.268 11.658L37.268 14.157L35.219 14.157L35.219 18.215L32.356 18.215z"/>
   <path d="M40.161 18.215L40.161 10.212L38.588 10.212L38.588 7.628L44.666 7.628L44.666 10.212L43.025 10.212L43.025 18.215L40.161 18.215z"/>
  </g>
 </g>
</svg>
