<?xml version="1.0" encoding="iso-8859-1"?>
<!-- Generator: Adobe Illustrator 9.0, SVG Export Plug-In  -->
<!DOCTYPE svg PUBLIC "-//W3C//DTD SVG 20000303 Stylable//EN"   "http://www.w3.org/TR/2000/03/WD-SVG-20000303/DTD/svg-20000303-stylable.dtd" [
	<!ENTITY st0 "fill:#D90000;stroke:none;">
	<!ENTITY st1 "fill-rule:nonzero;clip-rule:nonzero;stroke:#000000;stroke-miterlimit:4;">
	<!ENTITY st2 "fill:#D90000;stroke:#FFFFFF;stroke-width:4;">
]>
<svg  width="32.184pt" height="33.011pt" viewBox="0 0 32.184 33.011" xml:space="preserve">
	<g id="Layer_x0020_1" style="&st1;">
		<g>
			<path style="&st0;" d="M16.093,0l2.578,5.217l4.583-3.583l0.06,5.819l5.683-1.239l-2.47,5.267l5.657,1.35l-4.513,3.674l4.513,3.674l-5.657,1.351l2.47,5.267l-5.683-1.238l-0.06,5.818l-4.583-3.582l-2.578,5.217l-2.576-5.217l-4.586,3.582l-0.059-5.818
				l-5.685,1.238l2.472-5.267L0,20.179l4.513-3.674L0,12.832l5.659-1.35L3.188,6.214l5.685,1.239l0.059-5.819l4.586,3.583L16.093,0z"/>
			<path style="&st2;" d="M22.202,11.221l-8,10l-4.25-4.75"/>
		</g>
	</g>
</svg>
