<?xml version="1.0" encoding="iso-8859-1"?>
<!-- Generator: Adobe Illustrator 9.0, SVG Export Plug-In  -->
<!DOCTYPE svg PUBLIC "-//W3C//DTD SVG 20000303 Stylable//EN"   "http://www.w3.org/TR/2000/03/WD-SVG-20000303/DTD/svg-20000303-stylable.dtd" [
	<!ENTITY st0 "fill-rule:nonzero;clip-rule:nonzero;stroke:#000000;stroke-miterlimit:4;">
	<!ENTITY st1 "fill:#2A5FAA;stroke:none;">
]>
<svg  width="21.444pt" height="23.685pt" viewBox="0 0 21.444 23.685" xml:space="preserve">
	<g id="Layer_x0020_1" style="&st0;">
		<path style="&st1;" d="M0,18.16c0.341,0.171,1.587,0.45,3.53,0.798c3.021,0.54,3.728,1.787,6.38,3.304c1.196,0.685,2.733,1.366,3.246,1.424c2.776,0.31,3.366-0.726,4.898-1.31c2.393-0.911,3.077-2.051,3.39-4.131c0.332-2.197-0.428-3.104-2.135-6.749
			c-0.884-1.882-1.377-5.741-1.861-8.282c-0.52-2.732-2.539-2.381-2.334,0.058c0.182,2.161,0.287,2.554,0.436,4.636c0.099,1.374-0.501,0.66-0.923-0.395c-1.114-2.79-1.476-4.219-2.321-5.977c-1.15-2.401-3.021-1.899-2.258,0.867c0.459,1.657,2.996,7.213,1.828,7.128
			c-0.449-0.033-3.844-6.579-5.555-8.715C5.104-0.705,3.929,0.047,3.929,1.157c0,1.057,5.127,9.313,4.785,9.741c-0.416,0.521-2.648-2.82-4.529-5.126c-1.793-2.204-2.818-2.137-3.33-0.939c-0.514,1.195,5.297,8.543,5.98,9.911c0.683,1.367,0.179,1.614-1.111,1.452
			c-1.365-0.171-2.59-0.542-4.641-0.028C-0.042,16.448-0.628,17.705,0,18.16z"/>
	</g>
</svg>
