<?xml version="1.0" encoding="iso-8859-1"?>
<!-- Generator: Adobe Illustrator 9.0, SVG Export Plug-In  -->
<!DOCTYPE svg PUBLIC "-//W3C//DTD SVG 20000303 Stylable//EN"   "http://www.w3.org/TR/2000/03/WD-SVG-20000303/DTD/svg-20000303-stylable.dtd" [
	<!ENTITY st0 "fill:#D90000;stroke:none;">
	<!ENTITY st1 "fill:#FFFFFF;stroke:#D40026;stroke-width:2.6552;">
	<!ENTITY st2 "fill-rule:nonzero;clip-rule:nonzero;stroke:#000000;stroke-miterlimit:4;">
]>
<svg  width="26pt" height="26pt" viewBox="0 0 26 26" xml:space="preserve">
	<g id="Layer_x0020_1" style="&st2;">
		<g>
			<path style="&st1;" d="M22.568,11.949c0,5.865-4.756,10.62-10.621,10.62S1.326,17.814,1.326,11.949c0-5.866,4.756-10.622,10.621-10.622s10.621,4.756,10.621,10.622z"/>
			<path style="&st0;" d="M10.311,17.873c0-0.982,0.793-1.775,1.777-1.775c0.962,0,1.753,0.793,1.753,1.775c0,0.97-0.791,1.761-1.753,1.761c-0.984,0-1.777-0.791-1.777-1.761 M11.684,14.637c-0.198-4.227-1.448-7.005-1.448-8.07c0-1.023,0.848-1.755,1.853-1.755
				c1.002,0,1.849,0.731,1.849,1.755c0,1.065-1.25,3.844-1.447,8.07h-0.806"/>
		</g>
	</g>
</svg>
