<?xml version="1.0" encoding="iso-8859-1"?>
<!-- Generator: Adobe Illustrator 9.0, SVG Export Plug-In  -->
<!DOCTYPE svg PUBLIC "-//W3C//DTD SVG 20000303 Stylable//EN"   "http://www.w3.org/TR/2000/03/WD-SVG-20000303/DTD/svg-20000303-stylable.dtd" [
	<!ENTITY st0 "fill:#4FA52B;stroke:none;">
	<!ENTITY st1 "fill:#FFFFFF;stroke:#4FA52B;stroke-width:3.75;">
	<!ENTITY st2 "fill-rule:nonzero;clip-rule:nonzero;stroke:#000000;stroke-miterlimit:4;">
]>
<svg  width="32pt" height="32pt" viewBox="0 0 32 32" xml:space="preserve">
	<g id="Layer_x0020_1" style="&st2;">
		<g>
			<g>
				<g>
					<path style="&st1;" d="M14.75,27.628c7.112,0,12.875-5.766,12.875-12.877c0-7.111-5.764-12.876-12.875-12.876c-7.111,0-12.877,5.765-12.877,12.876c0,7.112,5.766,12.877,12.877,12.877z"/>
				</g>
			</g>
			<g>
			</g>
		</g>
		<g>
			<path style="&st0;" d="M16.934,22.39h-4.5l0.432-4.457l-3.549,2.553l-2.25-3.895l4.025-1.818l-4.025-1.861l2.25-3.895l3.549,2.598l-0.432-4.502h4.5l-0.432,4.502l3.635-2.598l2.295,3.895l-4.113,1.861l4.113,1.818l-2.295,3.895l-3.635-2.553l0.432,4.457z"/>
		</g>
	</g>
</svg>
