<?xml version="1.0" encoding="iso-8859-1"?>
<!-- Generator: Adobe Illustrator 9.0, SVG Export Plug-In  -->
<!DOCTYPE svg PUBLIC "-//W3C//DTD SVG 20000303 Stylable//EN"   "http://www.w3.org/TR/2000/03/WD-SVG-20000303/DTD/svg-20000303-stylable.dtd" [
	<!ENTITY st0 "fill-rule:nonzero;clip-rule:nonzero;fill:#FFFFFF;stroke:#000000;stroke-miterlimit:4;">
	<!ENTITY st1 "stroke:none;">
	<!ENTITY st2 "fill:#409D27;">
]>
<svg  width="28pt" height="28pt" viewBox="0 0 28 28" xml:space="preserve">
	<g id="Layer_x0020_1" style="&st0;">
		<g style="&st1;">
			<g>
				<path style="&st2;" d="M24.99,12.495L12.494,24.991L0,12.495L12.496,0L24.99,12.495z"/>
			</g>
			<g>
				<path d="M8.118,10.748c0.318,0.265,0.478,0.702,0.478,1.312v3.276H7.283v-2.958c0-0.256-0.033-0.452-0.101-0.589c-0.123-0.25-0.356-0.375-0.701-0.375c-0.424,0-0.715,0.183-0.872,0.549c-0.082,0.193-0.123,0.44-0.123,0.741v2.632H4.221v-4.859h1.219v0.713
					c0.162-0.251,0.316-0.432,0.462-0.542c0.26-0.197,0.59-0.296,0.989-0.296c0.5,0,0.91,0.132,1.228,0.396z"/>
				<path d="M12.939,10.578c0.338,0.151,0.617,0.39,0.837,0.716c0.198,0.288,0.327,0.622,0.386,1.001c0.034,0.223,0.048,0.543,0.042,0.961h-3.537c0.02,0.485,0.189,0.826,0.511,1.021c0.195,0.121,0.431,0.182,0.705,0.182c0.291,0,0.527-0.072,0.71-0.219
					c0.099-0.078,0.187-0.188,0.263-0.328h1.28c-0.034,0.287-0.19,0.578-0.47,0.873c-0.434,0.471-1.041,0.705-1.821,0.705c-0.645,0-1.213-0.199-1.705-0.597s-0.738-1.044-0.738-1.94c0-0.839,0.222-1.483,0.667-1.932c0.444-0.448,1.021-0.672,1.731-0.672
					c0.422,0,0.802,0.076,1.14,0.227z M11.025,11.683c-0.183,0.18-0.297,0.423-0.343,0.73h2.219c-0.023-0.327-0.139-0.576-0.344-0.746s-0.46-0.254-0.764-0.254c-0.33,0-0.587,0.09-0.769,0.27z"/>
				<path d="M17.158,10.476h1.247l0.777,3.5l0.745-3.5h1.321l-1.39,4.859h-1.298l-0.785-3.54l-0.785,3.54h-1.318l-1.356-4.859h1.362l0.754,3.486l0.726-3.486z"/>
			</g>
		</g>
	</g>
</svg>
