<?xml version="1.0" encoding="iso-8859-1"?>
<!-- Generator: Adobe Illustrator 9.0, SVG Export Plug-In  -->
<!DOCTYPE svg PUBLIC "-//W3C//DTD SVG 20000303 Stylable//EN"   "http://www.w3.org/TR/2000/03/WD-SVG-20000303/DTD/svg-20000303-stylable.dtd" [
	<!ENTITY st0 "fill-rule:nonzero;clip-rule:nonzero;fill:#274D8B;stroke:#000000;stroke-miterlimit:4;">
	<!ENTITY st1 "fill:#FFFFFF;stroke:#274D8B;stroke-width:3.15;">
	<!ENTITY st2 "stroke:none;">
]>
<svg  width="52pt" height="26pt" viewBox="0 0 52 26" xml:space="preserve">
	<g id="Layer_x0020_1" style="&st0;">
		<g style="&st2;">
			<g>
				<path style="&st1;" d="M38.743,23.465c6.044,0,10.945-4.9,10.945-10.945c0-6.045-4.901-10.945-10.945-10.945H12.519c-6.045,0-10.946,4.9-10.946,10.945c0,6.044,4.901,10.945,10.946,10.945h26.224z"/>
			</g>
			<path d="M9.777,9.958c1.306,0,1.529,1.601,1.529,2.752c0,0.997-0.224,2.625-1.529,2.639V9.958z M6.913,17.905h2.499c1.741,0,4.816-0.449,4.816-5.334c0-3.201-1.757-5.251-5.014-5.251H6.913v10.586z"/>
			<path d="M18.467,12.205V9.594c0.786-0.042,1.348,0.351,1.348,1.278c0,0.688-0.406,1.348-1.164,1.348l-0.184-0.014z M23.143,17.905l-2.135-4.408c1.137-0.449,1.643-1.488,1.643-2.653c0-2.794-1.797-3.524-4.281-3.524h-2.766v10.586h2.863v-2.821
				c0-0.52-0.027-1.039-0.042-1.559l0.028-0.028l1.586,4.408h3.104z"/>
			<path d="M26.919,14.297l0.393-2.457c0.112-0.66,0.183-1.334,0.267-1.994h0.027c0.07,0.66,0.127,1.334,0.211,1.994l0.311,2.457h-1.208z M31.637,17.905L29.391,7.319h-3.496l-2.543,10.586h2.949l0.238-1.361h1.924l0.21,1.361h2.964z"/>
			<path d="M32.578,17.905V7.319h5.054v2.5h-2.19v1.53h2.05v2.5h-2.05v4.057h-2.863z"/>
			<path d="M40.383,17.905V9.903h-1.572V7.319h6.078v2.584h-1.642v8.002h-2.864z"/>
		</g>
	</g>
</svg>
