<?xml version="1.0" encoding="iso-8859-1"?>
<!-- Generator: Adobe Illustrator 9.0, SVG Export Plug-In  -->
<!DOCTYPE svg PUBLIC "-//W3C//DTD SVG 20000303 Stylable//EN"   "http://www.w3.org/TR/2000/03/WD-SVG-20000303/DTD/svg-20000303-stylable.dtd" [
	<!ENTITY st0 "fill-rule:nonzero;clip-rule:nonzero;fill:#FFFFFF;stroke:#000000;stroke-miterlimit:4;">
	<!ENTITY st1 "fill:#3466DE;stroke:#3466DE;stroke-width:2.9783;">
	<!ENTITY st2 "stroke:none;">
]>
<svg  width="30pt" height="30pt" viewBox="0 0 30 30" xml:space="preserve">
	<g id="Layer_x0020_1" style="&st0;">
		<g style="&st2;">
			<g>
				<g>
					<path style="&st1;" d="M14.364,27.242c7.111,0,12.876-5.766,12.876-12.877c0-7.111-5.765-12.876-12.876-12.876S1.487,7.253,1.487,14.365c0,7.112,5.766,12.877,12.877,12.877z"/>
				</g>
			</g>
			<g>
				<path d="M6.757,18.987c-0.795-0.797-2.715-2.47-1.207-3.979c1.428-1.427,3.211,0.438,4.035,1.263l2.635,2.634c0.986,0.988,2.387,2.415,1.014,3.787c-1.316,1.317-2.771,0-3.621-0.851l-2.855-2.854z M6.675,22.856c2.744,2.744,4.953,4.541,8.109,1.386
					c3.156-3.156,1.359-5.364-1.385-8.109l-1.469-1.468c-2.703-2.538-4.857-4.28-7.932-1.208c-3.072,3.074-1.33,5.229,1.209,7.932l1.467,1.468z"/>
				<path d="M19.614,18.918L9.323,8.628l1.922-1.921l4.568,4.569l0.027-0.027c-0.508-1.111-0.918-2.512-1.262-3.678l-0.975-3.225l2.168-2.168l1.879,6.957l8.535,3.21l-2.168,2.168l-5.873-2.25l0.439,1.784l2.949,2.949l-1.92,1.921z"/>
			</g>
		</g>
	</g>
</svg>
