<?xml version="1.0" encoding="iso-8859-1"?>
<!-- Generator: Adobe Illustrator 9.0, SVG Export Plug-In  -->
<!DOCTYPE svg PUBLIC "-//W3C//DTD SVG 20000303 Stylable//EN"   "http://www.w3.org/TR/2000/03/WD-SVG-20000303/DTD/svg-20000303-stylable.dtd" [
	<!ENTITY st0 "fill-rule:nonzero;clip-rule:nonzero;fill:#FFFFFF;stroke:#000000;stroke-miterlimit:4;">
	<!ENTITY st1 "fill:#3F3997;">
	<!ENTITY st2 "stroke:none;">
]>
<svg  width="55pt" height="20pt" viewBox="0 0 55 20" xml:space="preserve">
	<g id="Layer_x0020_1" style="&st0;">
		<g style="&st2;">
			<path style="&st1;" d="M55,16c0,2.209-1.97,4-4.399,4H4.4C1.971,20,0,18.209,0,16V4c0-2.209,1.971-4,4.4-4h46.2C53.03,0,55,1.791,55,4v12z"/>
			<g>
				<path d="M10.051,7.591H7.113V6.699c0-0.417-0.037-0.682-0.11-0.795C6.929,5.789,6.806,5.732,6.634,5.732c-0.187,0-0.328,0.077-0.424,0.231s-0.144,0.387-0.144,0.7c0,0.402,0.056,0.705,0.168,0.908c0.107,0.204,0.404,0.451,0.892,0.743
					c1.398,0.839,2.279,1.526,2.644,2.06c0.364,0.535,0.546,1.395,0.546,2.583c0,0.864-0.102,1.5-0.304,1.909s-0.593,0.752-1.172,1.029c-0.58,0.277-1.254,0.416-2.023,0.416c-0.844,0-1.565-0.16-2.162-0.479s-0.987-0.726-1.172-1.22
					c-0.185-0.493-0.277-1.194-0.277-2.102v-0.793h2.938v1.466c0,0.452,0.041,0.742,0.122,0.871c0.082,0.13,0.227,0.194,0.434,0.194s0.362-0.082,0.463-0.246s0.152-0.408,0.152-0.731c0-0.711-0.099-1.176-0.295-1.395c-0.201-0.219-0.692-0.587-1.473-1.104
					C4.768,10.249,4.25,9.871,3.996,9.636C3.741,9.401,3.531,9.077,3.364,8.663c-0.167-0.415-0.25-0.943-0.25-1.587c0-0.928,0.118-1.607,0.355-2.037c0.237-0.429,0.62-0.765,1.148-1.007c0.529-0.242,1.168-0.363,1.916-0.363c0.818,0,1.516,0.132,2.092,0.397
					S9.583,4.664,9.77,5.065s0.281,1.084,0.281,2.047v0.479z"/>
				<path d="M12.166,3.919h5.266v2.438h-2.109v2.297h1.969v2.313h-1.969v2.656h2.312v2.438h-5.469V3.919z"/>
				<path d="M26.784,9.201h-3.156V7.102c0-0.61-0.034-0.991-0.101-1.143c-0.067-0.151-0.215-0.227-0.444-0.227c-0.258,0-0.422,0.092-0.492,0.277c-0.069,0.185-0.104,0.583-0.104,1.196v5.622c0,0.589,0.035,0.972,0.104,1.151c0.07,0.18,0.226,0.27,0.47,0.27
					c0.233,0,0.386-0.091,0.458-0.271c0.072-0.181,0.108-0.604,0.108-1.269v-1.523h3.156v0.473c0,1.258-0.089,2.149-0.266,2.676c-0.177,0.525-0.569,0.986-1.176,1.383c-0.607,0.396-1.355,0.594-2.244,0.594c-0.924,0-1.686-0.168-2.285-0.502
					c-0.599-0.335-0.996-0.799-1.191-1.391s-0.292-1.482-0.292-2.671V8.203c0-0.874,0.03-1.53,0.09-1.967c0.06-0.438,0.238-0.858,0.535-1.263c0.297-0.405,0.709-0.723,1.236-0.956s1.132-0.349,1.816-0.349c0.929,0,1.695,0.179,2.299,0.539
					c0.604,0.358,1.001,0.806,1.191,1.341c0.189,0.536,0.285,1.369,0.285,2.5v1.151z"/>
				<path d="M28.774,3.919h2.233c1.489,0,2.497,0.058,3.024,0.172c0.527,0.115,0.957,0.409,1.29,0.882c0.332,0.473,0.499,1.228,0.499,2.263c0,0.946-0.118,1.581-0.354,1.906c-0.234,0.325-0.697,0.521-1.387,0.585c0.625,0.155,1.045,0.362,1.26,0.622
					s0.348,0.498,0.4,0.716c0.053,0.217,0.08,0.815,0.08,1.794v3.2h-2.938v-4.031c0-0.648-0.052-1.051-0.153-1.206c-0.102-0.154-0.368-0.231-0.8-0.231v5.469h-3.156V3.919z M31.931,5.998v2.703c0.352,0,0.599-0.048,0.74-0.146s0.213-0.415,0.213-0.95V6.936
					c0-0.385-0.068-0.638-0.205-0.758s-0.387-0.18-0.748-0.18z"/>
				<path d="M37.906,3.919h5.266v2.438h-2.109v2.297h1.969v2.313h-1.969v2.656h2.312v2.438h-5.469V3.919z"/>
				<path d="M51.306,3.919v2.438h-1.875v9.704h-3.156V6.357h-1.859V3.919h6.891z"/>
			</g>
		</g>
	</g>
</svg>
