<svg width="95" height="82">
 <!-- Service_hand.eps converted by ill2svg.pl -->
 <defs>
 </defs>
 <g> <!-- Layer: Layer 1 -->
  <g style="fill: #000000">
   <path d="M9.726 43.049C9.726 43.049 17.055 35.471 17.217 31.182C17.448 25.053 16.985 21.963 22.315 19.029C25.965 17.018 33.943 15.405 37.294 13.791C40.644 12.176 46.378 4.782 47.818 1.653C48.745 -0.362 50.183 1.493 51.262 2.517C53.135 4.292 53.871 6.332 53.935 8.577C54.017 11.367 50.744 16.275 48.976 18.104C47.929 19.186 51.572 18.008 53.762 18.44C55.951 18.87 58.2 19.768 58.547 18.774C59.323 16.554 63.323 12.946 64.361 12.221C68.932 9.026 71.424 13.127 72.617 11.993C71.361 13.187 78.72 6.326 84.479 8.34C85.968 8.86 90.073 5.727 92.937 7.612C94.791 8.832 94.205 12.074 93.218 13.623C92.231 15.172 90.424 15.877 87.511 17.2C84.598 18.521 80.171 20.985 79.297 21.571C77.344 22.882 72.638 28.826 69.851 32.977C67.264 36.828 68.69 35.023 66.333 36.985C62.319 40.326 45.103 39.585 42.889 40.817C40.676 42.049 39.667 44.707 38.593 48.125C37.236 52.448 36.11 56.505 34.453 58.377C31.896 61.266 25.91 60.065 22.286 57.684C18.661 55.302 10.281 52.818 9.336 49.146C8.392 45.472 9.726 43.049 9.726 43.049z"/>
  </g>
  <g style="fill: #ffffff">
   <path d="M19.735 34.179C20.227 30.94 16.253 40.316 11.802 44.443C10.796 45.375 18.47 53.017 23.297 54.589C27.999 56.122 29.985 56.816 31.325 56.17C32.665 55.524 33.389 53.771 35.04 50.003C36.577 46.497 38.696 43.37 37.793 43.722C34.656 44.947 27.845 43.81 25.064 40.611C22.283 37.409 19.477 35.872 19.735 34.179z"/>
  </g>
  <g style="fill: #ffbf7f">
   <path d="M23.924 20.601C22.349 21.657 20.544 21.982 20.059 25.601C19.682 28.418 21.422 32.54 22.624 34.521C23.826 36.501 28.007 39.522 30.663 39.893C33.319 40.264 36.214 42.502 38.541 40.307C40.868 38.112 43.201 37.812 47.604 37.012C52.007 36.211 59.944 37.091 62.535 35.1C65.125 33.108 63.971 27.802 64.779 24.853C65.587 21.904 66.419 17.293 67.669 15.947C68.919 14.601 70.284 12.292 68.447 12.765C66.611 13.237 65.122 12.716 61.926 17.394C59.66 20.712 58.325 22.597 57.899 26.683C57.592 29.642 53.75 27.166 50.691 25.946C48.442 25.049 47.743 25.138 45.673 25.641C43.603 26.143 39.86 26.196 43.688 24.946C53.246 21.825 55.363 27.244 55.591 25.319C55.705 24.356 57.865 21.522 56.249 21.204C48.952 19.767 41.494 21.233 43.963 19.694C49.233 16.411 47.194 17.147 49.868 13.959C53.295 9.873 51.238 4.298 49.576 4.274C47.913 4.25 45.802 10.372 42.6 12.755C39.136 15.332 41.206 14.831 37.096 16.068C32.986 17.306 25.234 19.722 23.924 20.601z"/>
   <!-- 0 N -->
   <path d="M32.119 19.789M66.639 31.966C66.957 34.446 73.435 22.084 75.529 19.919C77.551 17.829 84.173 13.358 83.235 11.582C82.295 9.805 79.168 9.27 74.226 13.447C70.588 16.522 71.001 17.892 69.577 19.734C68.793 20.749 66.141 28.078 66.639 31.966z"/>
   <path d="M81.386 17.51C80.06 18.739 90.972 13.537 91.262 13.162C92.686 11.32 92.794 8.46 89.994 8.819C87.195 9.178 86.118 10.027 85.681 10.32C85.245 10.613 86.178 10.494 86.184 12.39C86.19 14.286 82.869 16.134 81.386 17.51z"/>
  </g>
  <g style="fill: #000000">
   <path d="M10.282 43.689C10.282 43.689 8.38 41.799 7.363 43.115C6.346 44.43 1.708 54.509 0.812 56.758C-0.086 59.007 3.964 57.303 5.698 61.586C7.432 65.87 10.817 66.384 14.293 67.599C17.769 68.813 17.14 73.162 19.365 75.723C21.59 78.284 25.453 82.531 27.667 81.299C29.88 80.067 38.463 61.758 37.665 59.389C35.751 53.706 33.609 59.197 27.305 58.107C21 57.018 18.955 55.857 16.263 53.356C13.571 50.856 10.282 43.689 10.282 43.689z"/>
  </g>
 </g>
</svg>
