<svg width="68" height="58">
 <!-- Services hand.eps converted by ill2svg.pl -->
 <g style="fill: #000000">
  <path d="M7.124 30.403C7.124 30.403 12.359 24.99 12.475 21.927C12.64 17.549 12.309 15.342 16.116 13.246C18.724 11.81 24.422 10.658 26.815 9.504C29.208 8.351 33.304 3.07 34.332 0.835C34.995 -0.605 36.022 0.72 36.793 1.452C38.131 2.72 38.656 4.177 38.702 5.78C38.76 7.773 36.423 11.279 35.16 12.585C34.412 13.358 37.014 12.517 38.578 12.825C40.142 13.133 41.748 13.774 41.996 13.065C42.55 11.479 45.408 8.901 46.149 8.383C49.414 6.102 51.194 9.031 52.046 8.221C51.149 9.073 56.405 4.173 60.519 5.611C61.583 5.983 64.515 3.745 66.561 5.091C67.885 5.963 67.466 8.278 66.761 9.385C66.056 10.491 64.766 10.995 62.685 11.939C60.604 12.883 57.442 14.643 56.818 15.062C55.423 15.998 52.062 20.244 50.07 23.209C48.223 25.96 49.241 24.67 47.558 26.072C44.69 28.458 32.393 27.929 30.812 28.809C29.231 29.689 28.511 31.588 27.744 34.029C26.774 37.117 25.97 40.015 24.786 41.352C22.96 43.415 18.684 42.557 16.095 40.856C13.506 39.155 7.52 37.382 6.846 34.758C6.171 32.134 7.124 30.403 7.124 30.403z"/>
 </g>
 <g style="fill: #ffffff">
  <path d="M14.273 24.068C14.625 21.754 11.786 28.451 8.607 31.399C7.888 32.065 13.37 37.523 16.818 38.647C20.176 39.741 21.595 40.237 22.552 39.775C23.509 39.314 24.026 38.062 25.206 35.37C26.303 32.866 27.817 30.632 27.172 30.884C24.931 31.759 20.066 30.947 18.08 28.661C16.093 26.375 14.089 25.277 14.273 24.068z"/>
 </g>
 <g style="fill: #ffbf7f">
  <path d="M17.265 14.369C16.141 15.124 14.851 15.356 14.505 17.941C14.235 19.953 15.478 22.897 16.337 24.312C17.196 25.726 20.182 27.884 22.079 28.149C23.976 28.414 26.044 30.012 27.706 28.445C29.368 26.877 31.035 26.663 34.18 26.091C37.325 25.519 42.994 26.148 44.845 24.725C46.695 23.303 45.871 19.513 46.448 17.406C47.025 15.3 47.619 12.006 48.512 11.045C49.405 10.083 50.38 8.434 49.068 8.771C47.756 9.109 46.692 8.737 44.41 12.078C42.791 14.449 41.838 15.795 41.534 18.713C41.314 20.827 38.57 19.059 36.385 18.187C34.779 17.546 34.279 17.61 32.801 17.969C31.322 18.327 28.648 18.365 31.382 17.473C38.21 15.243 39.722 19.115 39.885 17.739C39.966 17.051 41.509 15.026 40.355 14.799C35.143 13.773 29.815 14.82 31.579 13.721C35.344 11.376 33.887 11.901 35.797 9.624C38.245 6.706 36.776 2.724 35.588 2.707C34.4 2.69 32.893 7.063 30.606 8.765C28.131 10.606 29.61 10.247 26.674 11.131C23.739 12.015 18.201 13.741 17.265 14.369z"/>
 </g>
 <g style="fill: #ffbf7f">
  <path d="M23.119 13.789M47.776 22.487C48.003 24.258 52.631 15.429 54.126 13.882C55.571 12.389 60.301 9.196 59.63 7.927C58.96 6.658 56.726 6.275 53.195 9.259C50.597 11.455 50.892 12.433 49.875 13.749C49.314 14.475 47.42 19.709 47.776 22.487z"/>
 </g>
 <g style="fill: #ffbf7f">
  <path d="M58.31 12.161C57.362 13.039 65.157 9.323 65.364 9.055C66.381 7.74 66.458 5.697 64.459 5.953C62.459 6.21 61.69 6.816 61.378 7.026C61.066 7.235 61.733 7.149 61.737 8.504C61.741 9.858 59.369 11.178 58.31 12.161z"/>
 </g>
 <g style="fill: #000000">
  <path d="M7.522 30.861C7.522 30.861 6.163 29.51 5.436 30.45C4.71 31.39 1.398 38.589 0.757 40.195C0.115 41.802 3.008 40.585 4.247 43.644C5.486 46.704 7.904 47.071 10.386 47.939C12.869 48.807 12.42 51.913 14.009 53.742C15.598 55.571 18.358 58.605 19.939 57.725C21.52 56.845 27.65 43.767 27.081 42.075C25.714 38.015 24.184 41.938 19.68 41.159C15.177 40.381 13.716 39.552 11.793 37.766C9.871 35.979 7.522 30.861 7.522 30.861z"/>
 </g>
</svg>
