/* XPM */
static char *error_symbol[] = {
/* width height num_colors chars_per_pixel */
"    46    35      255            2",
/* colors */
".. c #000000",
".# c #ffffff",
".a c #fddd27",
".b c #e1eced",
".c c #e0ebec",
".d c #dfebec",
".e c #deeaeb",
".f c #17191a",
".g c #1b1d1e",
".h c #606668",
".i c #1d2122",
".j c #424a4c",
".k c #707d80",
".l c #272b2c",
".m c #505455",
".n c #485153",
".o c #2b3031",
".p c #34393a",
".q c #d2e1e4",
".r c #d0dfe2",
".s c #44494a",
".t c #8e9799",
".u c #b4bdbf",
".v c #dfe9eb",
".w c #d4dddf",
".x c #e4edef",
".y c #858a8b",
".z c #aac1c5",
".A c #b6ced2",
".B c #b5cdd1",
".C c #5a6668",
".D c #2f3536",
".E c #657173",
".F c #323839",
".G c #353b3c",
".H c #3b4142",
".I c #cfdfe2",
".J c #555b5c",
".K c #595f60",
".L c #686e6f",
".M c #dde9eb",
".N c #ced9db",
".O c #e0ebed",
".P c #dfeaec",
".Q c #747a7b",
".R c #e1ecee",
".S c #818788",
".T c #808687",
".U c #b1cace",
".V c #afc8cc",
".W c #a4babd",
".X c #90a3a6",
".Y c #738284",
".Z c #a2b6b9",
".0 c #9cafb2",
".1 c #788688",
".2 c #3d4445",
".3 c #bdd2d5",
".4 c #baced1",
".5 c #909fa1",
".6 c #adbbbd",
".7 c #c6d5d7",
".8 c #c2d1d3",
".9 c #5d6465",
"#. c #d4e3e5",
"## c #d3e2e4",
"#a c #d2e1e3",
"#b c #beccce",
"#c c #b5c2c4",
"#d c #d6e4e6",
"#e c #6e7576",
"#f c #abc5c8",
"#g c #a7bfc2",
"#h c #7d8f91",
"#i c #b1cacd",
"#j c #b0c8cb",
"#k c #aec6c9",
"#l c #b6ced1",
"#m c #b5cccf",
"#n c #b4cbce",
"#o c #829395",
"#p c #444d4e",
"#q c #3f4748",
"#r c #98abad",
"#s c #96a8aa",
"#t c #8b9c9e",
"#u c #869698",
"#v c #90a0a2",
"#w c #4f5758",
"#x c #c9dadc",
"#y c #cfe0e2",
"#z c #ccdddf",
"#A c #cbdcde",
"#B c #d0e0e2",
"#C c #cedee0",
"#D c #8a9394",
"#E c #c6cfd0",
"#F c #acb4b5",
"#G c #e6eff0",
"#H c #dfe8e9",
"#I c #92a6a8",
"#J c #9fb4b6",
"#K c #adc2c4",
"#L c #586364",
"#M c #b1c6c8",
"#N c #6d7a7b",
"#O c #c0d5d7",
"#P c #626c6d",
"#Q c #a7b2b3",
"#R c #99a3a4",
"#S c #ddeaeb",
"#T c #dbe8e9",
"#U c #dae7e8",
"#V c #e0eced",
"#W c #dfeaeb",
"#X c #c2cccd",
"#Y c #e2edee",
"#Z c #dce6e7",
"#0 c #d9e3e4",
"#1 c #e5eff0",
"#2 c #e4eeef",
"#3 c #e2eced",
"#4 c #b8c7c8",
"#5 c #b8c6c7",
"#6 c #d5e4e5",
"#7 c #d9e7e8",
"#8 c #d7e5e6",
"#9 c #434a4a",
"a. c #383e3e",
"a# c #0a0b0b",
"aa c #7f8b8b",
"ab c #0b0c0c",
"ac c #0e0f0f",
"ad c #494d4d",
"ae c #626767",
"af c #4d5151",
"ag c #7c8282",
"ah c #151616",
"ai c #717676",
"aj c #a7adad",
"ak c #050501",
"al c #f1f1f0",
"am c #1c1904",
"an c #1d1a05",
"ao c #25241c",
"ap c #362f08",
"aq c #f3d425",
"ar c #d9be21",
"as c #c5ad1e",
"at c #b8a01c",
"au c #917f16",
"av c #8a7915",
"aw c #847314",
"ax c #776812",
"ay c #5d510e",
"az c #4f450c",
"aA c #fcdc27",
"aB c #fada27",
"aC c #f9da26",
"aD c #f8d926",
"aE c #f7d826",
"aF c #f6d726",
"aG c #f5d626",
"aH c #f4d526",
"aI c #f2d325",
"aJ c #f1d325",
"aK c #efd125",
"aL c #edcf25",
"aM c #eacd24",
"aN c #e8cb24",
"aO c #e7ca24",
"aP c #e5c823",
"aQ c #e4c723",
"aR c #e2c623",
"aS c #e0c423",
"aT c #dec222",
"aU c #dbc022",
"aV c #dabf22",
"aW c #d8bd21",
"aX c #d5ba21",
"aY c #d1b720",
"aZ c #cdb420",
"a0 c #cab11f",
"a1 c #c7ae1f",
"a2 c #c1a91e",
"a3 c #bda51d",
"a4 c #baa21d",
"a5 c #a9941a",
"a6 c #a38f19",
"a7 c #9c8818",
"a8 c #9a8618",
"a9 c #968317",
"b. c #877615",
"b# c #7c6d13",
"ba c #6d5f11",
"bb c #695c10",
"bc c #554a0d",
"bd c #4d430c",
"be c #41390a",
"bf c #3a3309",
"bg c #272206",
"bh c #d9be22",
"bi c #c6ad1f",
"bj c #c4ab1f",
"bk c #b39c1c",
"bl c #998518",
"bm c #7f6f14",
"bn c #736412",
"bo c #655910",
"bp c #121003",
"bq c #fdde2b",
"br c #221e06",
"bs c #fdde2e",
"bt c #48400d",
"bu c #fddf31",
"bv c #fddf35",
"bw c #fde037",
"bx c #524913",
"by c #fcdf3c",
"bz c #fde03d",
"bA c #fde246",
"bB c #c1ad38",
"bC c #e6cf46",
"bD c #655c23",
"bE c #fde55a",
"bF c #8a7e3a",
"bG c #fee975",
"bH c #8a8045",
"bI c #f0df7d",
"bJ c #feec89",
"bK c #f3e79e",
"bL c #fef1a6",
"bM c #c2b87f",
"bN c #c6bd85",
"bO c #f9efb7",
"bP c #fcf5cd",
"bQ c #8b8876",
"bR c #1b1704",
"bS c #141103",
"bT c #1e1a05",
"bU c #1c1a10",
"bV c #0e0d08",
"bW c #6b643f",
"bX c #13120d",
"bY c #66624f",
"bZ c #a29f90",
"b0 c #fffbe8",
"b1 c #c3c0b1",
"b2 c #8b8a85",
"b3 c #0d0b02",
"b4 c #0e0c04",
"b5 c #fffdf4",
"b6 c #5d5d5d",
"b7 c #050505",
"b8 c #030303",
/* pixels */
".b.b.O.d.e.P.c.R#2#G#G#2#Y.b.b#H#F.y.y#F#H#3#3#Y#Y#2#2#Y.R.b.c.c.O#3#Y.R.b.P.e.e.d.O.b.c.e.e",
"#Y.R.b.c.e.c.R#2#G#G#1.x.b#Eaf..........b8.J.N.R#Y.x#Y.b.c.d.d.c.b#3.R.b.c.e.M.e.d.c.d.e.e.P",
"#Y.b.c.d.c.b.x#2#2.x.R.O.S.....................y#Y#Y#Y.b.d.e.P.c.b#3.b.O.P.e.e.d.c.d.e.e.e.P",
".b.c.d.c.b#Y.x.x#Y.c#Zad.........................J#Y.b.c.P.e.P.c.b.b.c.P.e.e.P.c.c.P.e.e.P.b",
".e.e.d.O#3#Y#Y.R.b#Z.H......ahb2b1bPbObMbHb4......ad#Z.d.e.e.P.c.c.c.P.e.e.e.d.d.P.e.M#S.c#Y",
".M#S.d.b#3#3.b.O.cad......b6alb5bLbEbzbEbGbCbx.......m.P.e.P.d.c.d.e.e.M.e.d.c.P.e.M.e.d#Y#1",
".e.e.c.b.b.b.O.c#e....b7aj.#bLbv.abq.a.absbAbva8.......Q.P.d.c.O.d.e#S.e.c.b.O.e.M.M.d#Y#G#G",
".b.b.b#3#3.b.b#F......bZb0bG.a.aaAaAaCaDaCaBbyaBaw......#F.c.O.c.d.e.e.d.O.b.b.e.e.d#3#2#G#G",
"#2#2#2#2.x#Y#0ah....bQb0bG.a.aaAaCa6b#b#bhaJaDbyaCba.....g#Z.O.e.e.e.d.O.b.c.d.c.b.x#1#2#2#Y",
"#1#G#G#1#2#2.9....bYb0bJ.a.a.aaCbm......baaSaJaBbzaFbd....ae.c.e.M.e.c.b.b.c.O#Y#2#G#G.x.O.c",
"#Y#2#2#Y#2#F....aobPbL.a.a.aaAbk........bcaZaNaD.abvaRan.....u.e.e.d.c.c.b#Y#2#G#G#1#Y.b.d.d",
".O#3.R#Y#Hah..b7bNbPbq.a.a.aaAa3........bca2aRaF.abqaAa6.....g#Z.c.c.c.c.b#2#G#G#G#Y.c.e.e.e",
".O.b#3#3.Q....bWbPbE.a.a.a.aaAaL........bga3aTaG.a.abwaHbc....ag.c.c.O.b.x#G#G#G#Y.O.e.M.M.M",
".c.O.b.wb8..bXbKbL.a.a.a.a.aaAaL........bfa4aTaG.a.a.abuaYb3..a#.w.b#Y#2#G#G#1#Y.O.P#S.M.M#T",
".e.d.d#P....bHbPbu.a.a.a.a.a.aaKam......aya3aSaG.a.a.absaFbb....ai#1#G#G#G#2.x#Y.b.c.e.M#T#T",
"#U#U.N....bUbKbJ.a.a.a.a.a.a.aaJbf......bna2aRaE.a.a.a.abvarb3.....w.c.v.M#T#U#7#7#7#8#d#.##",
"#d#d#e....bFbPbq.a.a.a.a.a.a.aaqbo......axasaPaC.a.a.a.abqaGax.....Q#.#..q#a#B#B#y#y.I.I#C#z",
"#8#8ab..bVbIbJ.a.a.a.a.a.a.a.aaGa9......bla0aMaB.a.a.a.a.absa1ak...g####.q#a#a#a#B#B#B#B.I.I",
"#8#R....bDbLbv.a.a.a.a.a.a.a.aaDat....bga5aYaLaA.a.a.a.a.absaLaz....#R.q.q#a#a#B.r.r#a#a#B#y",
"#d.s....bBbL.a.a.a.a.a.a.a.a.aaBaM....bebkaWaJaA.a.a.a.a.a.aaAa9....#w#A#z#z#z#z#A#A#z#z#z#z",
"##b8..b4bEbE.a.a.a.a.a.a.a.a.aaAaLam..boa3aTaG.a.a.a.a.a.a.abvaYak..ah.3.3#O#O#O#O#O#O#O#O#O",
".6....btbGbq.a.a.a.a.a.a.a.a.a.aaJbf..a5a1aPaD.a.a.a.a.a.a.abqaSap....#s#k#i#n#m#l.B.B#l#l.B",
"#D....b#bG.a.a.a.a.a.a.a.a.a.a.aaHb.baasaWaLaB.a.a.a.a.a.a.a.aaOaz.....E#J.W.z#f#k.V#i.U.U.U",
".Q....b.bE.a.a.a.a.a.a.a.a.a.a.aaFaOaWaXaRaIaA.a.a.a.a.a.a.a.aaNbo....#q#u.X.0.Z#g.z#j.U#n#m",
".K....axbu.a.a.a.a.a.a.a.a.a.aaAaQbdbfa7aRaJaB.a.a.a.a.a.a.a.aaRbc.....l#P.Y#o.X.0.W.z#j.B.A",
".h....ayaB.a.a.a.a.a.a.a.a.a.aaCaz......bkaPaGaA.a.a.a.a.a.a.aaWbe.....g#p.J.E.Y#o#I#J#g#k.U",
"aa....bTaJaB.a.a.a.a.a.a.a.a.aaF........b.araJaA.a.a.a.a.a.aaqasbp.....i.G.2.n#L#N#h.X#J#g#f",
"#5......auaLaA.a.a.a.a.a.a.a.aaHbb....bgbkaXaKaA.a.a.a.a.aaCaWbn.......o.D.F.H.n.C.Y#t.0#g#j",
".q.2....b3ataLaA.a.a.a.a.a.a.aaFaPbbaya6a2aTaqaA.a.a.a.aaFaVa7ak....a#.D.D.Fa.#p#L.k#t#J#K.4",
"#.#c......bSa7aUaIaA.a.a.a.a.aaBaJaTaYaZaUaLaD.a.a.aaEaPa0awbp.......l.F.G.H.j#w#P.1#v.Z#M.4",
"#.#..t........bta8aZaTaLaEaA.aaAaDaJaMaMaJaEaDaIaPaXa2avbf.........la..2#p#w#L.E.Y#u#r.W#M#m",
"#.#6#.ajac........bTbcawbla3a2bibiasbjbja2a3ata9b#azbR...........l.j#w#L.E.k.1#o#v#r.W#K#j#m",
"#8#d#6#..7.K................b3bTbTbTbrbgbgbS.................f#9.9#Naa#u.5#s.0.Z.6.z#M#n.4.3",
"#U#U#U#U#U#7#C#Dadab..................................ab.l.L.t#Q.6.6#c#4#b#b.8.8.7.7#x#A#z#C",
".e.e.M.M.e.e.e.e.P.d#X#Q.Tae.m.m.m.pa..m.m.mae.T#F#X.c.b.b.R.b#V.O.c.O.b.b#V.v.v#W#W#W.P.P.d"
};
