/* XPM */
static char * error_symbol[] = {
"46 35 553 2",
"  	c None",
". 	c #EAF1F2",
"+ 	c #E9F1F2",
"@ 	c #E8F0F1",
"# 	c #E7EFF1",
"$ 	c #E7F0F1",
"% 	c #E8F0F2",
"& 	c #EBF2F3",
"* 	c #EDF3F4",
"= 	c #EEF4F5",
"- 	c #EFF4F5",
"; 	c #E7EEEF",
"> 	c #BFC3C4",
", 	c #9DA1A1",
"' 	c #9CA0A0",
") 	c #C1C6C8",
"! 	c #E8EEEF",
"~ 	c #EAF1F3",
"{ 	c #ECF2F4",
"] 	c #E6EFF0",
"^ 	c #D4DADC",
"/ 	c #6A6E6E",
"( 	c #131313",
"_ 	c #000000",
": 	c #1C1D1D",
"< 	c #727676",
"[ 	c #DAE2E3",
"} 	c #ECF3F4",
"| 	c #E7EFF0",
"1 	c #E9F0F2",
"2 	c #EDF3F5",
"3 	c #9A9F9F",
"4 	c #070808",
"5 	c #121313",
"6 	c #9FA3A4",
"7 	c #ECF2F3",
"8 	c #E4ECED",
"9 	c #65696A",
"0 	c #737777",
"a 	c #E5EDEE",
"b 	c #5D6060",
"c 	c #171717",
"d 	c #8B8A85",
"e 	c #C3C0B1",
"f 	c #FAF4D7",
"g 	c #F9EFB7",
"h 	c #C2B87F",
"i 	c #8A8046",
"j 	c #0E0C04",
"k 	c #676A6A",
"l 	c #E5ECEE",
"m 	c #E6EEF0",
"n 	c #66696A",
"o 	c #5D5D5D",
"p 	c #F1F1F0",
"q 	c #FFFDF4",
"r 	c #FEF1A5",
"s 	c #FEE661",
"t 	c #FDE03D",
"u 	c #FEE65E",
"v 	c #FEEA78",
"w 	c #E6CF46",
"x 	c #524913",
"y 	c #6E7272",
"z 	c #888D8E",
"A 	c #050505",
"B 	c #ACACAB",
"C 	c #FFFFFC",
"D 	c #FEF2AC",
"E 	c #FDDF34",
"F 	c #FDDD27",
"G 	c #FDDE2D",
"H 	c #FDE246",
"I 	c #FDDF35",
"J 	c #9A8618",
"K 	c #8D9393",
"L 	c #EFF5F6",
"M 	c #BDC4C5",
"N 	c #A29F90",
"O 	c #FFFBE8",
"P 	c #FEE870",
"Q 	c #FCDC27",
"R 	c #FBDB27",
"S 	c #F9DA26",
"T 	c #F8D926",
"U 	c #FADA27",
"V 	c #FCDF3B",
"W 	c #837214",
"X 	c #E4EAEC",
"Y 	c #313333",
"Z 	c #8B8876",
"` 	c #FFFCE9",
" .	c #FEEA77",
"..	c #A28D19",
"+.	c #7D6D13",
"@.	c #7B6C13",
"#.	c #D9BE22",
"$.	c #F1D325",
"%.	c #FCDF3C",
"&.	c #6C5F11",
"*.	c #3A3C3C",
"=.	c #E5ECED",
"-.	c #7B7E7F",
";.	c #66624F",
">.	c #FFFBE7",
",.	c #FEEC88",
"'.	c #7F6F14",
").	c #6E6111",
"!.	c #E0C423",
"~.	c #F6D726",
"{.	c #4C430C",
"].	c #808384",
"^.	c #C1C6C7",
"/.	c #25241C",
"(.	c #F6EFC9",
"_.	c #FEF0A2",
":.	c #B39C1C",
"<.	c #54490D",
"[.	c #CEB420",
"}.	c #E8CB24",
"|.	c #E1C523",
"1.	c #1D1A06",
"2.	c #C5CCCD",
"3.	c #F0F5F6",
"4.	c #E7EDEE",
"5.	c #050504",
"6.	c #C6BD85",
"7.	c #FEF6C9",
"8.	c #FDDE2F",
"9.	c #BEA61E",
"0.	c #564B0D",
"a.	c #C1A91E",
"b.	c #E2C623",
"c.	c #FDDE2B",
"d.	c #A59019",
"e.	c #393B3C",
"f.	c #F1F5F7",
"g.	c #EFF4F6",
"h.	c #8F9394",
"i.	c #6B643F",
"j.	c #FFF8D5",
"k.	c #FDE55A",
"l.	c #ECCE24",
"m.	c #292306",
"n.	c #BCA41D",
"o.	c #DFC322",
"p.	c #F5D626",
"q.	c #FDE037",
"r.	c #F4D526",
"s.	c #52480D",
"t.	c #94999B",
"u.	c #E5EEF0",
"v.	c #DEE6E7",
"w.	c #13120D",
"x.	c #F0E5A0",
"y.	c #FEF09F",
"z.	c #EDCF25",
"A.	c #3D3509",
"B.	c #BBA31D",
"C.	c #DEC222",
"D.	c #FDDF31",
"E.	c #D0B620",
"F.	c #0E0C03",
"G.	c #272828",
"H.	c #DFE6E8",
"I.	c #E5EEEF",
"J.	c #E4EDEF",
"K.	c #828787",
"L.	c #8A8044",
"M.	c #FFF7CA",
"N.	c #EFD125",
"O.	c #1C1904",
"P.	c #5C500E",
"Q.	c #BDA51D",
"R.	c #685B10",
"S.	c #8C9090",
"T.	c #E4EEEF",
"U.	c #E4EDEE",
"V.	c #E2ECED",
"W.	c #E3ECEE",
"X.	c #D9E2E4",
"Y.	c #121213",
"Z.	c #1C1A10",
"`.	c #F5E89C",
" +	c #FEEC89",
".+	c #393209",
"++	c #736412",
"@+	c #C0A81E",
"#+	c #F7D826",
"$+	c #FDDF36",
"%+	c #D9BE21",
"&+	c #0D0B02",
"*+	c #DCE3E6",
"=+	c #E7EEF1",
"-+	c #E7EDF0",
";+	c #E5ECEF",
">+	c #E3EBEE",
",+	c #E1EAED",
"'+	c #E0E9ED",
")+	c #E0E9EC",
"!+	c #DEE7EB",
"~+	c #DCE7EA",
"{+	c #DCE7E9",
"]+	c #DEE8EC",
"^+	c #DFE8EB",
"/+	c #888E90",
"(+	c #8A7E3A",
"_+	c #FEF6C4",
":+	c #F3D425",
"<+	c #665A10",
"[+	c #756712",
"}+	c #C5AC1E",
"|+	c #E6C923",
"1+	c #766812",
"2+	c #8F9597",
"3+	c #DDE6EA",
"4+	c #DCE6EA",
"5+	c #DBE5E9",
"6+	c #DAE4E8",
"7+	c #D8E2E7",
"8+	c #D8E2E6",
"9+	c #D7E2E6",
"0+	c #D5E1E5",
"a+	c #D4E0E5",
"b+	c #252627",
"c+	c #0E0D08",
"d+	c #F0DF7D",
"e+	c #FEED8A",
"f+	c #958317",
"g+	c #998517",
"h+	c #CBB21F",
"i+	c #E9CC24",
"j+	c #C7AE1E",
"k+	c #040401",
"l+	c #353839",
"m+	c #DCE5E9",
"n+	c #DCE4E8",
"o+	c #DBE4E8",
"p+	c #D9E3E7",
"q+	c #D8E3E7",
"r+	c #D6E1E5",
"s+	c #DFE8EC",
"t+	c #ACB2B5",
"u+	c #655C23",
"v+	c #FEF2AD",
"w+	c #B7A01C",
"x+	c #282306",
"y+	c #AA941A",
"z+	c #D1B720",
"A+	c #4F450C",
"B+	c #ADB4B7",
"C+	c #DAE3E7",
"D+	c #D7E2E7",
"E+	c #DEE8EA",
"F+	c #616566",
"G+	c #C1AD38",
"H+	c #40380A",
"I+	c #B29B1B",
"J+	c #D8BD21",
"K+	c #978417",
"L+	c #6C7274",
"M+	c #D3DEE3",
"N+	c #D4DFE5",
"O+	c #D4DFE4",
"P+	c #D3DEE4",
"Q+	c #D3DFE4",
"R+	c #DCE6E9",
"S+	c #1A1B1B",
"T+	c #F8E155",
"U+	c #1C1804",
"V+	c #645810",
"W+	c #D2B821",
"X+	c #2C2F31",
"Y+	c #C6D3DA",
"Z+	c #C7D5DB",
"`+	c #C7D5DC",
" @	c #C6D5DB",
".@	c #C7D6DC",
"+@	c #C6D5DC",
"@@	c #C7D5DD",
"#@	c #C6D4DC",
"$@	c #BCC6C8",
"%@	c #49410E",
"&@	c #FEE975",
"*@	c #A8931A",
"=@	c #C7AE1F",
"-@	c #E5C823",
";@	c #FDDD2A",
">@	c #362F08",
",@	c #A3B1B7",
"'@	c #B9C9D0",
")@	c #BAC9D1",
"!@	c #BBCCD3",
"~@	c #BCCBD4",
"{@	c #BDCED6",
"]@	c #BCCCD4",
"^@	c #BDCDD5",
"/@	c #BCCDD5",
"(@	c #BCCCD5",
"_@	c #9FA6A9",
":@	c #7C6C13",
"<@	c #FEE973",
"[@	c #867615",
"}@	c #6C5E11",
"|@	c #D7BC21",
"1@	c #E7CA24",
"2@	c #798489",
"3@	c #A9B9C0",
"4@	c #AEBEC5",
"5@	c #B1C2CA",
"6@	c #B5C6CE",
"7@	c #B6C7D0",
"8@	c #B7C8D2",
"9@	c #B9CAD3",
"0@	c #B8C9D2",
"a@	c #898F91",
"b@	c #877615",
"c@	c #FDE452",
"d@	c #D5BA21",
"e@	c #F2D325",
"f@	c #655810",
"g@	c #585F62",
"h@	c #94A1A7",
"i@	c #9EACB3",
"j@	c #A6B5BC",
"k@	c #ACBCC3",
"l@	c #B0C1C8",
"m@	c #B3C3CC",
"n@	c #B7C8D0",
"o@	c #B9CAD2",
"p@	c #BACAD3",
"q@	c #BBCCD5",
"r@	c #73787A",
"s@	c #796913",
"t@	c #E4C723",
"u@	c #4D430C",
"v@	c #3A3209",
"w@	c #9D8918",
"x@	c #F0D225",
"y@	c #E3C623",
"z@	c #584D0D",
"A@	c #3F4447",
"B@	c #788286",
"C@	c #879298",
"D@	c #939FA4",
"E@	c #9FACB2",
"F@	c #A7B6BD",
"G@	c #AFBEC5",
"H@	c #B5C4CC",
"I@	c #BACAD1",
"J@	c #BECED5",
"K@	c #BECED6",
"L@	c #7A8082",
"M@	c #5C510E",
"N@	c #B39D1C",
"O@	c #41390A",
"P@	c #323738",
"Q@	c #5C6468",
"R@	c #6A7378",
"S@	c #778287",
"T@	c #869299",
"U@	c #93A1A7",
"V@	c #9FADB4",
"W@	c #AAB9C1",
"X@	c #B2C2CA",
"Y@	c #B6C7CF",
"Z@	c #B8CAD2",
"`@	c #949D9F",
" #	c #1E1A05",
".#	c #887715",
"+#	c #C5AD1E",
"@#	c #121003",
"##	c #34393C",
"$#	c #4C5456",
"%#	c #545B5F",
"&#	c #5E676C",
"*#	c #6C777B",
"=#	c #7D888D",
"-#	c #8E9CA2",
";#	c #9DADB4",
">#	c #A8B8C1",
",#	c #AEC0C8",
"'#	c #B2C5CE",
")#	c #C5CFD2",
"!#	c #040405",
"~#	c #917F16",
"{#	c #2A2506",
"]#	c #B49D1C",
"^#	c #D6BB21",
"/#	c #726411",
"(#	c #030303",
"_#	c #43494C",
":#	c #484E51",
"<#	c #4C5255",
"[#	c #535A5E",
"}#	c #5F676B",
"|#	c #707A7E",
"1#	c #859096",
"2#	c #99A6AC",
"3#	c #A7B7BE",
"4#	c #B1C1C8",
"5#	c #B8C8D0",
"6#	c #DBE6E9",
"7#	c #5B5F61",
"8#	c #0C0B02",
"9#	c #B8A01C",
"0#	c #6B5D11",
"a#	c #5F530E",
"b#	c #A38F19",
"c#	c #DABF22",
"d#	c #9C8818",
"e#	c #070601",
"f#	c #1F2223",
"g#	c #484E50",
"h#	c #4A5052",
"i#	c #4B5154",
"j#	c #51585B",
"k#	c #5D6567",
"l#	c #6F797D",
"m#	c #848F93",
"n#	c #9AA7AC",
"o#	c #ACB9C0",
"p#	c #B9C7CC",
"q#	c #C0CFD6",
"r#	c #C1CBCD",
"s#	c #111212",
"t#	c #141103",
"u#	c #9B8818",
"v#	c #DBC022",
"w#	c #C9B01F",
"x#	c #857314",
"y#	c #110F03",
"z#	c #43484A",
"A#	c #4C5154",
"B#	c #4E5456",
"C#	c #545A5D",
"D#	c #5B6366",
"E#	c #666E71",
"F#	c #767F83",
"G#	c #8C969B",
"H#	c #A0ABB1",
"I#	c #AFBDC2",
"J#	c #BBC9D0",
"K#	c #C2D0D7",
"L#	c #A1A9AC",
"M#	c #040505",
"N#	c #473E0B",
"O#	c #CCB320",
"P#	c #EBCD24",
"Q#	c #EACD24",
"R#	c #D4B921",
"S#	c #8A7915",
"T#	c #3B3409",
"U#	c #020203",
"V#	c #3C4143",
"W#	c #4F5558",
"X#	c #555C60",
"Y#	c #5E6569",
"Z#	c #656E71",
"`#	c #6E777B",
" $	c #7B8489",
".$	c #879297",
"+$	c #97A3A9",
"@$	c #A6B3BA",
"#$	c #B1C0C7",
"$$	c #B9C8CF",
"%$	c #BDCCD5",
"&$	c #DDE7EA",
"*$	c #DDE7E9",
"=$	c #B3BCBE",
"-$	c #282A2B",
";$	c #201C05",
">$	c #857415",
",$	c #988518",
"'$	c #C6AD1F",
")$	c #C5AD1F",
"!$	c #C4AB1F",
"~$	c #C2AA1E",
"{$	c #B9A11C",
"]$	c #958217",
"^$	c #4E440C",
"/$	c #1B1704",
"($	c #080909",
"_$	c #42474A",
":$	c #5A6164",
"<$	c #646C70",
"[$	c #7A8488",
"}$	c #848E92",
"|$	c #8D989D",
"1$	c #95A1A7",
"2$	c #9DAAB0",
"3$	c #A7B3BA",
"4$	c #AFBDC5",
"5$	c #B5C3CB",
"6$	c #BCCCD3",
"7$	c #DEE9EB",
"8$	c #D2DCDE",
"9$	c #72787A",
"0$	c #141203",
"a$	c #252006",
"b$	c #303334",
"c$	c #5D6365",
"d$	c #737A7D",
"e$	c #838C91",
"f$	c #929BA0",
"g$	c #9AA4A9",
"h$	c #A7B2B8",
"i$	c #AAB6BC",
"j$	c #AFBCC1",
"k$	c #B3C1C6",
"l$	c #B7C4CB",
"m$	c #BECCD4",
"n$	c #C1D0D6",
"o$	c #C2D0D9",
"p$	c #E3ECED",
"q$	c #E2EBED",
"r$	c #DCE5E7",
"s$	c #9FA5A7",
"t$	c #676B6C",
"u$	c #252727",
"v$	c #070707",
"w$	c #454849",
"x$	c #808588",
"y$	c #A1A8AB",
"z$	c #B7BFC2",
"A$	c #BDC6C9",
"B$	c #BFC8CB",
"C$	c #C2CCCF",
"D$	c #C6CFD3",
"E$	c #CAD2D6",
"F$	c #CBD3D8",
"G$	c #CDD6D9",
"H$	c #CDD7DB",
"I$	c #CFD9DD",
"J$	c #D0DBE0",
"K$	c #D2DDE1",
"L$	c #D3DEE2",
"M$	c #D5E0E5",
"N$	c #D6E0E5",
"O$	c #D0D8D8",
"P$	c #BBC1C2",
"Q$	c #989E9F",
"R$	c #7E8283",
"S$	c #6E7172",
"T$	c #6D7171",
"U$	c #6C7071",
"V$	c #525656",
"W$	c #575A5B",
"X$	c #6C7070",
"Y$	c #6D7071",
"Z$	c #999E9F",
"`$	c #CFD7D8",
" %	c #E9F0F1",
". . + @ # $ % & * = - = & . . ; > , ' ) ! ~ ~ & { * * { & . % % + ~ & & . $ ] # @ + + @ # # ",
"& & . @ # @ & * - - = { . ^ / ( _ _ _ _ : < [ & { } & . % @ @ @ + ~ & ~ % | ] # @ % @ # ] $ ",
"& . 1 @ % . { 2 = } & + 3 4 _ _ _ _ _ _ _ _ 5 6 7 { & + @ # @ % . ~ . + @ | | @ % @ # ] ] @ ",
". % @ % . & } } & . 8 9 _ _ _ _ _ _ _ _ _ _ _ _ 0 & . 1 @ # @ 1 + + 1 $ # # @ % % @ | ] $ @ ",
"# # @ + ~ & & & . a b _ _ _ c d e f g h i j _ _ _ k l @ # # @ % % @ $ # | # @ @ @ ] ] ] % 7 ",
"m ] @ . ~ ~ . + % n _ _ _ o p q r s t u v w x _ _ _ y $ # $ @ % @ # ] | # @ @ @ | ] ] @ & = ",
"| # @ + . . + % z _ _ A B C D E F F F F G H I J _ _ _ K @ | % + @ ] ] # @ . + # m m @ & = L ",
"+ + . ~ ~ ~ . M _ _ _ N O P F F Q R S T S U V U W _ _ A M 1 + 1 @ ] | @ + . + # # @ ~ = L = ",
"} * * * } 7 X Y _ _ Z `  .F F Q S ..+.@.#.$.T %.S &._ _ *.=.+ # ] | @ + . % @ % . } = = } 7 ",
"= = = = = * -._ _ ;.>.,.F F F S '._ _ _ ).!.$.U t ~.{._ _ ].% ] ] # 1 . . % + & = L - { + % ",
"7 } * * * ^.A _ /.(._.F F F Q :._ _ _ _ <.[.}.T F I |.1._ A 2.# # @ % % + & * L 3.= 7 . @ @ ",
"+ ~ & & 4.Y _ 5.6.7.8.F F F R 9._ _ _ _ 0.a.b.~.F c.Q d._ _ e.8 % % % @ ~ = 3.f.g.7 @ # # | ",
"+ . ~ ~ h._ _ i.j.k.F F F F R l._ _ _ _ m.n.o.p.F F q.r.s._ _ t.1 % + . } - 3.- { + ] ] ] u.",
"% + + v.: _ w.x.y.F F F F F Q z._ _ _ _ A.B.C.p.F F F D.E.F._ G.H.~ & * = - = 7 + @ ] m I.J.",
"# @ @ K._ _ L.M.E F F F F F F N.O._ _ _ P.Q.!.p.F F F G ~.R._ _ S.= = - - = } & . 1 # m T.U.",
"V.W.X.Y._ Z.`. +F F F F F F F $..+_ _ _ ++@+b.#+F F F F $+%+&+_ 5 *+=+-+;+>+,+,+,+'+)+!+~+{+",
"]+^+/+_ _ (+_+8.F F F F F F F :+<+_ _ _ [+}+|+S F F F F c.p.1+_ _ 2+3+4+5+6+7+8+9+9+9+9+0+a+",
"^+)+b+_ c+d+e+F F F F F F F F p.f+_ _ _ g+h+i+U F F F F F 8.j+k+_ l+m+n+o+6+p+q+8+7+8+8+9+r+",
"s+t+_ _ u+v+E F F F F F F F F T w+_ _ x+y+z+z.R F F F F F 8.z.A+_ _ B+o+6+C+p+7+D+D+q+q+7+9+",
"E+F+_ _ G+r F F F F F F F F F U i+_ _ H+I+J+$.Q F F F F F F R K+_ _ L+M+a+a+N+O+P+P+Q+O+O+Q+",
"R+S+_ j T+u F F F F F F F F F Q z.U+_ V+n.C.p.F F F F F F F I W+k+_ X+Y+Z+`+ @.@ @+@`+`+@@#@",
"$@_ _ %@&@c.F F F F F F F F F F $..+_ *@=@-@T F F F F F F F ;@!.>@_ _ ,@'@)@!@~@{@]@]@^@/@(@",
"_@_ _ :@<@F F F F F F F F F F F r.[@}@}+|@z.U F F F F F F F F 1@A+_ _ 2@3@4@5@6@7@7@8@9@0@9@",
"a@_ _ b@c@F F F F F F F F F F F ~.1@J+d@b.e@Q F F F F F F F F }.f@_ _ g@h@i@j@k@l@m@n@o@p@q@",
"r@_ _ s@I F F F F F F F F F F Q t@u@v@w@|.x@U F F F F F F F F y@z@_ _ A@B@C@D@E@F@G@H@I@J@K@",
"L@_ _ M@U F F F F F F F F F F S A+_ _ _ N@|+p.Q F F F F F F F J+O@_ _ P@Q@R@S@T@U@V@W@X@Y@Z@",
"`@_ _  #x@U F F F F F F F F F ~._ _ _ _ .#%+x@Q F F F F F F :++#@#_ _ ##$#%#&#*#=#-#;#>#,#'#",
")#!#_ _ ~#z.Q F F F F F F F F r.R._ _ {#]#^#N.R F F F F F S |@/#_ _ (#_#:#<#[#}#|#1#2#3#4#5#",
"6#7#_ _ 8#9#l.R F F F F F F F ~.-@0#a#b#a.C.:+Q F F F F ~.c#d#e#_ _ f#g#h#i#j#k#l#m#n#o#p#q#",
"~+r#s#_ _ t#u#v#e@Q F F F F F U x@C.E.[.v#l.T F F F #+-@w#x#y#_ _ A z#A#B#C#D#E#F#G#H#I#J#K#",
"~+{+L#M#_ _ _ N#J O#C.l.#+Q F Q T $.P#Q#x@#+T e@-@R#a.S#T#_ _ _ U#V#W#X#Y#Z#`# $.$+$@$#$$$%$",
"&$&$*$=$-$_ _ _ _ ;$0.>$,$Q.a.'$'$)$!$!$~$Q.{$]$+.^$/$_ _ _ _ ($_$:$<$`#[$}$|$1$2$3$4$5$)@6$",
"7$]+!+&$8$9$5 _ _ _ _ _ _ _ 0$a$a$a$a$a$a$t#_ _ _ _ _ _ _ A b$c$d$e$f$g$H#h$i$j$k$l$J#m$n$o$",
"W.W.p$V.V.q$r$s$t$u$_ _ _ _ _ _ _ _ _ _ _ _ _ _ _ _ v$u$w$x$y$z$A$B$C$D$E$F$G$H$I$J$K$L$M$N$",
"# ] m m ] # # # $ @ O$P$Q$R$S$T$U$V$W$X$U$Y$R$Z$M `$ %. . ~ . + + % + . . + # | | | # @ @ @ "};
