/* XPM */
static char * evil_xpm[] = {
"48 48 717 2",
"  	c None",
". 	c #000000",
"+ 	c #151614",
"@ 	c #545950",
"# 	c #7A8279",
"$ 	c #676B65",
"% 	c #5C5E5B",
"& 	c #484B47",
"* 	c #545953",
"= 	c #62695F",
"- 	c #5B5F57",
"; 	c #535750",
"> 	c #5A5E55",
", 	c #808B80",
"' 	c #9FA79E",
") 	c #B2B8B1",
"! 	c #A4AAA3",
"~ 	c #878D83",
"{ 	c #6D7469",
"] 	c #5D6259",
"^ 	c #545850",
"/ 	c #585C53",
"( 	c #818B81",
"_ 	c #9DA59C",
": 	c #B0B6AE",
"< 	c #A7ADA6",
"[ 	c #8A9086",
"} 	c #6A7065",
"| 	c #5A5F56",
"1 	c #54574F",
"2 	c #575A51",
"3 	c #61655A",
"4 	c #5E6055",
"5 	c #828B81",
"6 	c #9CA49B",
"7 	c #B1B5AF",
"8 	c #A9AFA8",
"9 	c #888F84",
"0 	c #686E64",
"a 	c #595E55",
"b 	c #575B52",
"c 	c #5B5F54",
"d 	c #4E5149",
"e 	c #54574E",
"f 	c #5E6156",
"g 	c #87897B",
"h 	c #838679",
"i 	c #7F897E",
"j 	c #989F96",
"k 	c #ABB1A9",
"l 	c #A9AEA7",
"m 	c #899085",
"n 	c #676D63",
"o 	c #5B5F56",
"p 	c #595D53",
"q 	c #575A52",
"r 	c #494B42",
"s 	c #41433B",
"t 	c #464842",
"u 	c #54554B",
"v 	c #606157",
"w 	c #64675C",
"x 	c #858879",
"y 	c #878A7C",
"z 	c #888B7D",
"A 	c #84887E",
"B 	c #8D938A",
"C 	c #9BA097",
"D 	c #9AA096",
"E 	c #83877D",
"F 	c #6B6F65",
"G 	c #616258",
"H 	c #585A52",
"I 	c #54554D",
"J 	c #4A4B43",
"K 	c #474942",
"L 	c #4B4D46",
"M 	c #55564D",
"N 	c #5B5D52",
"O 	c #636559",
"P 	c #67685C",
"Q 	c #898B7E",
"R 	c #8B8E81",
"S 	c #8D9084",
"T 	c #919487",
"U 	c #919489",
"V 	c #929489",
"W 	c #8B8D83",
"X 	c #808277",
"Y 	c #787970",
"Z 	c #6C6E65",
"` 	c #65685F",
" .	c #616459",
"..	c #5E6056",
"+.	c #5B5E56",
"@.	c #5A5C53",
"#.	c #5F6156",
"$.	c #616357",
"%.	c #626559",
"&.	c #606256",
"*.	c #626558",
"=.	c #888B7B",
"-.	c #8C8F81",
";.	c #909387",
">.	c #95998B",
",.	c #999B8F",
"'.	c #9C9F93",
").	c #9D9F95",
"!.	c #9B9D94",
"~.	c #919289",
"{.	c #8E8F88",
"].	c #83867D",
"^.	c #808279",
"/.	c #787971",
"(.	c #75776D",
"_.	c #717469",
":.	c #6C6F64",
"<.	c #6A6C5F",
"[.	c #65685B",
"}.	c #636558",
"|.	c #5E6054",
"1.	c #5C5E53",
"2.	c #595C50",
"3.	c #8A8E7F",
"4.	c #8D8F81",
"5.	c #8D9083",
"6.	c #94968A",
"7.	c #979B8E",
"8.	c #9D9F94",
"9.	c #A1A399",
"0.	c #A5A79D",
"a.	c #A9AAA0",
"b.	c #A9AAA1",
"c.	c #9FA298",
"d.	c #9A9C92",
"e.	c #92948B",
"f.	c #8C8E82",
"g.	c #818379",
"h.	c #83857A",
"i.	c #71736A",
"j.	c #6C6E61",
"k.	c #66685C",
"l.	c #616256",
"m.	c #5B5E53",
"n.	c #55584F",
"o.	c #56584D",
"p.	c #54564C",
"q.	c #8B8E7F",
"r.	c #919485",
"s.	c #96998A",
"t.	c #97998C",
"u.	c #989B90",
"v.	c #A0A396",
"w.	c #A4A79B",
"x.	c #ABACA2",
"y.	c #AEB0A6",
"z.	c #AFB1A8",
"A.	c #ACAEA4",
"B.	c #A7A9A1",
"C.	c #A0A298",
"D.	c #999B91",
"E.	c #9B9D93",
"F.	c #A5A69D",
"G.	c #9A9C94",
"H.	c #7A7B72",
"I.	c #5E5F55",
"J.	c #5D6055",
"K.	c #55584C",
"L.	c #51534A",
"M.	c #4F5148",
"N.	c #909183",
"O.	c #A3A599",
"P.	c #B1B2AA",
"Q.	c #ADB0A6",
"R.	c #A8AAA0",
"S.	c #B0B1A8",
"T.	c #B2B4AB",
"U.	c #B5B6AD",
"V.	c #B0B2A8",
"W.	c #ABACA4",
"X.	c #A7AAA0",
"Y.	c #AFB1A9",
"Z.	c #C1C3BC",
"`.	c #C5C7C0",
" +	c #ACADA7",
".+	c #7A7C74",
"++	c #56574D",
"@+	c #575A4F",
"#+	c #585A50",
"$+	c #4E5048",
"%+	c #4C4E45",
"&+	c #4A4C44",
"*+	c #8D9081",
"=+	c #8C9080",
"-+	c #96998B",
";+	c #AEAFA6",
">+	c #BFC0B9",
",+	c #C6C8C2",
"'+	c #C7C8C0",
")+	c #BDBEB7",
"!+	c #B7B9AF",
"~+	c #B6B7AE",
"{+	c #B7BAB1",
"]+	c #B4B6AD",
"^+	c #BBBCB4",
"/+	c #C4C4BE",
"(+	c #CCCDC8",
"_+	c #C8CAC4",
":+	c #B7B8B1",
"<+	c #898983",
"[+	c #5E5E57",
"}+	c #505148",
"|+	c #54574C",
"1+	c #56594F",
"2+	c #52554B",
"3+	c #505247",
"4+	c #4C4F44",
"5+	c #494A41",
"6+	c #464840",
"7+	c #85867B",
"8+	c #7F8276",
"9+	c #87897E",
"0+	c #9EA199",
"a+	c #BABBB6",
"b+	c #CACBC6",
"c+	c #CACBC5",
"d+	c #C1C1BD",
"e+	c #C0C1BA",
"f+	c #BEC0B6",
"g+	c #BEBFB8",
"h+	c #CACBC4",
"i+	c #D1D3CE",
"j+	c #D0D1CD",
"k+	c #C7C8C3",
"l+	c #A6A7A1",
"m+	c #7C7D77",
"n+	c #43443F",
"o+	c #57584D",
"p+	c #53564B",
"q+	c #53534B",
"r+	c #4C4F46",
"s+	c #4A4B41",
"t+	c #45473E",
"u+	c #44453D",
"v+	c #43453C",
"w+	c #8E9282",
"x+	c #8B8E80",
"y+	c #8A8E80",
"z+	c #7A7C71",
"A+	c #8A8B83",
"B+	c #8A8C82",
"C+	c #8F9188",
"D+	c #9C9C96",
"E+	c #ACADAA",
"F+	c #B8B9B2",
"G+	c #B9BBB3",
"H+	c #B6B8B1",
"I+	c #B6B6B1",
"J+	c #B4B4AF",
"K+	c #A8A8A2",
"L+	c #93948D",
"M+	c #71736C",
"N+	c #81817B",
"O+	c #A2A39D",
"P+	c #51524A",
"Q+	c #484A40",
"R+	c #53564D",
"S+	c #56584E",
"T+	c #4D4E44",
"U+	c #46483F",
"V+	c #42433B",
"W+	c #3F413A",
"X+	c #41423A",
"Y+	c #444640",
"Z+	c #8E9182",
"`+	c #8A8D7F",
" @	c #7F8277",
".@	c #C4C5C0",
"+@	c #D9DAD7",
"@@	c #C4C5BE",
"#@	c #9D9E99",
"$@	c #95968F",
"%@	c #898B82",
"&@	c #8C8E89",
"*@	c #8F908A",
"=@	c #868781",
"-@	c #747771",
";@	c #6C6E67",
">@	c #75776E",
",@	c #858880",
"'@	c #CCCCC9",
")@	c #E9E9E8",
"!@	c #DADAD8",
"~@	c #7C7F77",
"{@	c #515348",
"]@	c #55574D",
"^@	c #505248",
"/@	c #494C43",
"(@	c #44453E",
"_@	c #41433A",
":@	c #3E3E37",
"<@	c #3C3D36",
"[@	c #8C9081",
"}@	c #8D8E81",
"|@	c #7C7E75",
"1@	c #CFCFCC",
"2@	c #B6B6B5",
"3@	c #3E3E3E",
"4@	c #626261",
"5@	c #D3D4D1",
"6@	c #83847E",
"7@	c #85877F",
"8@	c #9EA096",
"9@	c #898B84",
"0@	c #6F7168",
"a@	c #7E8077",
"b@	c #C8C9C5",
"c@	c #E0E0DE",
"d@	c #505050",
"e@	c #343433",
"f@	c #AEAEAC",
"g@	c #ADAEAA",
"h@	c #3E4038",
"i@	c #4D5047",
"j@	c #47483F",
"k@	c #40433B",
"l@	c #3D3E38",
"m@	c #3B3C35",
"n@	c #393B34",
"o@	c #888A7C",
"p@	c #898D7F",
"q@	c #888A7D",
"r@	c #71726A",
"s@	c #B9BAB6",
"t@	c #646463",
"u@	c #0E0E0E",
"v@	c #2B2B2B",
"w@	c #C7C8C4",
"x@	c #73736F",
"y@	c #A9AAA2",
"z@	c #93958A",
"A@	c #6C6E64",
"B@	c #86877F",
"C@	c #DFE0DD",
"D@	c #A7A7A5",
"E@	c #141414",
"F@	c #0B0B0B",
"G@	c #6A6B69",
"H@	c #9A9A97",
"I@	c #3C3D35",
"J@	c #4B4C42",
"K@	c #4E5147",
"L@	c #494B41",
"M@	c #45463E",
"N@	c #40423B",
"O@	c #3D3F38",
"P@	c #393A34",
"Q@	c #383A33",
"R@	c #3B3D35",
"S@	c #85887A",
"T@	c #87897C",
"U@	c #86897C",
"V@	c #858680",
"W@	c #B8B8B5",
"X@	c #7F7F7D",
"Y@	c #AAAAA7",
"Z@	c #7E7F79",
"`@	c #70716B",
" #	c #ADAEA7",
".#	c #AFB2A9",
"+#	c #6F7267",
"@#	c #606158",
"##	c #ABADA6",
"$#	c #D7D8D6",
"%#	c #686867",
"&#	c #4F504F",
"*#	c #8F8F8A",
"=#	c #4B4E47",
"-#	c #3A3B34",
";#	c #4F5147",
">#	c #464940",
",#	c #45463F",
"'#	c #3F403A",
")#	c #3B3E37",
"!#	c #383933",
"~#	c #393B33",
"{#	c #828576",
"]#	c #828578",
"^#	c #828579",
"/#	c #7B7E75",
"(#	c #666860",
"_#	c #62625C",
":#	c #686A65",
"<#	c #65655F",
"[#	c #6E6F6A",
"}#	c #B0B2AB",
"|#	c #C8C9C4",
"1#	c #B6B8B0",
"2#	c #8E9086",
"3#	c #717369",
"4#	c #606359",
"5#	c #53534C",
"6#	c #7D7E78",
"7#	c #989A96",
"8#	c #6B6C66",
"9#	c #353630",
"0#	c #3A3C33",
"a#	c #4B4E44",
"b#	c #4E4F45",
"c#	c #484B40",
"d#	c #44463E",
"e#	c #40423A",
"f#	c #383A35",
"g#	c #363831",
"h#	c #373932",
"i#	c #7C7F71",
"j#	c #7D7F73",
"k#	c #797B71",
"l#	c #7B7D74",
"m#	c #7C7D75",
"n#	c #787A6F",
"o#	c #74756E",
"p#	c #82837B",
"q#	c #A8AAA2",
"r#	c #CBCCC7",
"s#	c #C4C6C0",
"t#	c #A4A69E",
"u#	c #808278",
"v#	c #76796E",
"w#	c #707167",
"x#	c #46473F",
"y#	c #3C3E36",
"z#	c #3E3F37",
"A#	c #45463D",
"B#	c #4E5046",
"C#	c #4F5047",
"D#	c #474941",
"E#	c #44453C",
"F#	c #44453F",
"G#	c #40423C",
"H#	c #3D3F3B",
"I#	c #3A3B37",
"J#	c #363731",
"K#	c #393A32",
"L#	c #7A7D6F",
"M#	c #787A6D",
"N#	c #737669",
"O#	c #74766B",
"P#	c #73766B",
"Q#	c #777870",
"R#	c #7A7C70",
"S#	c #BFC0BB",
"T#	c #CCCDC9",
"U#	c #BBBCB7",
"V#	c #898A82",
"W#	c #76796F",
"X#	c #81837A",
"Y#	c #585A4F",
"Z#	c #585B50",
"`#	c #52544B",
" $	c #4D4F47",
".$	c #474940",
"+$	c #42433D",
"@$	c #41423B",
"#$	c #3E3E3A",
"$$	c #383934",
"%$	c #6D7164",
"&$	c #6D7064",
"*$	c #6A6C64",
"=$	c #696B63",
"-$	c #77786F",
";$	c #979892",
">$	c #C3C4C0",
",$	c #C2C3BF",
"'$	c #9B9D96",
")$	c #757871",
"!$	c #8E8F87",
"~$	c #94968D",
"{$	c #73766E",
"]$	c #4E5047",
"^$	c #4F5247",
"/$	c #4B4D45",
"($	c #43443D",
"_$	c #3F4139",
":$	c #3E3F3A",
"<$	c #3F403B",
"[$	c #3D3E39",
"}$	c #3A3C36",
"|$	c #353730",
"1$	c #363630",
"2$	c #3B3C34",
"3$	c #6B6E62",
"4$	c #67695F",
"5$	c #64665A",
"6$	c #62635A",
"7$	c #73766C",
"8$	c #A4A59F",
"9$	c #B7B8B4",
"0$	c #AAABA8",
"a$	c #7D7E76",
"b$	c #76776F",
"c$	c #8D8E88",
"d$	c #82847C",
"e$	c #5A5B53",
"f$	c #3B3C36",
"g$	c #42443A",
"h$	c #484A42",
"i$	c #43463C",
"j$	c #40413A",
"k$	c #3E3E38",
"l$	c #3B3C37",
"m$	c #393A35",
"n$	c #31322D",
"o$	c #34352E",
"p$	c #65675B",
"q$	c #62645A",
"r$	c #5A5D54",
"s$	c #61625A",
"t$	c #767870",
"u$	c #989994",
"v$	c #A0A19B",
"w$	c #82847E",
"x$	c #65665F",
"y$	c #5E605A",
"z$	c #64665F",
"A$	c #43443E",
"B$	c #40413B",
"C$	c #4B4E48",
"D$	c #585852",
"E$	c #505249",
"F$	c #4A4A44",
"G$	c #373933",
"H$	c #353532",
"I$	c #33342E",
"J$	c #30312B",
"K$	c #343530",
"L$	c #595A53",
"M$	c #616358",
"N$	c #6A6B63",
"O$	c #6F7169",
"P$	c #7D7F7A",
"Q$	c #696A64",
"R$	c #53554E",
"S$	c #31312D",
"T$	c #2F302B",
"U$	c #494943",
"V$	c #55574F",
"W$	c #51534D",
"X$	c #4F514C",
"Y$	c #4B4C48",
"Z$	c #41413D",
"`$	c #3A3B36",
" %	c #383834",
".%	c #34342F",
"+%	c #2F302E",
"@%	c #2E302C",
"#%	c #2E302A",
"$%	c #2E2E2A",
"%%	c #595B50",
"&%	c #5A5C52",
"*%	c #6C6C64",
"=%	c #6E6F68",
"-%	c #62625B",
";%	c #55564E",
">%	c #50524D",
",%	c #2D2F27",
"'%	c #23251E",
")%	c #22231F",
"!%	c #20211D",
"~%	c #20211B",
"{%	c #262722",
"]%	c #31322C",
"^%	c #393B36",
"/%	c #3F3F39",
"(%	c #3D403A",
"_%	c #373734",
":%	c #333430",
"<%	c #32332E",
"[%	c #2D2E2C",
"}%	c #2C2D29",
"|%	c #2D2F2A",
"1%	c #31312B",
"2%	c #595953",
"3%	c #595A52",
"4%	c #45453F",
"5%	c #343630",
"6%	c #2D2F28",
"7%	c #22231D",
"8%	c #1E1E1A",
"9%	c #191915",
"0%	c #191A18",
"a%	c #3D2623",
"b%	c #492121",
"c%	c #462020",
"d%	c #3A201F",
"e%	c #1A1A18",
"f%	c #1C1D18",
"g%	c #1F1F1C",
"h%	c #232320",
"i%	c #252521",
"j%	c #282927",
"k%	c #2F2F2A",
"l%	c #2E2F2B",
"m%	c #2E2F29",
"n%	c #2E2F2A",
"o%	c #2D2E28",
"p%	c #4E4F44",
"q%	c #484A41",
"r%	c #40433A",
"s%	c #30322C",
"t%	c #462F2C",
"u%	c #702A2B",
"v%	c #851E23",
"w%	c #7E2125",
"x%	c #9C4D4F",
"y%	c #8A2B2D",
"z%	c #841F21",
"A%	c #6E1D1F",
"B%	c #1B1C18",
"C%	c #1A1A17",
"D%	c #171715",
"E%	c #141412",
"F%	c #131312",
"G%	c #21221F",
"H%	c #282A25",
"I%	c #2E3028",
"J%	c #474840",
"K%	c #44473F",
"L%	c #42443C",
"M%	c #5E3D3B",
"N%	c #953C40",
"O%	c #974448",
"P%	c #6B1C20",
"Q%	c #8E5B5C",
"R%	c #A26364",
"S%	c #831E21",
"T%	c #78191B",
"U%	c #5B2726",
"V%	c #2B2D28",
"W%	c #2A2B27",
"X%	c #282825",
"Y%	c #242422",
"Z%	c #21211D",
"`%	c #252620",
" &	c #2A2B26",
".&	c #373831",
"+&	c #7F3032",
"@&	c #A35E61",
"#&	c #7B262A",
"$&	c #71383B",
"%&	c #AD8081",
"&&	c #984F50",
"*&	c #801F21",
"=&	c #651618",
"-&	c #533633",
";&	c #373834",
">&	c #383935",
",&	c #363732",
"'&	c #33332F",
")&	c #2F302A",
"!&	c #32332D",
"~&	c #494C44",
"{&	c #923B3F",
"]&	c #A05D5E",
"^&	c #672023",
"/&	c #8F5E5F",
"(&	c #AA797A",
"_&	c #9C595B",
":&	c #781B1D",
"<&	c #5D1416",
"[&	c #553836",
"}&	c #3A3B35",
"|&	c #373733",
"1&	c #363632",
"2&	c #363832",
"3&	c #373832",
"4&	c #353731",
"5&	c #903B3D",
"6&	c #9A5558",
"7&	c #6A2729",
"8&	c #9B6062",
"9&	c #A57273",
"0&	c #873637",
"a&	c #6E1919",
"b&	c #5F1414",
"c&	c #463F3A",
"d&	c #3C3E35",
"e&	c #3B3D34",
"f&	c #3C3D37",
"g&	c #7F2E2F",
"h&	c #9E5F60",
"i&	c #7A2B2F",
"j&	c #9F686A",
"k&	c #995658",
"l&	c #822D2D",
"m&	c #6C1919",
"n&	c #581111",
"o&	c #3E3F38",
"p&	c #3D3F3A",
"q&	c #404139",
"r&	c #9C6366",
"s&	c #995858",
"t&	c #9D6262",
"u&	c #8B4242",
"v&	c #7A2323",
"w&	c #671616",
"x&	c #4D1011",
"y&	c #762729",
"z&	c #7A3536",
"A&	c #7C2929",
"B&	c #792020",
"C&	c #4D1010",
"D&	c #511012",
"E&	c #711B1B",
"F&	c #6C1717",
"G&	c #561111",
"H&	c #591111",
"                                                                                                ",
"                                                                                                ",
"                                  .                                                             ",
"                                . . . . . .                                                     ",
"                              .             .                                                   ",
"                                              .                                                 ",
"                                                                                                ",
"                                                .                                               ",
"                              .                 .                                               ",
"                              .                 .                                               ",
"                                .         . . . . . + @                                         ",
"                                .       # $ % & * = - ; >                                       ",
"                                .       , ' ) ! ~ { ] ^ /                                       ",
"                              . .       ( _ : < [ } | 1 2 3 4                                   ",
"                          . . .         5 6 7 8 9 0 a ^ b c d e f                               ",
"                      . . .         g h i j k l m n o p q r s t u v w                           ",
"                                  x y z A B C D E F G H I J K L M N O P                         ",
"                                y Q R S T U V W X Y Z `  ...+.@.#.$.%.$.&.*.                    ",
"                              =.Q -.;.>.,.'.).!.~.{.].^./.(._.:.<.[.}.|.1.2.                    ",
"                            3.4.5.6.7.8.9.0.a.b.0.c.d.e.f.g.h.i.j.k.l.m.n.o.p.                  ",
"                          q.r.s.t.u.v.w.x.y.y.z.A.B.C.D.E.F.G.H.I.1.J.H K.L.M.L.                ",
"                          N.O.P.Q.b.R.A.S.T.U.T.V.W.X.Y.Z.`. +.+++@+#+o.L.$+%+&+                ",
"                        *+=+-+;+>+,+'+)+!+~+{+U.]+^+/+(+_+:+<+[+}+|+1+2+3+4+5+6+J               ",
"                        q.7+8+9+0+a+b+c+d+e+f+g+h+i+j+k+l+m+#+n+K.o+p+q+r+s+t+u+v+              ",
"                      w+x+y+z+A+B+C+D+l+E+F+G+H+I+J+K+L+M+N+O+P+Q+R+S+L.T+U+V+W+X+Y+            ",
"                      Z+-.`+ @.@+@@@#@$@%@&@*@=@-@;@>@,@'@)@!@~@u+{@]@^@/@(@_@:@<@s             ",
"                      [@}@y+|@1@2@3@4@5@6@7@8@9@0@a@b@c@d@e@f@g@h@M.p.i@j@k@l@m@n@h@            ",
"                      o@p@q@r@s@t@u@v@w@x@{.y@z@A@B@C@D@E@F@G@H@I@J@K@L@M@N@O@P@Q@R@            ",
"                      S@T@U@(.V@W@X@Y@Z@`@ #.#S +#@###$#%#&#*#=#-#;#%+>#,#'#)#!#~#n@            ",
"                      {#]#^#/#(#_#:#<#[#}#|#1#2#3#4#5#6#7#8#9#0#a#b#c#d#s e#'#f#g#h#            ",
"                      i#j#k#l#m#n#o#p#q#r#s#t#u#v#w#|+x#y#z#A#B#C#D#j@E#F#G#H#I#J#K#            ",
"                      L#M#N#O#P#Q#R#{.S#T#U#V#W#X#v#f Y#Z#S+`# $.$A#+$X+@$W+#$f#J#$$            ",
"                      M#%$&$*$:.=$-$;$>$,$'$)$!$~${$&+s+]$^$/$s+($X+_$:$<$[$}$|$1$2$            ",
"                        3$4$5$6$6$7$8$9$0$a$b$c$d$e$f$g$%+h$i$j$k$<@l$m$f$h#9#n$o$              ",
"                        p$q$r$4 s$t$u$v$w$x$y$z$o.A$B$C$D$E$F$V+)#P@G$Q@H$I$J$J$K$              ",
"                          @.L$M$N$O$6#P$Q$R$s h#S$T$$$U$V$W$X$Y$Z$`$ %.%+%@%#%$%                ",
"                          %%&%*%=%-%;%>%B$,%'%)%!%~%{%]%^%f$/%A$(%_%:%<%[%}%|%1%                ",
"                            `#2%3%4%5%6%7%8%9%0%a%b%c%d%e%f%g%h%i%j%k%l%m%n%o%                  ",
"                              p%q%r%-#s%t%u%v%w%x%y%z%A%B%C%D%E%F%D%G%H%}%I%                    ",
"                              I J%K%L%M%N%O%P%Q%R%S%T%U%T$V%W%X%Y%Z%`% &o%.&                    ",
"                                  .$x#+&@&#&$&%&&&*&=&-&;&>&,&.%'&m%)&!&                        ",
"                                    ~&{&]&^&/&(&_&:&<&[&}&}&|&1&2&3&4&                          ",
"                                      5&6&7&8&9&0&a&b&c&d&e&}&2$f&                              ",
"                                      g&h&i&j&k&l&m&n&X+o&p&q&                                  ",
"                                        r&s&t&u&v&w&x&                                          ",
"                                        y&z&A&B&m&C&D&                                          ",
"                                            E&F&G&H&                                            ",
"                                                                                                "};
