/* XPM */
static char *final_inside[] = {
/* columns rows colors chars-per-pixel */
"164 39 201 2",
"   c Gray0",
".  c Gray5",
"X  c #0e0e0e",
"o  c Gray6",
"O  c #101010",
"+  c Gray10",
"@  c #1b1b1b",
"#  c Gray11",
"$  c #1d1d1d",
"%  c #1e1e1e",
"&  c Gray12",
"*  c #272727",
"=  c #282828",
"-  c Gray16",
";  c #2a2a2a",
":  c Gray17",
">  c #2d2d2d",
",  c #373737",
"<  c Gray22",
"1  c #393939",
"2  c #3a3a3a",
"3  c Gray23",
"4  c #3c3c3c",
"5  c Gray24",
"6  c #3e3e3e",
"7  c #3f3f3f",
"8  c Gray25",
"9  c #414141",
"0  c Gray26",
"q  c #434343",
"w  c #444444",
"e  c Gray27",
"r  c #464646",
"t  c Gray28",
"y  c #484848",
"u  c #494949",
"i  c Gray29",
"p  c #4b4b4b",
"a  c Gray30",
"s  c #505050",
"d  c #515151",
"f  c Gray32",
"g  c #535353",
"h  c Gray33",
"j  c #565656",
"k  c #585858",
"l  c Gray35",
"z  c #5a5a5a",
"x  c Gray36",
"c  c #5d5d5d",
"v  c #5f5f5f",
"b  c #606060",
"n  c #626262",
"m  c Gray39",
"M  c #646464",
"N  c #656565",
"B  c Gray40",
"V  c #676767",
"C  c #686868",
"Z  c Gray41",
"A  c #6a6a6a",
"S  c Gray42",
"D  c #6c6c6c",
"F  c #6d6d6d",
"G  c Gray43",
"H  c #6f6f6f",
"J  c Gray44",
"K  c #717171",
"L  c #727272",
"P  c Gray45",
"I  c #747474",
"U  c Gray46",
"Y  c #767676",
"T  c #777777",
"R  c Gray47",
"E  c #797979",
"W  c Gray48",
"Q  c #7b7b7b",
"!  c #7c7c7c",
"~  c Gray49",
"^  c Gray",
"/  c Gray50",
"(  c #808080",
")  c #818181",
"_  c Gray51",
"`  c #838383",
"'  c #848484",
"]  c Gray52",
"[  c #868686",
"{  c Gray53",
"}  c Gray54",
"|  c #8b8b8b",
" . c Gray55",
".. c #8d8d8d",
"X. c #8e8e8e",
"o. c Gray56",
"O. c #909090",
"+. c Gray58",
"@. c #959595",
"#. c Gray59",
"$. c #979797",
"%. c #989898",
"&. c Gray60",
"*. c #9a9a9a",
"=. c #9b9b9b",
"-. c Gray61",
";. c #9d9d9d",
":. c Gray62",
">. c #9f9f9f",
",. c #a0a0a0",
"<. c Gray63",
"1. c #a2a2a2",
"2. c Gray64",
"3. c #a4a4a4",
"4. c #a5a5a5",
"5. c Gray65",
"6. c #a7a7a7",
"7. c Gray66",
"8. c #a9a9a9",
"9. c #aaaaaa",
"0. c #acacac",
"q. c Gray68",
"w. c #aeaeae",
"e. c #afafaf",
"r. c Gray69",
"t. c #b1b1b1",
"y. c #b2b2b2",
"u. c Gray70",
"i. c Gray71",
"p. c #b6b6b6",
"a. c #b7b7b7",
"s. c Gray72",
"d. c #b9b9b9",
"f. c Gray73",
"g. c #bcbcbc",
"h. c Gray74",
"j. c #bebebe",
"k. c Gray75",
"l. c #c0c0c0",
"z. c #c1c1c1",
"x. c Gray76",
"c. c #c3c3c3",
"v. c #c5c5c5",
"b. c #c6c6c6",
"n. c Gray78",
"m. c #c8c8c8",
"M. c Gray79",
"N. c #cacaca",
"B. c #cbcbcb",
"V. c Gray80",
"C. c #cdcdcd",
"Z. c #cecece",
"A. c Gray81",
"S. c #d0d0d0",
"D. c Gray82",
"F. c #d2d2d2",
"G. c #d3d3d3",
"H. c Gray83",
"J. c #d5d5d5",
"K. c Gray84",
"L. c #d7d7d7",
"P. c #d8d8d8",
"I. c Gray85",
"U. c #dadada",
"Y. c Gray86",
"T. c gainsboro",
"R. c #dddddd",
"E. c Gray87",
"W. c #dfdfdf",
"Q. c Gray88",
"!. c #e1e1e1",
"~. c #e2e2e2",
"^. c Gray89",
"/. c #e4e4e4",
"(. c Gray90",
"). c #e6e6e6",
"_. c #e7e7e7",
"`. c Gray91",
"'. c #e9e9e9",
"]. c #eaeaea",
"[. c Gray92",
"{. c #ececec",
"}. c Gray93",
"|. c #eeeeee",
" X c #efefef",
".X c Gray94",
"XX c #f1f1f1",
"oX c Gray95",
"OX c #f3f3f3",
"+X c #f4f4f4",
"@X c Gray96",
"#X c #f6f6f6",
"$X c Gray97",
"%X c #f8f8f8",
"&X c #f9f9f9",
"*X c Gray98",
"=X c #fbfbfb",
"-X c Gray99",
";X c #fdfdfd",
":X c #fefefe",
">X c Gray100",
/* pixels */
">X>X>X>X>X>X>X>X>X>X>X>X>X>X>X>X>X>X>X>X>X>X>X>X>X>X>X>X>X>X>X>X>X>X>X>X>X>X>X>X>X>X>X>X>X>X>X>X>X>X>X>X>X>X>X>X>X>X>X>X>X>X>X>X>X>X>X>X>X>X>X>X>X>X>X>X>X>X>X>X>X>X>X>X>X>X>X>X>X>X>X>X>X>X>X>X>X>X>X>X>X>X>X>X>X>X>X>X>X>X>X>X>X>X>X>X>X>X>X>X>X>X>X>X>X>X>X>X>X>X>X>X>X>X>X>X>X>X>X>X>X>X>X>X>X>X>X>X>X>X>X>X>X>X>X>X>X>X>X>X>X>X>X>X",
">X>X>X>X>X>X>X>X>X>X>X>X>X>X>X>X>X>X>X>X>X>X>X>X>X>X>X>X>X>X>X>X>X>X>X>X>X>X>X>X>X>X>X>X>X>X>X>X>X>X>X>X>X>X>X>X>X>X>X>X>X>X>X>X>X>X>X>X>X>X>X>X>X>X>X>X>X>X>X>X>X>X>X>X>X>X>X>X>X>X>X>X>X>X>X>X>X>X>X>X>X>X>X>X>X>X>X>X>X>X>X>X>X>X>X>X>X>X>X>X>X>X>X>X>X>X>X>X>X>X>X>X>X>X>X>X>X>X>X>X>X>X>X>X>X>X>X>X>X>X>X>X>X>X>X>X>X>X>X>X>X>X>X>X",
">X>X>X>X>X>X>X>X>X>X>X>X>X>X>X>X>X>X>X>X>X>X>X>X>X>X>X>X>X>X>X>X>X>X>X>X>X>X>X>X>X>X>X>X>X>X>X>X>X>X>X>X>X>X>X>X>X>X>X>X>X>X>X>X>X>X>X>X>X>X>X>X>X>X>X>X>X>X>X>X>X>X>X>X>X>X>X>X>X>X>X>X>X>X>X>X>X>X>X>X>X>X>X>X>X>X>X>X>X>X>X>X>X>X>X>X>X>X>X>X>X>X>X>X>X>X>X>X>X>X>X>X>X>X>X>X>X>X>X>X>X>X>X>X>X>X>X>X>X>X>X>X>X>X>X>X>X>X>X>X>X>X>X>X",
">X>X>X>X>X>X>X>X>X>X>X>X>X>X>X>X>X>X>X>X>X>X>X>X>X>X>X>X>X>X>X>X>X>X>X>X>X>X>X>X>X>X>X>X>X>X>X>X>X>X>X>X>X>X>X>X>X>X>X>X>X>X>X>X>X>X>X>X>X>X>X>X>X>X>X>X>X>X>X>X>X>X>X>X>X>X>X>X>X>X>X>X>X>X>X>X>X>X>X>X>X>X>X>X>X>X>X>X>X>X>X>X>X>X>X>X>X>X>X>X>X>X>X>X>X>X>X>X>X>X>X>X>X>X>X>X>X>X>X>X>X>X>X>X>X>X>X>X>X>X>X>X>X>X>X>X>X>X>X>X>X>X>X>X",
">X>X>X>X>X>X>X>X>X>X>X>X>X>X>X>X>X>X>X>X>X>X>X>X>X>X>X>X>X>X>X>X>X>X>X>X>X>X>X>X>X>X>X>X>X>X>X>X>X>X>X>X>X>X>X>X>X>X>X>X>X>X>X>X>X>X>X>X>X>X>X>X>X>X>X>X>X>X>X>X>X>X>X>X>X>X>X>X>X>X>X>X>X>X>X>X>X>X>X>X>X>X>X>X>X>X>X>X>X>X>X>X>X>X>X>X>X>X>X>X>X>X>X>X>X>X>X>X>X>X>X>X>X>X>X>X>X>X>X>X>X>X>X>X>X>X>X>X>X>X>X>X>X>X>X>X>X>X>X>X>X>X>X>X",
">X>X>X>X>X>X>X>X>X>X>X>X>X>X>X>X>X>X>X>X>X>X>X>X>X>X>X>X>X>X>X>X>X>X>X>X>X>X>X>X>X>X>X>X>X>X>X>X>X>X>X>X>X>X>X>X>X>X>X>X>X>X>X>X>X>X>X>X>X>X>X>X>X>X>X>X>X>X>X>X>X>X>X>X>X>X>X>X>X>X>X>X>X>X>X>X>X>X>X>X>X>X>X>X>X>X>X>X>X>X>X>X>X>X>X>X>X>X>X>X>X>X>X>X>X>X>X>X>X>X>X>X>X>X>X>X>X>X>X>X>X>X>X>X>X>X>X>X>X>X>X>X>X>X>X>X>X>X>X>X>X>X>X>X",
">X>X>X>X>X>X>X>X>X>X>X>X>X>X>X>X>X>X>X>X>X>X>X>X>X>X>X>X>X>X>X>X>X>X>X>X>X>X>X>X>X>X>X>X>X>X>X>X>X>X>X>X>X>X>X>X>X>X>X>X>X>X>X>X>X>X>X>X>X>X>X>X>X>X>X>X>X>X>X>X>X>X>X>X>X>X>X>X>X>X>X>X>X>X>X>X>X>X>X>X>X>X>X>X>X>X>X>X>X>X>X>X>X>X>X>X>X>X>X>X>X>X>X>X>X>X>X>X>X>X>X>X>X>X>X>X>X>X>X>X>X>X>X>X>X>X>X>X>X>X>X>X>X>X>X>X>X>X>X>X>X>X>X>X",
">X>X>X>X>X>X>X>X>X>X>X>X>X>X>X>X>X>X>X>X>X>X>X>X>X>X>X>X>X>X>X>X>X>X>X>X>X>X>X>X>X>X>X>X>X>X>X>X>X>X>X>X>X>X>X>X>X>X>X>X>X>X>X>X>X>X>X>X>X>X>X>X>X>X>X>X>X>X>X>X>X>X>X>X>X>X>X>X>X>X>X>X>X>X>X>X>X>X>X>X>X>X>X>X>X>X>X>X>X>X>X>X>X>X>X>X>X>X>X>X>X>X>X>X>X>X>X>X>X>X>X>X>X>X>X>X>X>X>X>X>X>X>X>X>X>X>X>X>X>X>X>X>X>X>X>X>X>X>X>X>X>X>X>X",
">X>X>X>X>X>X>X>X>X>X>X>X>X>X>X>X>X>X>X>X>X>X>X>X>X>X>X>X>X>X>X>X>X>X>X>X>X>X>X>X>X>X>X>X>X>X>X>X>X>X>X>X>X>X>X>X>X>X>X>X>X>X>X>X>X>X>X>X>X>X>X>X>X>X>X>X>X>X>X>X>X>X>X>X>X>X>X>X>X>X>X>X>X>X>X>X>X>X>X>X>X>X>X>X>X>X>X>X>X>X>X>X>X>X>X>X>X>X>X>X>X>X>X>X>X>X>X>X>X>X>X>X>X>X>X>X>X>X>X>X>X>X>X>X>X>X>X>X>X>X>X>X>X>X>X>X>X>X>X>X>X>X>X>X",
">X>X>X>X>X>X>X>X>X>X>X>X>X>X>X>X>X>X>X>X>X>X>X>X>X>X>X>X>X>X>X>X>X>X>X>X>X>X>X>X>X>X>X>X>X>X>X>X>X>X>X>X>X>X>X>X>X>X>X>X>X>X>X>X>X>X>X>X>X>X>X>X>X>X>X>X>X>X>X>X>X>X>X>X>X>X>X>X>X>X>X>X>X>X>X>X>X>X>X>X>X>X>X>X>X>X>X>X>X>X>X>X>X>X>X>X>X>X>X>X>X>X>X>X>X>X>X>X>X>X>X>X>X>X>X>X>X>X>X>X>X>X>X>X>X>X>X>X>X>X>X>X>X>X>X>X>X>X>X>X>X>X>X>X",
">X>X>X>X>X>X>X>X>X>X>X>X>X>X>X>X>X>X>X>X>X>X>X>X>X>X>X>X>X>X>X>X>X>X>X>X>X>X>X>X>X>X>X>X>X>X>X>X>X>X>X>X>X>X>X>X>X>X>X>X>X>X>X>X>X>X>X>X>X>X>X>X>X>X>X>X>X>X>X>X>X>X>X>X>X>X>X>X>X>X>X>X>X>X>X>X>X>X>X>X>X>X>X>X>X>X>X>X>X>X>X>X>X>X>X>X>X>X>X>X>X>X>X>X>X>X>X>X>X>X>X>X>X>X>X>X>X>X>X>X>X>X>X>X>X>X>X>X>X>X>X>X>X>X>X>X>X>X>X>X>X>X>X>X",
">X>X>X>X>X>X>X>X>X>X>X>X>X>X>X>X>X>X>X>X>X>X>X>X>X>X>X>X>X>X>X>X>X>X>X>X>X>X>X>X>X>X>X>X>X>X>X>X>X>X>X>X=X>X>X>X>X>X>X>X>X>X>X>X>X>X>X>X>X>X>X>X>X>X>X>X>X>X>X>X>X>X>X>X>X>X>X>X>X>X>X>X>X>X>X>X>X>X>X>X>X>X>X>X>X>X>X>X>X>X>X>X>X>X>X>X>X>X>X>X>X>X>X>X>X>X>X>X>X>X>X>X>X>X>X>X>X>X>X>X>X>X>X>X>X>X>X>X>X>X>X>X>X>X>X>X>X>X>X>X>X>X>X>X",
">X>X>X>X>X>X>X>X>X>X>X>X>X>X>X>X>X>X>X>X>X>X>X>X>X>X>X>X>X>X>X>X>X>X>X>X>X>X>X>X=X>X>X>X>X>X>X>X>X>X>X>X=X>X>X>X>X>X>X>X>X>X>X>X>X>X>X>X>X>X>X>X>X>X>X>X>X>X>X>X>X>X>X=X>X=X=X=X=X>X=X>X>X>X>X>X>X>X>X>X>X>X>X>X>X>X>X>X>X>X>X>X>X>X>X>X>X>X=X>X>X>X>X>X>X>X>X>X>X>X>X>X>X>X>X>X>X>X>X>X>X>X>X>X>X>X>X>X>X=X>X>X>X>X>X>X>X>X>X>X>X>X>X>X",
">X>X>X>X>X>X>X>X>X>X>X>X>X>X>X>X=X=X=X=X=X=X=X=X=X=X=X=X=X=X=X=X=X=X=X=X=X=X=X=X=X=X=X=X>X>X>X>X>X=X=X=X=X=X=X=X>X=X=X>X>X>X>X>X>X>X>X>X>X>X>X>X>X>X>X>X>X>X>X>X>X=X=X=X=X=X@X=X=X=X=X=X>X>X>X>X>X>X>X>X>X>X>X>X>X>X>X>X>X>X>X>X>X>X>X>X>X>X=X=X=X=X=X>X>X>X>X>X>X>X>X>X>X>X>X>X>X>X>X>X>X>X>X>X>X>X>X>X=X=X=X=X=X=X=X=X=X=X=X>X>X>X>X>X",
">X>X>X>X>X>X>X>X>X>X>X>X>X>X>X>X=X=X@X=X=X=X=X=X=X=X=X=X@X@XOX@X=X=X=X=X=X=X=X=X@X=X=X=X=X>X=X>X=X=X@.[ K.@X@X=X=X=X>X>X>X>X>X>X>X>X>X>X>X>X>X>X>X>X>X>X>X>X>X>X>X=X=X@X@XOXOX@X@X@X@X=X=X>X>X>X>X>X>X>X>X>X>X>X=X>X=X=X=X>X=X>X>X>X>X>X>X=X=X=X=X=X=X=X=X>X>X>X>X>X>X>X>X>X>X>X>X>X>X>X>X>X>X>X>X>X=X=X=X=X@X@X@X@X@X@X@X=X=X=X=X>X>X>X",
">X>X>X>X>X>X>X>X>X>X>X>X>X>X=X=XM 9 2.@X@X@X@X=X@X@XK.9 9 x. XOXOX@X@X@X@X3.9 m @X@X@X=X=X=X>X=X=X=X9   t.OX@X@X@X=X>X>X>X>X>X>X>X>X>X>X>X>X>X>X>X>X>X>X>X>X>X=X=X@X@.%   c  XOXOXOX@X=X=X=X>X>X>X>X>X>X>X>X>X=X=X=X=X=X=X=X>X>X>X>X>X=X=X@.9 @.@X@X@X=X=X=X>X>X>X>X>X>X>X>X>X>X>X>X>X>X>X>X>X>X>X=X=XJ 9 b.OXOXOX9 9 OXOX@X@X=X=X>X>X>X",
">X>X>X>X>X>X>X>X>X>X>X>X>X>X=X=X[   9 OX XOXOX@XOXOXJ     c [.[. X XOXOXOX9   ) OXOX@X@X@X=X>X=X=X@X9   t. XOXOX@X@X=X>X>X>X>X>X>X>X>X>X>X>X>X>X>X>X>X>X>X>X=X=X@X2.      4 h.9 x. XOX@X=X=X>X>X>X>X>X>X>X=X>XC.w m.@X=X=X=X=X>X>X>X=X=X=X[   ) OXOXOX@X=X=X>X>X>X>X>X>X>X>X>X>X>X>X>X>X>X>X>X>X>X=X=X9   0. X XW.    W. XOX@X@X=X=X=X>X",
">X>X>X>X>X>X>X>X>X>X>X>X>X>X=X@XK.    C.[. X X X X XO     o G.Q._.[. X XG.    C.[. X XOX@X=X=X=X@X@Xs   x.[. XOXOX@X=X=X=X=X>X=X>X>X>X=X=X=X=X>X>X>X>X>X>X>X=X=X@X%   ~ Q.K.4   4 [. XOX@X=X=X=X>X=X=X=X=X=X=X9   9 @X@X@X@X=X=X=X=X=X@X@X)   ) [. X XOX@X@X=X>X>X>X>X>X=X>X>X=X=X=X>X>X>X>X>X=X=X@XOX9   8._._.8.    8._. XOXOX@X=X>X>X",
">X>X>X>X>X>X>X>X>X>X>X>X>X>X=X@XOXs   S _.[.[.[.[.|   % %   [ W.Q._._.[.G   a _._.[.[. X X@X@X@X@XOX)   [.[.[. XOXOXOX@X=X=X=X=X=X=X@X=X@X=X=X=X=X=X>X>X>X=X=X@XG.  % Q.W.Y.t.4 i._.[. XOX@X@X@X@X=X=X=X@X@X@Xb.9 b.OXOXOX@X@X@X@X@X@XOXOX)   ~ _._.[. XOXOX@X=X=X=X=X=X=X=X=X=X=X=X=X=X=X=X=X=X@XOX X9   3.W.W.3.    3.Q.[. X X@X=X>X>X",
">X>X>X>X>X>X>X>X>X>X>X>X>X=X=X@XOX:.  o Q.Q._._._.4   Y Y   = K.Y.W.Q._.%   @.Q.Q.Q._._. X XOXOXOX X:.> [._.[. X X XOXOXOXOX@X@X@X@X@X@X@X@XOXOX@X@X=X=X=X=X@XOX0.  4 Y.K.K.K.Y.W.Q._. X XOXOXOXOXOX@X@X@XOXOXOXOX X X X X XOXOXOXOXOX X X~   E Q.Q._._.[. XOX@X=X=X@X=X@X@X@X@XOX@X@X@X@X=X@X@XOX[.[.4   2.Y.Y.2.    :.W._.[. XOX=X=X>X",
">X>X>X>X>X>X>X>X>X>X>X>X>X>X=X@XOX[.%   [ W.W.Q.x.    s.i.    8.K.Y.W.@.  % W.W.W.C.@.E ~ h. X[.[.[.W.h.[._.C.0.C.[.x.) 2.OX XOXOXQ.2.) ) x. XOXOX@X@X=X=X=X@Xx.)   = :.s.G.s.:.x.W._.m.0.C. Xx.) :. X X X X XG.0.C.[.[.[.C.~ ) o.G. X[._.E   E Y.t.E @._.[. XOX@X@X@X_.2.) ) x. X XOXOXOXOXOXt.~ ~ @.=   :.K.G.0.    0.W.Q.[. XOX@X=X>X",
">X>X>X>X>X>X>X>X>X>X>X>X>X>X=X@XOX X~   4 Y.Y.Y.M   w G.C.w   s C.K.K.w   Y K.K.0.%         S _._.[.[.[._._.~   ~ |       4 [.[.x.%         S [.[. XOX@X=X@XOX4         J G.J   Y Y.Q.E   S 4       > Y.[.[.[.~   ~ _._.o.          | _.Q.E   M <       = K._. X X Xx.%         S [.[.[. Xh.%             &.G.G.G.    K.Y.Q._. XOX@X=X>X",
">X>X>X>X>X>X>X>X>X>X>X>X>X>X=X@XOX Xm.    h.K.K.o   | C.m.[   o h.C.s.    s.G.s.o   m :.O.=   E Q.Q._._._._.~   4 = @.| % | _.b.o   S 2.@.=   E _.[. XOX@X@XOXo.c   % J @.C.J   J Y.W.E     4 @.@.=   S Q._._.~   E Q.Q.%   E 2.[ p E W.W.E     < o.o.=   M Q._.[.C.o   S 3.@.=   E Q.Q.m.o   4 @.2.) %   &.C.C.G.+ + K.Y.Q._. XOX@X>X>X",
">X>X>X>X>X>X>X>X>X>X>X>X>X>X=X=XOX X_.p   m G.~   + C.C.m.m.+   E C.G   w C.C.s   J C.G.G.s.  % W.Q._._._._.~   o G.W.W.G.W.W.l   E Y.K.K.h.  % W._.[.OXOXOX X[.3.  < C.m.C.G   J G.Y.Y   p K.Y.Y.2.  % W.W.Q.E   E W.W.O   0.K.Y.Y.C.Y.Y.Y   w G.C.G.&.  % Y.Q.Q.l   E W.Y.Y.h.  % Y.W.l   p W.Y.K.G.<   @.m.C.G.< < K.W.Q.[. XOX=X=X>X",
">X>X>X>X>X>X>X>X>X>X>X>X>X>X>X=X@X X[.@.  o G.<   G m.C.C.C.G   * m.+   [ m.m.+   E @.@.@.&.=   h.W.Q._._._.~   l Y.Y.Y.W.Y.W.%   ) &.&.&.&.=   x.Q.[. XOXOX X[.8.  < C.C.C.J   J G.K.Y   Y K.G.K.K.    K.Y.W.Y   Y Y.Y.M     J K.K.K.K.K.Y   Y C.C.C.G.    K.Y.Y.%   ) :.&.:.&.=   s.K.%   t.K.K.G.G.<   @.C.G.G.m M Y.Q._. X X@X=X=X>X",
">X>X>X>X>X>X>X>X>X>X>X>X>X>X>X=X=XOX X_.%   J     t.m.C.C.G.i.    G   + m.b.m.                  :.W._._._._.~   E Y.Y.W.Y.W.Y.                  :.W._. X XOX X[.8.  < G.C.C.J   J G.K.Y   J G.G.K.K.    K.K.Y.Y   Y K.K.K.m     + 0.G.G.G.J   J C.C.C.G.    K.K.Y.                  &.G.    K.G.G.G.G.<   @.C.G.K.Y Y W.Q.[. XOX@X=X>X>X",
">X>X>X>X>X>X>X>X>X>X>X>X>X>X>X>X=X@X X[.E   o   9 m.C.C.G.K.K.w       G b.b.m.o   h.b.b.m.m.C.G.K.Y.Q._._._.~   Y Y.Y.W.W.Y.Y.o   b.C.m.m.m.C.G.K.W._.[.OXOX X[.8.  < G.C.G.J   J G.G.J   J C.G.G.G.    G.K.K.J   J K.K.K.G.&.*     &.C.G.J   J G.C.G.G.    G.G.K.o   x.m.m.C.m.C.m.C.C.o   G.G.C.G.C.<   @.C.G.K.C.C.Q._.[. XOX@X=X>X>X",
">X>X>X>X>X>X>X>X>X>X>X>X>X>X>X>X=X@XOX[.b.      [ C.C.G.K.Y.Y.o.      t.m.m.m.,   E b.b.b.m.m.C.K.W.Q._._._.~   E Y.Y.W.W.W.W.<   ~ C.m.m.m.m.C.K.Y._.[. XOX X[.8.  4 K.G.G.J   J C.G.J   J G.G.G.K.    G.G.K.Y   J G.K.K.G.C.C.c   + C.C.J   J G.G.G.G.    G.G.G.<   E m.m.m.m.m.m.C.C.<   o.C.C.C.C.<   @.G.K.Y.W.W.Q._. XOX@X@X=X=X>X",
">X>X>X>X>X>X>X>X>X>X>X>X>X>X>X>X>X=XOX X_.p   + C.C.G.Y.W.W.W.W.%   w C.m.m.C.~   o t.m.m.C.x.J m.W._._.[.[.~   E W.W.W.Q.Q.Q.[   o i.m.m.C.x.J m.W._. X XOXOX X0.  4 K.K.K.J   J G.G.J   J G.G.K.K.    K.K.K.J   J G.m.Y b.C.C.x.    C.C.J   J G.K.K.K.    G.G.K.~   o t.m.m.C.x.G x.G.~   = i.C.G.G.<   &.G.K.Y.@.E _.[. XOX@X=X=X>X>X",
">X>X>X>X>X>X>X>X>X>X>X>X>X>X>X>X>X=X@X X[.@.  J G.K.K.W.Q._._.Q.M   o.G.G.G.G.G.<   o s G s o   Y.Q._.[.[.[.~   E W.Q._._._._.Q.4   o h J s o   Y.Q.[. XOXOXOXOX0.  4 Y.Y.K.Y   J G.K.Y   Y K.K.Y.Y.    K.K.Y.Y   Y K.Y.  o h J +   w C.C.J   Y K.K.Y.Y.    K.K.K.K.<   o s J s o   G.K.K.h     < < < o   &.K.Y.t.    ~ [.OXOX@X@X=X>X>X",
">X>X>X>X>X>X>X>X>X>X>X>X>X>X>X>X>X=X@XOX X_.% x.Y.Y.W.Q._.[.[._.b.% Y.Y.K.Y.Y.Y.m.m         + Y W._.[.[.[. X~   E _._._.[.[.[._.K.M         % Y W._.[. XOX@X@XOX0.  4 W.W.W.E   Y Y.Y.Y   Y Y.W.W.W.    Y.Y.Y.Y   Y Y.Y.l o       < b.G.G.Y   Y Y.W.W.W.    Y.Y.Y.Y.m.m         + J K.Y.Y.Y.) =           :.K.Y.x.o   &.[.OXOX@X=X=X>X>X",
">X>X>X>X>X>X>X>X>X>X>X>X>X>X>X>X>X>X=X@XOX[.m.Q.Q.Q.Q.[.[. X X[.[.s.Q.W.W.Q.Q.Q.W.W.C.:.:.s.Y.Y.W._.[. X X X X X[.[.[.[. X X X[.[.Q.C.:.:.h.Y.Y.Q._.[.OX@X@X@X@XOX X[._.Q.Q.Q.Q.W.W.W.W.Q.Q.W.Q.Q._._.Q.Q.W.Q.Q.Q.W.W.W.Q.W.t.:.h.K.K.K.K.Y.W.W.Q.Q.Q._._.Q.Q.Q.Q.W.W.Y.m.:.:.h.K.Y.Y.Y.W.W.W.Y.Y.Y.Y.K.K.Y.Y.W.Q.b.h.[.[.OXOX@X@X=X>X>X",
">X>X>X>X>X>X>X>X>X>X>X>X>X>X>X>X>X=X=X@X@XOX[.[._.[.[. XOXOXOXOX X[._._._._.[._._.Q.Q.W.Y.W.W.W._.[. X XOXOXOXOX X[. X XOXOX X X X_.Q.W.Y.W.W.W.Q.[. XOX@X=X@X@XOXOX X[._._._._._.Q.Q._.Q._._._.[.[.[.[._._._._._.Q.Q._._.Q.W.W.Y.W.Y.Y.W.W.Q._._._.[.[.[._._._._._.Q.W.W.W.W.Y.W.W.W.Q.Q._.Q.Q.W.W.Y.Y.W.Y.W.Q._._.[.[. XOX@X@X=X=X>X>X",
">X>X>X>X>X>X>X>X>X>X>X>X>X>X>X>X>X>X=X=X@X@XOXOX X XOXOX@X@X@X@XOXOX X X X X X X X[.[._.Q._._._.[. XOXOX@X@X@XOXOXOXOXOX@X@X@XOXOX X[._._.Q._._.[. XOX@X=X=X=X@X@XOXOX X[. X X X[.[.[.[. X[.[. X X X X X[.[.[.[.[.[.[.[.[.[._.Q._.Q.Q.Q.Q._.[.[.[.[. X X X X[.[. X X[._._._._.Q.Q._._.[.[.[.[.[._._._.Q.Q._._.[.[. X X XOXOX@X@X=X=X>X>X",
">X>X>X>X>X>X>X>X>X>X>X>X>X>X>X>X>X>X>X=X=X@X@X@XOX@X@X=X=X=X=X=X@X@XOX@X@X@X@X@XOXOX X X[.[.[. X XOX@X@X@X@X@X@X@X@X@X@X@X=X=X@X@XOXOX X[.[.[. X XOX@X@X=X=X=X=X=X@X@XOXOXOXOXOXOXOXOXOXOXOXOXOXOXOXOX@XOXOXOXOXOXOX XOXOX X X[.[.[.[.[.[. X XOXOXOXOXOXOXOXOXOXOXOXOX X X[.[.[. X[. X XOX XOX X X[.[.[.[.[.[. X XOXOXOXOX@X=X=X=X=X>X>X",
">X>X>X>X>X>X>X>X>X>X>X>X>X>X>X>X>X>X>X>X>X=X=X=X@X=X=X=X=X=X=X=X=X=X=X=X@X=X=X@X@X@X@XOXOX X XOXOX@X@X=X=X=X=X=X=X=X=X=X=X=X=X=X=X@XOXOXOX X XOXOX@X=X=X=X=X=X=X=X=X=X@X@X@X@X@X@X@X@X@X@X@X@X@X@X@X@X@X@X@X@X@X@X@X@X@XOXOXOXOX XOXOXOXOXOXOX@X@X@X@X@X@X@X@X@X@X@X@X@XOXOXOX X XOXOXOX@X@XOXOXOXOX X X X XOXOX@X@X@X@X@X=X=X=X=X>X>X>X",
">X>X>X>X>X>X>X>X>X>X>X>X>X>X>X>X>X>X>X>X=X>X=X>X=X>X=X>X>X=X>X=X>X>X=X=X=X=X=X=X=X=X@X@X@XOX@X@X@X@X=X=X=X=X=X=X=X=X=X=X=X=X=X=X=X=X@X@X@X@X@XOX@X=X=X=X=X>X=X>X>X=X=X=X=X=X=X=X=X=X=X=X=X=X@X=X=X=X=X=X=X=X=X@X=X@X=X@X=X@X@X@X@X@XOX@X@X@X@X=X=X=X=X=X=X=X=X=X=X=X=X@X@X@X@X@X@X@X@X@X=X@X=X@X@X@X@X@X@XOX@X@X@X=X@X=X=X=X=X=X>X>X>X>X",
">X>X>X>X>X>X>X>X>X>X>X>X>X>X>X>X>X>X>X>X>X>X>X>X>X>X>X>X>X>X>X>X>X>X=X>X>X>X=X>X>X>X=X=X=X=X=X=X=X=X>X=X>X>X>X=X>X>X>X=X>X>X>X>X>X=X=X=X=X@X=X=X=X=X=X>X>X>X>X>X>X>X>X=X=X=X>X=X=X=X=X=X=X>X>X=X>X=X=X=X=X>X=X>X=X=X=X=X=X=X=X=X=X=X=X=X=X=X=X=X=X=X=X>X>X>X=X=X=X>X=X=X=X=X=X@X=X=X=X=X=X=X=X=X=X=X=X@X=X=X=X=X=X=X=X=X=X=X>X>X>X>X>X>X",
">X>X>X>X>X>X>X>X>X>X>X>X>X>X>X>X>X>X>X>X>X>X>X>X>X>X>X>X>X>X>X>X>X>X>X>X>X>X>X>X>X>X>X>X=X>X=X>X>X=X>X>X>X>X>X>X>X>X>X>X>X>X>X>X>X>X>X>X=X>X>X>X=X>X>X>X>X>X>X>X>X>X>X>X>X>X>X>X>X>X>X>X>X>X>X>X>X>X>X>X>X>X>X>X>X>X>X>X>X>X>X=X=X>X>X=X>X>X>X>X>X>X>X>X>X>X>X>X>X>X>X>X>X>X=X>X>X>X=X>X>X>X>X>X>X>X>X>X=X>X>X>X>X>X>X>X>X>X>X>X>X>X>X>X"
};
