/* XPM */
static char *final_top[] = {
/* columns rows colors chars-per-pixel */
"51 51 153 2",
"   c #062b30",
".  c #062c32",
"X  c #072d33",
"o  c #072e34",
"O  c #072e35",
"+  c #072f35",
"@  c #053037",
"#  c #063036",
"$  c #073036",
"%  c #073037",
"&  c #073137",
"*  c #053339",
"=  c #073239",
"-  c #073339",
";  c #07333a",
":  c #05373e",
">  c #08343b",
",  c #08353c",
"<  c #08363d",
"1  c #08363e",
"2  c #08373e",
"3  c #08373f",
"4  c #053841",
"5  c #043d46",
"6  c #083840",
"7  c #083940",
"8  c #083941",
"9  c #083a41",
"0  c #083a42",
"q  c #093b43",
"w  c #093c44",
"e  c #093c45",
"r  c #093d45",
"t  c #093e46",
"y  c #093e47",
"u  c #093f48",
"i  c #06434c",
"p  c #05444c",
"a  c #04444e",
"s  c #06444d",
"d  c #094048",
"f  c #094049",
"g  c #094149",
"h  c #09414a",
"j  c #0a424a",
"k  c #08434d",
"l  c #0a434c",
"z  c #0a444d",
"x  c #0a454e",
"c  c #0a454f",
"v  c #0a464f",
"b  c #034a55",
"n  c #034c57",
"m  c #024e59",
"M  c #034e59",
"N  c #044e59",
"B  c #054f5a",
"V  c #084650",
"C  c #0a4650",
"Z  c #0a4750",
"A  c #0b4852",
"S  c #0b4953",
"D  c #0a4a55",
"F  c #0b4a54",
"G  c #0b4b55",
"H  c #084c56",
"J  c #0b4c56",
"K  c #0b4c57",
"L  c #084e59",
"P  c #0b4d58",
"I  c #0b4e59",
"U  c #0b4f59",
"Y  c #03525d",
"T  c #02525e",
"R  c #05535e",
"E  c #07525d",
"W  c #0a505b",
"Q  c #0b535e",
"!  c #0a545f",
"~  c #0c505a",
"^  c #0c505b",
"/  c #0c515c",
"(  c #0c525d",
")  c #0c535e",
"_  c #0c535f",
"`  c #0c545f",
"'  c #025662",
"]  c #045561",
"[  c #045763",
"{  c #025864",
"}  c #035a67",
"|  c #045865",
" . c #055966",
".. c #045a67",
"X. c #035b68",
"o. c #065b68",
"O. c #055e6b",
"+. c #065c69",
"@. c #055f6c",
"#. c #055f6d",
"$. c #095560",
"%. c #095561",
"&. c #085662",
"*. c #0c5460",
"=. c #0c5560",
"-. c #0c5561",
";. c #0c5661",
":. c #0d5661",
">. c #0d5662",
",. c #0d5762",
"<. c #0d5763",
"1. c #0d5863",
"2. c #0d5864",
"3. c #0d5965",
"4. c #01606d",
"5. c #01606e",
"6. c #01616f",
"7. c #03606e",
"8. c #04616f",
"9. c #016270",
"0. c #016372",
"q. c #026573",
"w. c #006776",
"e. c #016776",
"r. c #026574",
"t. c #026674",
"y. c #026675",
"u. c #026776",
"i. c #016877",
"p. c #016979",
"a. c #016a79",
"s. c #016a7a",
"d. c #016b7a",
"f. c #006c7c",
"g. c #006d7d",
"h. c #006e7e",
"j. c #21776f",
"k. c #24786e",
"l. c #3e8063",
"z. c #4b835d",
"x. c #5d8855",
"c. c #418061",
"v. c #8f973f",
"b. c #ae9f31",
"n. c #b9a32c",
"m. c #819345",
"M. c #8d9640",
"N. c #d9ac1e",
"B. c #dbac1d",
"V. c #c9a725",
"C. c #e3af1a",
"Z. c #efb214",
"A. c #f6b411",
/* pixels */
"3.3.3.3.3.3.3.3.3.3.3.3.3.3.3.3.3.3.1.1.>.>.>.>.>.>.>.>.>.>.1.1.3.3.3.3.3.3.3.3.3.3.3.3.3.3.3.3.3.3.3.",
"3.3.3.3.3.3.3.3.3.3.3.3.3.3.3.1.>.>.>.>.>.>.` ` ` ` ` ` >.>.>.>.>.>.1.3.3.3.3.3.3.3.3.3.3.3.3.3.3.3.3.",
"3.3.3.3.3.3.3.3.3.3.3.3.3.1.>.>.>.>.( ( ( ( ^ ^ ^ ^ ^ ^ ( ( ( ( >.>.>.>.1.3.3.3.3.3.3.3.3.3.3.3.3.3.3.",
"3.3.3.3.3.3.3.3.3.3.3.1.>.>.>.( ( ( ^ I I J J G G G G J J I I ^ ( ( ( >.>.>.1.3.3.3.3.3.3.3.3.3.3.3.3.",
"3.3.3.3.3.3.3.3.3.1.>.>.>.( ( ^ W $.O.8.u.d.h.h.d.u.7. .E G S G J I ^ ( ( >.>.>.1.3.3.3.3.3.3.3.3.3.3.",
"3.3.3.3.3.3.3.3.1.>.>.` ( ^ $.O.u.h.h.h.h.h.h.h.h.h.h.h.h.u. .I V S J I ^ ( ` >.>.1.3.3.3.3.3.3.3.3.3.",
"3.3.3.3.3.3.3.1.>.>.( ( $.@.d.h.h.h.h.h.h.h.h.h.h.h.h.h.h.h.h.d. .J V S J I ( ( >.>.1.3.3.3.3.3.3.3.3.",
"3.3.3.3.3.3.>.>.>.( ^ o.u.h.h.h.h.h.h.h.h.h.h.h.h.h.h.h.h.h.h.h.h.q.E l V G I ^ ( >.>.>.3.3.3.3.3.3.3.",
"3.3.3.3.3.1.>.>.( Q @.h.h.h.h.h.h.k.x.v.n.N.Z.Z.N.n.v.x.k.h.h.h.h.h.h. .V x S J ^ ( >.>.1.3.3.3.3.3.3.",
"3.3.3.3.1.>.>.( ! 8.h.h.h.h.h.l.M.N.A.A.A.A.A.A.A.A.A.A.N.M.l.h.h.h.h.h.X.V x S J ^ ( >.>.1.3.3.3.3.3.",
"3.3.3.1.>.>.( Q 8.h.h.h.h.j.m.C.A.A.A.A.A.A.A.A.A.A.A.A.A.A.C.m.j.h.h.h.h.} l l S J ^ ( >.>.1.3.3.3.3.",
"3.3.3.>.>.( ^ @.h.h.h.h.c.b.A.A.A.A.A.A.A.A.A.A.A.A.A.A.A.A.A.A.b.c.h.h.h.h.[ y l S J ^ ( >.>.3.3.3.3.",
"3.3.1.>.` ( o.h.h.h.h.z.V.A.A.A.A.A.A.A.A.A.A.A.A.A.A.A.A.A.A.A.A.V.z.h.h.h.h.B y x S I ( ` >.1.3.3.3.",
"3.3.>.>.( $.u.h.h.h.c.V.A.A.A.A.A.A.A.A.A.A.A.A.A.A.A.A.A.A.A.A.A.A.V.c.h.h.h.0.s h x G I ( >.>.3.3.3.",
"3.1.>.( ^ @.h.h.h.j.b.A.A.A.A.A.A.A.A.A.A.A.A.A.A.A.A.A.A.A.A.A.A.A.A.b.j.h.h.h.[ 8 h V J ^ ( >.1.3.3.",
"3.>.>.( $.d.h.h.h.m.A.A.A.A.A.A.A.A.A.A.A.A.A.A.A.A.A.A.A.A.A.A.A.A.A.A.m.h.h.h.i.i y l S I ( >.>.3.3.",
"1.>.( ^ O.h.h.h.l.C.A.A.A.A.A.A.A.A.A.A.A.A.A.A.A.A.A.A.A.A.A.A.A.A.A.A.C.l.h.h.h.Y 8 h V J ^ ( >.1.3.",
">.>.( W u.h.h.h.M.A.A.A.A.A.A.A.A.A.A.A.A.A.A.A.A.A.A.A.A.A.A.A.A.A.A.A.A.M.h.h.h.0.8 y l S I ( >.>.3.",
">.>.( $.h.h.h.k.N.A.A.A.A.A.A.A.A.A.A.A.A.A.A.A.A.A.A.A.A.A.A.A.A.A.A.A.A.N.k.h.h.h.p 8 h V J ( >.>.3.",
">.( ^ O.h.h.h.x.A.A.A.A.A.A.A.A.A.A.A.A.A.A.A.A.A.A.A.A.A.A.A.A.A.A.A.A.A.A.x.h.h.h.B 2 y x G ^ ( >.1.",
">.( I 8.h.h.h.v.A.A.A.A.A.A.A.A.A.A.A.A.A.A.A.A.A.A.A.A.A.A.A.A.A.A.A.A.A.A.v.h.h.h.} > q l S I ( >.1.",
">.( I u.h.h.h.n.A.A.A.A.A.A.A.A.A.A.A.A.A.A.A.A.A.A.A.A.A.A.A.A.A.A.A.A.A.A.n.h.h.h.7.= 8 h S I ( >.>.",
">.( J d.h.h.h.N.A.A.A.A.A.A.A.A.A.A.A.A.A.A.A.A.A.A.A.A.A.A.A.A.A.A.A.A.A.A.N.h.h.h.i.& 8 h V J ( >.>.",
"` ^ J h.h.h.h.Z.A.A.A.A.A.A.A.A.A.A.A.A.A.A.A.A.A.A.A.A.A.A.A.A.A.A.A.A.A.A.Z.h.h.h.f.& 2 u x J ^ ` >.",
"` ^ G h.h.h.h.Z.A.A.A.A.A.A.A.A.A.A.A.A.A.A.A.A.A.A.A.A.A.A.A.A.A.A.A.A.A.A.Z.h.h.h.h.O 2 y x G ^ ` >.",
"` ^ G d.h.h.h.N.A.A.A.A.A.A.A.A.A.A.A.A.A.A.A.A.A.A.A.A.A.A.A.A.A.A.A.A.A.A.N.h.h.h.u.O 2 y x G ^ ` >.",
"` ^ G u.h.h.h.n.A.A.A.A.A.A.A.A.A.A.A.A.A.A.A.A.A.A.A.A.A.A.A.A.A.A.A.A.A.A.n.h.h.h.7.O 2 y x G ^ ` >.",
"` ^ G 7.h.h.h.v.A.A.A.A.A.A.A.A.A.A.A.A.A.A.A.A.A.A.A.A.A.A.A.A.A.A.A.A.A.A.v.h.h.h.' O 2 y x G ^ ` >.",
"` ^ J  .h.h.h.x.A.A.A.A.A.A.A.A.A.A.A.A.A.A.A.A.A.A.A.A.A.A.A.A.A.A.A.A.A.A.x.h.h.h.b & 2 u x J ^ ` >.",
">.( J E h.h.h.k.N.A.A.A.A.A.A.A.A.A.A.A.A.A.A.A.A.A.A.A.A.A.A.A.A.A.A.A.A.N.k.h.h.h.5 & 8 h V J ( >.>.",
">.( I G u.h.h.h.M.A.A.A.A.A.A.A.A.A.A.A.A.A.A.A.A.A.A.A.A.A.A.A.A.A.A.A.A.M.h.h.h.7.& = 8 h S I ( >.>.",
">.( I S  .h.h.h.l.C.A.A.A.A.A.A.A.A.A.A.A.A.A.A.A.A.A.A.A.A.A.A.A.A.A.A.C.l.h.h.h.n X > y l S I ( >.1.",
">.( ^ G I d.h.h.h.m.A.A.A.A.A.A.A.A.A.A.A.A.A.A.A.A.A.A.A.A.A.A.A.A.A.A.m.h.h.h.u.4 & 2 y x G ^ ( >.1.",
">.` ( J V  .h.h.h.j.b.A.A.A.A.A.A.A.A.A.A.A.A.A.A.A.A.A.A.A.A.A.A.A.A.b.j.h.h.h.m X = 8 h x J ( >.>.3.",
">.>.( I S J q.h.h.h.c.V.A.A.A.A.A.A.A.A.A.A.A.A.A.A.A.A.A.A.A.A.A.A.V.c.h.h.h.7.: O 2 y l S I ( >.>.3.",
"1.>.( ^ J V E h.h.h.h.z.V.A.A.A.A.A.A.A.A.A.A.A.A.A.A.A.A.A.A.A.A.V.z.h.h.h.h.s X = 8 h V J ^ ( >.1.3.",
"3.>.>.( I S l  .h.h.h.h.c.b.A.A.A.A.A.A.A.A.A.A.A.A.A.A.A.A.A.A.b.c.h.h.h.h.m   & 2 y l S I ( >.>.3.3.",
"3.1.>.( ^ J V V X.h.h.h.h.j.m.C.A.A.A.A.A.A.A.A.A.A.A.A.A.A.C.m.j.h.h.h.h.Y & O 2 8 h V J ^ ( >.1.3.3.",
"3.3.>.>.( I G x V } h.h.h.h.h.l.M.N.A.A.A.A.A.A.A.A.A.A.N.M.l.h.h.h.h.h.Y = O > 8 h x G I ( >.>.3.3.3.",
"3.3.1.>.` ( I S x l [ h.h.h.h.h.h.k.x.v.n.N.Z.Z.N.n.v.x.k.h.h.h.h.h.h.m & O = 4 y x S I ( ` >.1.3.3.3.",
"3.3.3.>.>.( ^ J S l y B 0.h.h.h.h.h.h.h.h.h.h.h.h.h.h.h.h.h.h.h.h.7.s   O > 8 y l S J ^ ( >.>.3.3.3.3.",
"3.3.3.1.>.>.( ^ J S l y s [ i.h.h.h.h.h.h.h.h.h.h.h.h.h.h.h.h.u.m : X & 2 8 y l S J ^ ( >.>.1.3.3.3.3.",
"3.3.3.3.1.>.>.( ^ J S x h 8 i Y 7.h.h.h.h.h.h.h.h.h.h.h.h.7.n 4 X O = 2 8 h x S J ^ ( >.>.1.3.3.3.3.3.",
"3.3.3.3.3.1.>.>.( ^ J S x h y 8 8 p B { 7.i.h.h.u.7.' b 5 & X & = 2 8 y h x S J ^ ( >.>.1.3.3.3.3.3.3.",
"3.3.3.3.3.3.>.>.>.( ^ I G V l h y 8 2 > = & & O O O O & & = > 2 8 y h h V G I ^ ( >.>.>.3.3.3.3.3.3.3.",
"3.3.3.3.3.3.3.1.>.>.( ( I J S V l h y y 8 8 2 2 2 2 2 2 8 8 y y h l V S J I ( ( >.>.1.3.3.3.3.3.3.3.3.",
"3.3.3.3.3.3.3.3.1.>.>.` ( ^ I J S V x l h h u y y y y u h h l x V S J I ^ ( ` >.>.1.3.3.3.3.3.3.3.3.3.",
"3.3.3.3.3.3.3.3.3.1.>.>.>.( ( ^ I J G S S V x x x x x x V S S G J I ^ ( ( >.>.>.1.3.3.3.3.3.3.3.3.3.3.",
"3.3.3.3.3.3.3.3.3.3.3.1.>.>.>.( ( ( ^ I I J J G G G G J J I I ^ ( ( ( >.>.>.1.3.3.3.3.3.3.3.3.3.3.3.3.",
"3.3.3.3.3.3.3.3.3.3.3.3.3.1.>.>.>.>.( ( ( ( ^ ^ ^ ^ ^ ^ ( ( ( ( >.>.>.>.1.3.3.3.3.3.3.3.3.3.3.3.3.3.3.",
"3.3.3.3.3.3.3.3.3.3.3.3.3.3.3.1.>.>.>.>.>.>.` ` ` ` ` ` >.` >.>.>.>.1.3.3.3.3.3.3.3.3.3.3.3.3.3.3.3.3."
};
