/* XPM */
static char *step_two_top[] = {
/* columns rows colors chars-per-pixel */
"51 51 168 2",
"   c Gray0",
".  c #100c01",
"X  c #062b30",
"o  c #062c32",
"O  c #072d33",
"+  c #072e34",
"@  c #072e35",
"#  c #072f35",
"$  c #053037",
"%  c #063036",
"&  c #073036",
"*  c #073037",
"=  c #073137",
"-  c #053339",
";  c #073239",
":  c #073339",
">  c #07333a",
",  c #05373e",
"<  c #08343b",
"1  c #08353c",
"2  c #08363d",
"3  c #08363e",
"4  c #08373e",
"5  c #08373f",
"6  c #201702",
"7  c #2f2303",
"8  c #053841",
"9  c #043d46",
"0  c #083840",
"q  c #083940",
"w  c #083941",
"e  c #083a41",
"r  c #083a42",
"t  c #093b43",
"y  c #093c44",
"u  c #093c45",
"i  c #093d45",
"p  c #093e46",
"a  c #093e47",
"s  c #093f48",
"d  c #06434c",
"f  c #05444c",
"g  c #04444e",
"h  c #06444d",
"j  c #094048",
"k  c #094049",
"l  c #094149",
"z  c #09414a",
"x  c #0a424a",
"c  c #08434d",
"v  c #0a434c",
"b  c #0a444d",
"n  c #0a454e",
"m  c #0a454f",
"M  c #0a464f",
"N  c #034a55",
"B  c #034c57",
"V  c #024e59",
"C  c #034e59",
"Z  c #044e59",
"A  c #054f5a",
"S  c #084650",
"D  c #0a4650",
"F  c #0a4750",
"G  c #0b4852",
"H  c #0b4953",
"J  c #0a4a55",
"K  c #0b4a54",
"L  c #0b4b55",
"P  c #084c56",
"I  c #0b4c56",
"U  c #0b4c57",
"Y  c #084e59",
"T  c #0b4d58",
"R  c #0b4e59",
"E  c #0b4f59",
"W  c #03525d",
"Q  c #02525e",
"!  c #05535e",
"~  c #07525d",
"^  c #0a505b",
"/  c #0b535e",
"(  c #0a545f",
")  c #0c505a",
"_  c #0c505b",
"`  c #0c515c",
"'  c #0c525d",
"]  c #0c535e",
"[  c #0c535f",
"{  c #0c545f",
"}  c #025662",
"|  c #045561",
" . c #045763",
".. c #025864",
"X. c #035a67",
"o. c #045865",
"O. c #055966",
"+. c #045a67",
"@. c #035b68",
"#. c #065b68",
"$. c #055e6b",
"%. c #065c69",
"&. c #055f6c",
"*. c #055f6d",
"=. c #095560",
"-. c #095561",
";. c #085662",
":. c #0c5460",
">. c #0c5560",
",. c #0c5561",
"<. c #0c5661",
"1. c #0d5661",
"2. c #0d5662",
"3. c #0d5762",
"4. c #0d5763",
"5. c #0d5863",
"6. c #0d5864",
"7. c #0d5965",
"8. c #01606d",
"9. c #01606e",
"0. c #01616f",
"q. c #03606e",
"w. c #04616f",
"e. c #016270",
"r. c #016372",
"t. c #026573",
"y. c #006776",
"u. c #016776",
"i. c #026574",
"p. c #026674",
"a. c #026675",
"s. c #026776",
"d. c #016877",
"f. c #016979",
"g. c #016a79",
"h. c #016a7a",
"j. c #016b7a",
"k. c #006c7c",
"l. c #006d7d",
"z. c #006e7e",
"x. c #21776f",
"c. c #24786e",
"v. c #433105",
"b. c #523c06",
"n. c #624807",
"m. c #725308",
"M. c #3e8063",
"N. c #4b835d",
"B. c #5d8855",
"V. c #418061",
"C. c #856109",
"Z. c #956d0a",
"A. c #a4780b",
"S. c #8f973f",
"D. c #b4840c",
"F. c #ae9f31",
"G. c #b9a32c",
"H. c #819345",
"J. c #8d9640",
"K. c #c8920e",
"L. c #d79d0f",
"P. c #d9ac1e",
"I. c #dbac1d",
"U. c #c9a725",
"Y. c #e7a910",
"T. c #e3af1a",
"R. c #efb214",
"E. c #f6b411",
/* pixels */
"7.7.7.7.7.7.7.7.7.7.7.7.7.7.7.7.7.7.5.5.2.2.2.2.2.2.2.2.2.2.5.5.7.7.7.7.7.7.7.7.7.7.7.7.7.7.7.7.7.7.7.",
"7.7.7.7.7.7.7.7.7.7.7.7.7.7.7.5.2.2.2.2.2.2.{ { { { { { 2.2.2.2.2.2.5.7.7.7.7.7.7.7.7.7.7.7.7.7.7.7.7.",
"7.7.7.7.7.7.7.7.7.7.7.7.7.5.2.2.2.2.' ' ' ' _ _ _ _ _ _ ' ' ' ' 2.2.2.2.5.7.7.7.7.7.7.7.7.7.7.7.7.7.7.",
"7.7.7.7.7.7.7.7.7.7.7.5.2.2.2.' ' ' _ R R I I L L L L I I R R _ ' ' ' 2.2.2.5.7.7.7.7.7.7.7.7.7.7.7.7.",
"7.7.7.7.7.7.7.7.7.5.2.2.2.' ' _ ^ =.$.w.s.j.z.z.j.s.q.O.~ L H L I R _ ' ' 2.2.2.5.7.7.7.7.7.7.7.7.7.7.",
"7.7.7.7.7.7.7.7.5.2.2.{ ' _ =.$.s.z.z.z.z.z.z.z.z.z.z.z.z.s.O.R S H I R _ ' { 2.2.5.7.7.7.7.7.7.7.7.7.",
"7.7.7.7.7.7.7.5.2.2.' ' =.&.j.z.z.z.z.z.z.z.z.z.z.z.z.z.z.z.z.j.O.I S H I R ' ' 2.2.5.7.7.7.7.7.7.7.7.",
"7.7.7.7.7.7.2.2.2.' _ #.s.z.z.z.z.z.z.z.z.z.z.z.z.z.z.z.z.z.z.z.z.t.~ v S L R _ ' 2.2.2.7.7.7.7.7.7.7.",
"7.7.7.7.7.5.2.2.' / &.z.z.z.z.z.z.c.B.S.G.P.R.R.P.G.S.B.c.z.z.z.z.z.z.O.S n H I _ ' 2.2.5.7.7.7.7.7.7.",
"7.7.7.7.5.2.2.' ( w.z.z.z.z.z.M.J.P.E.E.E.E.E.E.E.E.E.E.P.J.M.z.z.z.z.z.@.S n H I _ ' 2.2.5.7.7.7.7.7.",
"7.7.7.5.2.2.' / w.z.z.z.z.x.H.T.E.E.E.E.E.E.E.E.E.E.E.E.E.E.T.H.x.z.z.z.z.X.v v H I _ ' 2.2.5.7.7.7.7.",
"7.7.7.2.2.' _ &.z.z.z.z.V.F.E.E.E.E.E.E.E.E.E.E.E.E.E.E.E.E.E.E.F.V.z.z.z.z. .a v H I _ ' 2.2.7.7.7.7.",
"7.7.5.2.{ ' #.z.z.z.z.N.U.E.E.E.E.E.E.E.E.E.E.E.E.E.E.E.E.E.E.E.E.U.N.z.z.z.z.A a n H R ' { 2.5.7.7.7.",
"7.7.2.2.' =.s.z.z.z.V.U.E.E.E.E.E.E.E.Y.C.b.v.m.A.E.E.E.E.E.E.E.E.E.U.V.z.z.z.r.h z n L R ' 2.2.7.7.7.",
"7.5.2.' _ &.z.z.z.x.F.E.E.E.E.E.E.E.C..           6 K.E.E.E.E.E.E.E.E.F.x.z.z.z. .w z S I _ ' 2.5.7.7.",
"7.2.2.' =.j.z.z.z.H.E.E.E.E.E.E.E.C.                . L.E.E.E.E.E.E.E.E.H.z.z.z.d.d a v H R ' 2.2.7.7.",
"5.2.' _ $.z.z.z.M.T.E.E.E.E.E.E.E.C.  . C.D.D.m.      v.E.E.E.E.E.E.E.E.T.M.z.z.z.W w z S I _ ' 2.5.7.",
"2.2.' ^ s.z.z.z.J.E.E.E.E.E.E.E.E.C.7 Y.E.E.E.E.Z.      L.E.E.E.E.E.E.E.E.J.z.z.z.r.w a v H R ' 2.2.7.",
"2.2.' =.z.z.z.c.P.E.E.E.E.E.E.E.E.Z.Y.E.E.E.E.E.E.7     A.E.E.E.E.E.E.E.E.P.c.z.z.z.f w z S I ' 2.2.7.",
"2.' _ $.z.z.z.B.E.E.E.E.E.E.E.E.E.E.E.E.E.E.E.E.E.C.    C.E.E.E.E.E.E.E.E.E.B.z.z.z.A 4 a n L _ ' 2.5.",
"2.' R w.z.z.z.S.E.E.E.E.E.E.E.E.E.E.E.E.E.E.E.E.E.C.    C.E.E.E.E.E.E.E.E.E.S.z.z.z.X.< t v H R ' 2.5.",
"2.' R s.z.z.z.G.E.E.E.E.E.E.E.E.E.E.E.E.E.E.E.E.E.n.    D.E.E.E.E.E.E.E.E.E.G.z.z.z.q.; w z H R ' 2.2.",
"2.' I j.z.z.z.P.E.E.E.E.E.E.E.E.E.E.E.E.E.E.E.E.E..   . Y.E.E.E.E.E.E.E.E.E.P.z.z.z.d.= w z S I ' 2.2.",
"{ _ I z.z.z.z.R.E.E.E.E.E.E.E.E.E.E.E.E.E.E.E.E.Z.    n.E.E.E.E.E.E.E.E.E.E.R.z.z.z.k.= 4 s n I _ { 2.",
"{ _ L z.z.z.z.R.E.E.E.E.E.E.E.E.E.E.E.E.E.E.E.Y.6     L.E.E.E.E.E.E.E.E.E.E.R.z.z.z.z.@ 4 a n L _ { 2.",
"{ _ L j.z.z.z.P.E.E.E.E.E.E.E.E.E.E.E.E.E.E.E.m.    C.E.E.E.E.E.E.E.E.E.E.E.P.z.z.z.s.@ 4 a n L _ { 2.",
"{ _ L s.z.z.z.G.E.E.E.E.E.E.E.E.E.E.E.E.E.E.D.    7 E.E.E.E.E.E.E.E.E.E.E.E.G.z.z.z.q.@ 4 a n L _ { 2.",
"{ _ L q.z.z.z.S.E.E.E.E.E.E.E.E.E.E.E.E.E.Y..   . K.E.E.E.E.E.E.E.E.E.E.E.E.S.z.z.z.} @ 4 a n L _ { 2.",
"{ _ I O.z.z.z.B.E.E.E.E.E.E.E.E.E.E.E.E.E.v.    Z.E.E.E.E.E.E.E.E.E.E.E.E.E.B.z.z.z.N = 4 s n I _ { 2.",
"2.' I ~ z.z.z.c.P.E.E.E.E.E.E.E.E.E.E.E.C.    n.E.E.E.E.E.E.E.E.E.E.E.E.E.P.c.z.z.z.9 = w z S I ' 2.2.",
"2.' R L s.z.z.z.J.E.E.E.E.E.E.E.E.E.E.A.    v.E.E.E.E.E.E.E.E.E.E.E.E.E.E.J.z.z.z.q.= ; w z H R ' 2.2.",
"2.' R H O.z.z.z.M.T.E.E.E.E.E.E.E.E.K..     7 v.v.v.v.v.v.v.E.E.E.E.E.E.T.M.z.z.z.B O < a v H R ' 2.5.",
"2.' _ L R j.z.z.z.H.E.E.E.E.E.E.E.Y.6                       E.E.E.E.E.E.H.z.z.z.s.8 = 4 a n L _ ' 2.5.",
"2.{ ' I S O.z.z.z.x.F.E.E.E.E.E.E.7                         E.E.E.E.E.F.x.z.z.z.V O ; w z n I ' 2.2.7.",
"2.2.' R H I t.z.z.z.V.U.E.E.E.E.E.E.E.E.E.E.E.E.E.E.E.E.E.E.E.E.E.E.U.V.z.z.z.q., @ 4 a v H R ' 2.2.7.",
"5.2.' _ I S ~ z.z.z.z.N.U.E.E.E.E.E.E.E.E.E.E.E.E.E.E.E.E.E.E.E.E.U.N.z.z.z.z.h O ; w z S I _ ' 2.5.7.",
"7.2.2.' R H v O.z.z.z.z.V.F.E.E.E.E.E.E.E.E.E.E.E.E.E.E.E.E.E.E.F.V.z.z.z.z.V X = 4 a v H R ' 2.2.7.7.",
"7.5.2.' _ I S S @.z.z.z.z.x.H.T.E.E.E.E.E.E.E.E.E.E.E.E.E.E.T.H.x.z.z.z.z.W = @ 4 w z S I _ ' 2.5.7.7.",
"7.7.2.2.' R L n S X.z.z.z.z.z.M.J.P.E.E.E.E.E.E.E.E.E.E.P.J.M.z.z.z.z.z.W ; @ < w z n L R ' 2.2.7.7.7.",
"7.7.5.2.{ ' R H n v  .z.z.z.z.z.z.c.B.S.G.P.R.R.P.G.S.B.c.z.z.z.z.z.z.V = @ ; 8 a n H R ' { 2.5.7.7.7.",
"7.7.7.2.2.' _ I H v a A r.z.z.z.z.z.z.z.z.z.z.z.z.z.z.z.z.z.z.z.z.q.h X @ < w a v H I _ ' 2.2.7.7.7.7.",
"7.7.7.5.2.2.' _ I H v a h  .d.z.z.z.z.z.z.z.z.z.z.z.z.z.z.z.z.s.V , O = 4 w a v H I _ ' 2.2.5.7.7.7.7.",
"7.7.7.7.5.2.2.' _ I H n z w d W q.z.z.z.z.z.z.z.z.z.z.z.z.q.B 8 O @ ; 4 w z n H I _ ' 2.2.5.7.7.7.7.7.",
"7.7.7.7.7.5.2.2.' _ I H n z a w w f A ..q.d.z.z.s.q.} N 9 = O = ; 4 w a z n H I _ ' 2.2.5.7.7.7.7.7.7.",
"7.7.7.7.7.7.2.2.2.' _ R L S v z a w 4 < ; = = @ @ @ @ = = ; < 4 w a z z S L R _ ' 2.2.2.7.7.7.7.7.7.7.",
"7.7.7.7.7.7.7.5.2.2.' ' R I H S v z a a w w 4 4 4 4 4 4 w w a a z v S H I R ' ' 2.2.5.7.7.7.7.7.7.7.7.",
"7.7.7.7.7.7.7.7.5.2.2.{ ' _ R I H S n v z z s a a a a s z z v n S H I R _ ' { 2.2.5.7.7.7.7.7.7.7.7.7.",
"7.7.7.7.7.7.7.7.7.5.2.2.2.' ' _ R I L H H S n n n n n n S H H L I R _ ' ' 2.2.2.5.7.7.7.7.7.7.7.7.7.7.",
"7.7.7.7.7.7.7.7.7.7.7.5.2.2.2.' ' ' _ R R I I L L L L I I R R _ ' ' ' 2.2.2.5.7.7.7.7.7.7.7.7.7.7.7.7.",
"7.7.7.7.7.7.7.7.7.7.7.7.7.5.2.2.2.2.' ' ' ' _ _ _ _ _ _ ' ' ' ' 2.2.2.2.5.7.7.7.7.7.7.7.7.7.7.7.7.7.7.",
"7.7.7.7.7.7.7.7.7.7.7.7.7.7.7.5.2.2.2.2.2.2.{ { { { { { 2.{ 2.2.2.2.5.7.7.7.7.7.7.7.7.7.7.7.7.7.7.7.7."
};
