/* XPM */
static char *step_one_top[] = {
/* columns rows colors chars-per-pixel */
"51 51 155 2",
"   c Gray0",
".  c #062b30",
"X  c #062c32",
"o  c #072d33",
"O  c #072e34",
"+  c #072e35",
"@  c #072f35",
"#  c #053037",
"$  c #063036",
"%  c #073036",
"&  c #073037",
"*  c #073137",
"=  c #053339",
"-  c #073239",
";  c #073339",
":  c #07333a",
">  c #05373e",
",  c #08343b",
"<  c #08353c",
"1  c #08363d",
"2  c #08363e",
"3  c #08373e",
"4  c #08373f",
"5  c #053841",
"6  c #043d46",
"7  c #083840",
"8  c #083940",
"9  c #083941",
"0  c #083a41",
"q  c #083a42",
"w  c #093b43",
"e  c #093c44",
"r  c #093c45",
"t  c #093d45",
"y  c #093e46",
"u  c #093e47",
"i  c #093f48",
"p  c #06434c",
"a  c #05444c",
"s  c #04444e",
"d  c #06444d",
"f  c #094048",
"g  c #094049",
"h  c #094149",
"j  c #09414a",
"k  c #0a424a",
"l  c #08434d",
"z  c #0a434c",
"x  c #0a444d",
"c  c #0a454e",
"v  c #0a454f",
"b  c #0a464f",
"n  c #034a55",
"m  c #034c57",
"M  c #024e59",
"N  c #034e59",
"B  c #044e59",
"V  c #054f5a",
"C  c #084650",
"Z  c #0a4650",
"A  c #0a4750",
"S  c #0b4852",
"D  c #0b4953",
"F  c #0a4a55",
"G  c #0b4a54",
"H  c #0b4b55",
"J  c #084c56",
"K  c #0b4c56",
"L  c #0b4c57",
"P  c #084e59",
"I  c #0b4d58",
"U  c #0b4e59",
"Y  c #0b4f59",
"T  c #03525d",
"R  c #02525e",
"E  c #05535e",
"W  c #07525d",
"Q  c #0a505b",
"!  c #0b535e",
"~  c #0a545f",
"^  c #0c505a",
"/  c #0c505b",
"(  c #0c515c",
")  c #0c525d",
"_  c #0c535e",
"`  c #0c535f",
"'  c #0c545f",
"]  c #025662",
"[  c #045561",
"{  c #045763",
"}  c #025864",
"|  c #035a67",
" . c #045865",
".. c #055966",
"X. c #045a67",
"o. c #035b68",
"O. c #065b68",
"+. c #055e6b",
"@. c #065c69",
"#. c #055f6c",
"$. c #055f6d",
"%. c #095560",
"&. c #095561",
"*. c #085662",
"=. c #0c5460",
"-. c #0c5560",
";. c #0c5561",
":. c #0c5661",
">. c #0d5661",
",. c #0d5662",
"<. c #0d5762",
"1. c #0d5763",
"2. c #0d5863",
"3. c #0d5864",
"4. c #0d5965",
"5. c #01606d",
"6. c #01606e",
"7. c #01616f",
"8. c #03606e",
"9. c #04616f",
"0. c #016270",
"q. c #016372",
"w. c #026573",
"e. c #006776",
"r. c #016776",
"t. c #026574",
"y. c #026674",
"u. c #026675",
"i. c #026776",
"p. c #016877",
"a. c #016979",
"s. c #016a79",
"d. c #016a7a",
"f. c #016b7a",
"g. c #006c7c",
"h. c #006d7d",
"j. c #006e7e",
"k. c #21776f",
"l. c #24786e",
"z. c #3e8063",
"x. c #4b835d",
"c. c #5d8855",
"v. c #418061",
"b. c #856109",
"n. c #8f973f",
"m. c #ae9f31",
"M. c #b9a32c",
"N. c #819345",
"B. c #8d9640",
"V. c #d9ac1e",
"C. c #dbac1d",
"Z. c #c9a725",
"A. c #e3af1a",
"S. c #efb214",
"D. c #f6b411",
/* pixels */
"4.4.4.4.4.4.4.4.4.4.4.4.4.4.4.4.4.4.2.2.,.,.,.,.,.,.,.,.,.,.2.2.4.4.4.4.4.4.4.4.4.4.4.4.4.4.4.4.4.4.4.",
"4.4.4.4.4.4.4.4.4.4.4.4.4.4.4.2.,.,.,.,.,.,.' ' ' ' ' ' ,.,.,.,.,.,.2.4.4.4.4.4.4.4.4.4.4.4.4.4.4.4.4.",
"4.4.4.4.4.4.4.4.4.4.4.4.4.2.,.,.,.,.) ) ) ) / / / / / / ) ) ) ) ,.,.,.,.2.4.4.4.4.4.4.4.4.4.4.4.4.4.4.",
"4.4.4.4.4.4.4.4.4.4.4.2.,.,.,.) ) ) / U U K K H H H H K K U U / ) ) ) ,.,.,.2.4.4.4.4.4.4.4.4.4.4.4.4.",
"4.4.4.4.4.4.4.4.4.2.,.,.,.) ) / Q %.+.9.i.f.j.j.f.i.8...W H D H K U / ) ) ,.,.,.2.4.4.4.4.4.4.4.4.4.4.",
"4.4.4.4.4.4.4.4.2.,.,.' ) / %.+.i.j.j.j.j.j.j.j.j.j.j.j.j.i...U C D K U / ) ' ,.,.2.4.4.4.4.4.4.4.4.4.",
"4.4.4.4.4.4.4.2.,.,.) ) %.#.f.j.j.j.j.j.j.j.j.j.j.j.j.j.j.j.j.f...K C D K U ) ) ,.,.2.4.4.4.4.4.4.4.4.",
"4.4.4.4.4.4.,.,.,.) / O.i.j.j.j.j.j.j.j.j.j.j.j.j.j.j.j.j.j.j.j.j.w.W z C H U / ) ,.,.,.4.4.4.4.4.4.4.",
"4.4.4.4.4.2.,.,.) ! #.j.j.j.j.j.j.l.c.n.M.V.S.S.V.M.n.c.l.j.j.j.j.j.j...C c D K / ) ,.,.2.4.4.4.4.4.4.",
"4.4.4.4.2.,.,.) ~ 9.j.j.j.j.j.z.B.V.D.D.D.D.D.D.D.D.D.D.V.B.z.j.j.j.j.j.o.C c D K / ) ,.,.2.4.4.4.4.4.",
"4.4.4.2.,.,.) ! 9.j.j.j.j.k.N.A.D.D.D.D.D.D.D.D.D.D.D.D.D.D.A.N.k.j.j.j.j.| z z D K / ) ,.,.2.4.4.4.4.",
"4.4.4.,.,.) / #.j.j.j.j.v.m.D.D.D.D.D.D.D.D.D.D.D.D.D.D.D.D.D.D.m.v.j.j.j.j.{ u z D K / ) ,.,.4.4.4.4.",
"4.4.2.,.' ) O.j.j.j.j.x.Z.D.D.D.D.D.D.D.D.D.D.D.D.D.D.D.D.D.D.D.D.Z.x.j.j.j.j.V u c D U ) ' ,.2.4.4.4.",
"4.4.,.,.) %.i.j.j.j.v.Z.D.D.D.D.D.D.D.D.D.D.b.b.b.D.D.D.D.D.D.D.D.D.Z.v.j.j.j.q.d j c H U ) ,.,.4.4.4.",
"4.2.,.) / #.j.j.j.k.m.D.D.D.D.D.D.D.D.D.D.D.      D.D.D.D.D.D.D.D.D.D.m.k.j.j.j.{ 9 j C K / ) ,.2.4.4.",
"4.,.,.) %.f.j.j.j.N.D.D.D.D.D.D.D.D.D.D.D.D.      D.D.D.D.D.D.D.D.D.D.D.N.j.j.j.p.p u z D U ) ,.,.4.4.",
"2.,.) / +.j.j.j.z.A.D.D.D.D.D.D.D.D.D.D.D.D.      D.D.D.D.D.D.D.D.D.D.D.A.z.j.j.j.T 9 j C K / ) ,.2.4.",
",.,.) Q i.j.j.j.B.D.D.D.D.D.D.D.D.D.D.D.D.D.      D.D.D.D.D.D.D.D.D.D.D.D.B.j.j.j.q.9 u z D U ) ,.,.4.",
",.,.) %.j.j.j.l.V.D.D.D.D.D.D.D.D.D.D.D.D.D.      D.D.D.D.D.D.D.D.D.D.D.D.V.l.j.j.j.a 9 j C K ) ,.,.4.",
",.) / +.j.j.j.c.D.D.D.D.D.D.D.D.D.D.D.D.D.D.      D.D.D.D.D.D.D.D.D.D.D.D.D.c.j.j.j.V 3 u c H / ) ,.2.",
",.) U 9.j.j.j.n.D.D.D.D.D.D.D.D.D.D.D.D.D.D.      D.D.D.D.D.D.D.D.D.D.D.D.D.n.j.j.j.| , w z D U ) ,.2.",
",.) U i.j.j.j.M.D.D.D.D.D.D.D.D.D.D.D.D.D.D.      D.D.D.D.D.D.D.D.D.D.D.D.D.M.j.j.j.8.- 9 j D U ) ,.,.",
",.) K f.j.j.j.V.D.D.D.D.D.D.D.D.D.D.D.D.D.D.      D.D.D.D.D.D.D.D.D.D.D.D.D.V.j.j.j.p.* 9 j C K ) ,.,.",
"' / K j.j.j.j.S.D.D.D.D.D.D.D.D.D.D.D.D.D.D.      D.D.D.D.D.D.D.D.D.D.D.D.D.S.j.j.j.g.* 3 i c K / ' ,.",
"' / H j.j.j.j.S.D.D.D.D.D.D.D.D.D.D.D.D.D.D.      D.D.D.D.D.D.D.D.D.D.D.D.D.S.j.j.j.j.+ 3 u c H / ' ,.",
"' / H f.j.j.j.V.D.D.D.D.D.D.D.D.D.D.D.D.D.D.      D.D.D.D.D.D.D.D.D.D.D.D.D.V.j.j.j.i.+ 3 u c H / ' ,.",
"' / H i.j.j.j.M.D.D.D.D.D.D.D.D.D.D.D.D.D.D.      D.D.D.D.D.D.D.D.D.D.D.D.D.M.j.j.j.8.+ 3 u c H / ' ,.",
"' / H 8.j.j.j.n.D.D.D.D.D.D.D.D.D.D.D.D.D.D.      D.D.D.D.D.D.D.D.D.D.D.D.D.n.j.j.j.] + 3 u c H / ' ,.",
"' / K ..j.j.j.c.D.D.D.D.D.D.D.D.D.D.D.D.D.D.      D.D.D.D.D.D.D.D.D.D.D.D.D.c.j.j.j.n * 3 i c K / ' ,.",
",.) K W j.j.j.l.V.D.D.D.D.D.D.D.D.D.D.D.D.D.      D.D.D.D.D.D.D.D.D.D.D.D.V.l.j.j.j.6 * 9 j C K ) ,.,.",
",.) U H i.j.j.j.B.D.D.D.D.D.D.D.D.D.D.D.D.D.      D.D.D.D.D.D.D.D.D.D.D.D.B.j.j.j.8.* - 9 j D U ) ,.,.",
",.) U D ..j.j.j.z.A.D.D.D.D.D.D.D.D.D.D.D.D.      D.D.D.D.D.D.D.D.D.D.D.A.z.j.j.j.m o , u z D U ) ,.2.",
",.) / H U f.j.j.j.N.D.D.D.D.D.D.D.D.D.D.D.D.      D.D.D.D.D.D.D.D.D.D.D.N.j.j.j.i.5 * 3 u c H / ) ,.2.",
",.' ) K C ..j.j.j.k.m.D.D.D.D.D.D.D.D.D.D.D.      D.D.D.D.D.D.D.D.D.D.m.k.j.j.j.M o - 9 j c K ) ,.,.4.",
",.,.) U D K w.j.j.j.v.Z.D.D.D.D.D.D.D.D.D.D.D.D.D.D.D.D.D.D.D.D.D.D.Z.v.j.j.j.8.> + 3 u z D U ) ,.,.4.",
"2.,.) / K C W j.j.j.j.x.Z.D.D.D.D.D.D.D.D.D.D.D.D.D.D.D.D.D.D.D.D.Z.x.j.j.j.j.d o - 9 j C K / ) ,.2.4.",
"4.,.,.) U D z ..j.j.j.j.v.m.D.D.D.D.D.D.D.D.D.D.D.D.D.D.D.D.D.D.m.v.j.j.j.j.M . * 3 u z D U ) ,.,.4.4.",
"4.2.,.) / K C C o.j.j.j.j.k.N.A.D.D.D.D.D.D.D.D.D.D.D.D.D.D.A.N.k.j.j.j.j.T * + 3 9 j C K / ) ,.2.4.4.",
"4.4.,.,.) U H c C | j.j.j.j.j.z.B.V.D.D.D.D.D.D.D.D.D.D.V.B.z.j.j.j.j.j.T - + , 9 j c H U ) ,.,.4.4.4.",
"4.4.2.,.' ) U D c z { j.j.j.j.j.j.l.c.n.M.V.S.S.V.M.n.c.l.j.j.j.j.j.j.M * + - 5 u c D U ) ' ,.2.4.4.4.",
"4.4.4.,.,.) / K D z u V q.j.j.j.j.j.j.j.j.j.j.j.j.j.j.j.j.j.j.j.j.8.d . + , 9 u z D K / ) ,.,.4.4.4.4.",
"4.4.4.2.,.,.) / K D z u d { p.j.j.j.j.j.j.j.j.j.j.j.j.j.j.j.j.i.M > o * 3 9 u z D K / ) ,.,.2.4.4.4.4.",
"4.4.4.4.2.,.,.) / K D c j 9 p T 8.j.j.j.j.j.j.j.j.j.j.j.j.8.m 5 o + - 3 9 j c D K / ) ,.,.2.4.4.4.4.4.",
"4.4.4.4.4.2.,.,.) / K D c j u 9 9 a V } 8.p.j.j.i.8.] n 6 * o * - 3 9 u j c D K / ) ,.,.2.4.4.4.4.4.4.",
"4.4.4.4.4.4.,.,.,.) / U H C z j u 9 3 , - * * + + + + * * - , 3 9 u j j C H U / ) ,.,.,.4.4.4.4.4.4.4.",
"4.4.4.4.4.4.4.2.,.,.) ) U K D C z j u u 9 9 3 3 3 3 3 3 9 9 u u j z C D K U ) ) ,.,.2.4.4.4.4.4.4.4.4.",
"4.4.4.4.4.4.4.4.2.,.,.' ) / U K D C c z j j i u u u u i j j z c C D K U / ) ' ,.,.2.4.4.4.4.4.4.4.4.4.",
"4.4.4.4.4.4.4.4.4.2.,.,.,.) ) / U K H D D C c c c c c c C D D H K U / ) ) ,.,.,.2.4.4.4.4.4.4.4.4.4.4.",
"4.4.4.4.4.4.4.4.4.4.4.2.,.,.,.) ) ) / U U K K H H H H K K U U / ) ) ) ,.,.,.2.4.4.4.4.4.4.4.4.4.4.4.4.",
"4.4.4.4.4.4.4.4.4.4.4.4.4.2.,.,.,.,.) ) ) ) / / / / / / ) ) ) ) ,.,.,.,.2.4.4.4.4.4.4.4.4.4.4.4.4.4.4.",
"4.4.4.4.4.4.4.4.4.4.4.4.4.4.4.2.,.,.,.,.,.,.' ' ' ' ' ' ,.' ,.,.,.,.2.4.4.4.4.4.4.4.4.4.4.4.4.4.4.4.4."
};
