<svg width="66" height="51">
 <!-- green folder.eps converted by ill2svg.pl -->
 <defs>
  <linearGradient id="New_Gradient_Swatch_7__1"
        x1="33.666" y1="51.935" x2="42.561" y2="1.493"
        >
   <stop offset="8.4245%" style="stop-color:#99cc99"/>
    <stop offset="8.4295%" style="stop-color:#99cc99"/>
    <stop offset="16.8539%" style="stop-color:#99cc99"/>
    <stop offset="98.3146%" style="stop-color:#ccffcc"/>
  </linearGradient>
  <linearGradient id="New_Gradient_Swatch_7__2"
        x1="28.831" y1="51.029" x2="35.992" y2="10.414"
        >
   <stop offset="8.4245%" style="stop-color:#99cc99"/>
    <stop offset="8.4295%" style="stop-color:#99cc99"/>
    <stop offset="16.8539%" style="stop-color:#99cc99"/>
    <stop offset="98.3146%" style="stop-color:#ccffcc"/>
  </linearGradient>
 </defs>
 <g> <!-- Layer: Layer 1 -->
   <!-- 0 1 1 1 8.8944 50.4425 63.121 -11.1299 269.1055 385.6299 Xm -->
   <!-- 1430.4243 8112.3423 63.121 -11.1299 -1160.5693 -7722.4609 Bc -->
   <!-- 0 0 63.121 -11.1299 269.855 389.8809 Bm -->
   <!-- 0.7495 4.2507 63.121 -11.1299 269.855 389.8809 Bm -->
   <!-- 7.2454 41.0908 63.121 -11.1299 270.6045 394.1318 Bm -->
   <!-- 1430.4243 8112.3423 63.121 -11.1299 277.8501 435.2227 Bc -->
  <g style="fill: url(#New_Gradient_Swatch_7__1); stroke: #000000; stroke-width: 1.2904; stroke-linecap: round; stroke-miterlimit: 4">
   <path d="M17.109 6.625C17.109 6.625 17.993 6.692 18.994 5.916C19.832 5.265 20.918 1.891 22.008 1.615C22.537 1.481 28.666 1.823 28.666 1.823C28.666 1.823 33.593 2.035 34.571 2.164C35.661 2.307 36.112 4.84 36.33 5.999C36.481 6.801 37.209 8.231 38.967 8.424L42.359 8.705C52.41 9.571 53.666 9.475 63.549 10.371C63.549 10.371 64.553 10.528 64.721 11.922C64.795 12.545 64.469 50.282 64.469 50.282L10.954 45.899L10.954 7.71C10.954 7.71 11.456 6.24 12.837 6.31C13 6.318 12.779 6.281 15.727 6.491L17.109 6.625z"/>
   <!-- 2 7.1615 40.6147 71.187 -12.5522 260.2373 387.2471 Xm -->
   <!-- 1429.5845 8107.5806 71.187 -12.5522 -1168.7437 -7716.9102 Bc -->
   <!-- 0 0 71.187 -12.5522 260.8408 390.6699 Bm -->
   <!-- 0.6035 3.4226 71.187 -12.5522 260.8408 390.6699 Bm -->
   <!-- 5.8338 33.085 71.187 -12.5522 261.4443 394.0918 Bm -->
   <!-- 1429.5845 8107.5806 71.187 -12.5522 267.2783 427.1772 Bc -->
  </g>
  <g style="fill: url(#New_Gradient_Swatch_7__2); stroke: #000000; stroke-width: 1.2904; stroke-linecap: round; stroke-miterlimit: 4">
   <path d="M0.87 17.643L10.866 45.831L63.65 50.173C53.375 20.399 53.805 20.288 51.912 16.375C51.315 15.147 50.299 14.998 50.299 14.998C40.527 14.12 39.352 14.194 29.422 13.34L27.697 13.228C25.442 13.205 24.83 15.095 24.358 15.797C23.788 16.643 23.409 17.394 22.359 17.502C21.414 17.601 15.814 17.254 15.814 17.254C15.814 17.254 3.699 16.347 2.984 16.365C2.984 16.365 0.322 16.092 0.87 17.643z"/>
   <!-- 2 /BBAccumRotation -->
   <!-- (-0.274327) XT -->
  </g>
 </g>
</svg>
