<svg width="58" height="50">
 <!-- green closed folder.eps converted by ill2svg.pl -->
 <defs>
  <linearGradient id="New_Gradient_Swatch_6__1"
        x1="-8130.168" y1="-8086.947" x2="-8130.168" y2="-8086.947"
        >
   <stop offset="8.427%" style="stop-color:#99cc99"/>
    <stop offset="16.8539%" style="stop-color:#99cc99"/>
    <stop offset="65.7303%" style="stop-color:#ccffcc"/>
    <stop offset="98.3146%" style="stop-color:#99cc99"/>
  </linearGradient>
  <linearGradient id="New_Gradient_Swatch_6__2"
        x1="-8130.168" y1="-8086.947" x2="-8130.168" y2="-8086.947"
        >
   <stop offset="8.427%" style="stop-color:#99cc99"/>
    <stop offset="16.8539%" style="stop-color:#99cc99"/>
    <stop offset="65.7303%" style="stop-color:#ccffcc"/>
    <stop offset="98.3146%" style="stop-color:#99cc99"/>
  </linearGradient>
  <linearGradient id="New_Gradient_Swatch_6__3"
        x1="-8130.168" y1="-8086.947" x2="-8130.168" y2="-8086.947"
        >
   <stop offset="8.427%" style="stop-color:#99cc99"/>
    <stop offset="16.8539%" style="stop-color:#99cc99"/>
    <stop offset="65.7303%" style="stop-color:#ccffcc"/>
    <stop offset="98.3146%" style="stop-color:#99cc99"/>
  </linearGradient>
  <linearGradient id="New_Gradient_Swatch_6__4"
        x1="-8130.168" y1="-8086.947" x2="-8130.168" y2="-8086.947"
        >
   <stop offset="8.427%" style="stop-color:#99cc99"/>
    <stop offset="16.8539%" style="stop-color:#99cc99"/>
    <stop offset="65.7303%" style="stop-color:#ccffcc"/>
    <stop offset="98.3146%" style="stop-color:#99cc99"/>
  </linearGradient>
  <linearGradient id="New_Gradient_Swatch_6__5"
        x1="-8130.168" y1="-8086.947" x2="-8130.168" y2="-8086.947"
        >
   <stop offset="8.427%" style="stop-color:#99cc99"/>
    <stop offset="16.8539%" style="stop-color:#99cc99"/>
    <stop offset="65.7303%" style="stop-color:#ccffcc"/>
    <stop offset="98.3146%" style="stop-color:#99cc99"/>
  </linearGradient>
  <linearGradient id="New_Gradient_Swatch_7__1"
        x1="26.431" y1="50.816" x2="35.284" y2="0.604"
        >
   <stop offset="8.4245%" style="stop-color:#99cc99"/>
    <stop offset="8.4295%" style="stop-color:#99cc99"/>
    <stop offset="16.8539%" style="stop-color:#99cc99"/>
    <stop offset="98.3146%" style="stop-color:#ccffcc"/>
  </linearGradient>
  <linearGradient id="New_Gradient_Swatch_7__2"
        x1="25.636" y1="50.754" x2="33.853" y2="4.153"
        >
   <stop offset="8.4245%" style="stop-color:#99cc99"/>
    <stop offset="8.4295%" style="stop-color:#99cc99"/>
    <stop offset="16.8539%" style="stop-color:#99cc99"/>
    <stop offset="98.3146%" style="stop-color:#ccffcc"/>
  </linearGradient>
 </defs>
 <g> <!-- Layer: Layer 1 -->
   <!-- 0 1 1 1 1 0 0 -1 -7885 8587 Xm -->
   <!-- 1 0 0 -1 -7885 8587 Bc -->
   <!-- 0.0843 0 0 -1 -7884.9155 8587 Bm -->
   <!-- 0.4888 0 0 -1 -7884.8315 8587 Bm -->
   <!-- 0.3258 0 0 -1 -7884.3428 8587 Bm -->
   <!-- 1 0 0 -1 -7885 8587 Bc -->
  <g style="fill: url(#New_Gradient_Swatch_6__1); stroke: #000000; stroke-width: 1.2904; stroke-linecap: round; stroke-miterlimit: 4">
   <path d="M28.377 6.575"/>
   <!-- 1 1 0 0 -1 -7885 8587 Xm -->
   <!-- 1 0 0 -1 -7885 8587 Bc -->
   <!-- 0.0843 0 0 -1 -7884.9155 8587 Bm -->
   <!-- 0.4888 0 0 -1 -7884.8315 8587 Bm -->
   <!-- 0.3258 0 0 -1 -7884.3428 8587 Bm -->
   <!-- 1 0 0 -1 -7885 8587 Bc -->
  </g>
  <g style="fill: url(#New_Gradient_Swatch_6__2); stroke: #000000; stroke-width: 1.2904; stroke-linecap: round; stroke-miterlimit: 4">
   <path d="M10.675 5.257"/>
   <!-- 1 8.8538 50.2122 62.8277 -11.0782 265.0166 385.7227 Xm -->
   <!-- 1416.5516 8033.667 62.8277 -11.0782 -1150.7891 -7643.7129 Bc -->
   <!-- 0 0 62.8277 -11.0782 265.7627 389.9541 Bm -->
   <!-- 0.7461 4.2313 62.8277 -11.0782 265.7627 389.9541 Bm -->
   <!-- 7.2123 40.9032 62.8277 -11.0782 266.5088 394.1855 Bm -->
   <!-- 1416.5516 8033.667 62.8277 -11.0782 273.7212 435.0889 Bc -->
  </g>
  <g style="fill: url(#New_Gradient_Swatch_7__1); stroke: #000000; stroke-width: 1.2904; stroke-linecap: round; stroke-miterlimit: 4">
   <path d="M9.957 5.72C9.957 5.72 10.835 5.788 11.832 5.015C12.666 4.368 13.748 1.01 14.832 0.736C15.357 0.603 21.457 0.942 21.457 0.942C21.457 0.942 26.359 1.154 27.332 1.282C28.416 1.424 28.865 3.945 29.082 5.098C29.232 5.895 29.957 7.319 31.707 7.51L35.082 7.79C45.082 8.652 46.332 8.556 56.166 9.447C56.166 9.447 57.164 9.604 57.332 10.992C57.406 11.611 57.082 49.16 57.082 49.16L3.832 44.801L3.832 6.8C3.832 6.8 4.332 5.337 5.707 5.407C5.869 5.416 5.648 5.378 8.582 5.588L9.957 5.72z"/>
   <!-- 2 8.2172 46.6019 64.2933 -11.3366 263.4897 385.9141 Xm -->
   <!-- 1416.4136 8032.8843 64.2933 -11.3366 -1152.2314 -7643.043 Bc -->
   <!-- 0 0 64.2933 -11.3366 264.1821 389.8408 Bm -->
   <!-- 0.6925 3.9271 64.2933 -11.3366 264.1821 389.8408 Bm -->
   <!-- 6.6938 37.9622 64.2933 -11.3366 264.8745 393.7686 Bm -->
   <!-- 1416.4136 8032.8843 64.2933 -11.3366 271.5684 431.73 Bc -->
  </g>
  <g style="fill: url(#New_Gradient_Swatch_7__2); stroke: #000000; stroke-width: 1.2904; stroke-linecap: round; stroke-miterlimit: 4">
   <path d="M1.537 13.19L3.107 44.75L57.033 49.158C57.033 49.158 55.51 11.93 55.404 11.316C55.166 9.941 54.15 9.783 54.15 9.783C44.19 8.883 42.934 8.976 32.803 8.106L31.033 7.997C28.679 7.988 27.439 10.118 26.722 10.909C25.858 11.864 25.224 12.71 24.088 12.842C23.071 12.959 17.31 12.623 17.31 12.623C17.31 12.623 4.91 11.709 4.154 11.736C4.154 11.736 1.451 11.454 1.537 13.19z"/>
   <!-- 2 /BBAccumRotation -->
   <!-- (-0.003099) XT -->
   <!-- 1 0 0 -1 -7885 8587 Xm -->
   <!-- 1 0 0 -1 -7885 8587 Bc -->
   <!-- 0.0843 0 0 -1 -7884.9155 8587 Bm -->
   <!-- 0.4888 0 0 -1 -7884.8315 8587 Bm -->
   <!-- 0.3258 0 0 -1 -7884.3428 8587 Bm -->
   <!-- 1 0 0 -1 -7885 8587 Bc -->
  </g>
  <g style="fill: url(#New_Gradient_Swatch_6__3); stroke: #000000; stroke-width: 1.2904; stroke-linecap: round; stroke-miterlimit: 4">
   <path d="M57.248 11.298"/>
   <!-- 1 1 0 0 -1 -7885 8587 Xm -->
   <!-- 1 0 0 -1 -7885 8587 Bc -->
   <!-- 0.0843 0 0 -1 -7884.9155 8587 Bm -->
   <!-- 0.4888 0 0 -1 -7884.8315 8587 Bm -->
   <!-- 0.3258 0 0 -1 -7884.3428 8587 Bm -->
   <!-- 1 0 0 -1 -7885 8587 Bc -->
  </g>
  <g style="fill: url(#New_Gradient_Swatch_6__4); stroke: #000000; stroke-width: 1.2904; stroke-linecap: round; stroke-miterlimit: 4">
   <path d="M5.498 7.089"/>
   <!-- 1 1 0 0 -1 -7885 8587 Xm -->
   <!-- 1 0 0 -1 -7885 8587 Bc -->
   <!-- 0.0843 0 0 -1 -7884.9155 8587 Bm -->
   <!-- 0.4888 0 0 -1 -7884.8315 8587 Bm -->
   <!-- 0.3258 0 0 -1 -7884.3428 8587 Bm -->
   <!-- 1 0 0 -1 -7885 8587 Bc -->
  </g>
  <g style="fill: url(#New_Gradient_Swatch_6__5); stroke: #000000; stroke-width: 1.2904; stroke-linecap: round; stroke-miterlimit: 4">
   <path d="M55.373 10.629"/>
  </g>
 </g>
</svg>
