<svg width="72" height="56">
 <!-- openfolder62000a.eps converted by ill2svg.pl -->
 <defs>
  <linearGradient id="folder__1"
        x1="766.248" y1="756.629" x2="754.477" y2="777.017"
        >
   <stop offset="0%" style="stop-color:#f2cc0c"/>
    <stop offset="100%" style="stop-color:#ffffff"/>
  </linearGradient>
  <linearGradient id="folder__2"
        x1="772.435" y1="781.195" x2="772.435" y2="740.709"
        >
   <stop offset="0%" style="stop-color:#f2cc0c"/>
    <stop offset="100%" style="stop-color:#ffffff"/>
  </linearGradient>
  <linearGradient id="paper2__1"
        x1="-5846.263" y1="-5392.986" x2="-5846.263" y2="-5392.986"
        >
   <stop offset="0%" style="stop-color:#ffffff"/>
    <stop offset="53%" style="stop-color:#c6c6c6"/>
    <stop offset="100%" style="stop-color:#ffffff"/>
  </linearGradient>
 </defs>
 <g> <!-- Layer: Layer 1 -->
  <g style="fill: #000000; stroke: #000000; stroke-width: 0.81; stroke-linejoin: round; stroke-miterlimit: 1">
   <path d="M1.25 8C1.25 8 8.737 16.312 10.138 26.091C11.561 36.034 11.125 36.981 11.125 37.125C11.125 37.272 45.542 54.51 46.509 55.024C46.509 55.024 46.804 46.018 47.821 41.027C49.425 33.154 51.346 30.757 53.372 28.319C55.084 26.257 58.75 23.75 61.375 23.375C61.375 23.375 47.997 16.525 47.043 16.102C46.387 15.81 49.089 13.748 50.064 12.929C50.623 12.461 38.733 7 37.711 6.853C37.321 6.798 33.248 10.065 33.387 9.827C33.485 9.659 24.056 5.161 24.056 5.161C23.125 5.625 17.375 6.875 14.086 13.807C14.104 13.769 -0.023 7.473 1.25 8"/>
   <!-- 0 1 1 1 1 0 0 -1 -7885.5 8587.5 Xm -->
   <!-- 1 0 0 -1 -7885.5 8587.5 Bc -->
   <!-- 0.53 0 0 -1 -7885.5 8587.5 Bm -->
   <!-- 0.47 0 0 -1 -7884.9702 8587.5 Bm -->
   <!-- 1 0 0 -1 -7885.5 8587.5 Bc -->
  </g>
  <g style="fill: url(#paper2__1)">
   <path d="M3.425 9.973"/>
   <!-- 0 -11.7709 -20.3882 -54.1863 31.2837 224.1538 393.6621 Xm -->
   <!-- -3299.7588 -5715.4878 -54.1863 31.2837 3523.9121 6109.1499 Bc -->
   <!-- -11.7709 -20.3882 -54.1863 31.2837 224.1538 393.6621 Bm -->
   <!-- -3299.7588 -5715.4878 -54.1863 31.2837 212.3828 373.2734 Bc -->
  </g>
  <g style="fill: url(#folder__1)"; stroke: #000000; stroke-width: 0.81; stroke-miterlimit: 4">
   <path d="M4.125 10.25C2.607 8.919 12.25 17.008 12.25 36.5C12.25 37.083 45.375 53.5 45.375 53.5C45.375 53.5 44.883 35.928 41.5 29.5C40.309 27.237 35.713 25.402 34 24.5C29.25 22 4.125 10.25 4.125 10.25z"/>
   <!-- 0 0 40.4852 47.5124 0 180.6304 384.3906 Xm -->
   <!-- -0.0003 6606.7002 47.5124 0 180.6309 -6222.3096 Bc -->
   <!-- 0 40.4852 47.5124 0 180.6304 384.3906 Bm -->
   <!-- -0.0003 6606.7002 47.5124 0 180.6304 424.876 Bc -->
  </g>
  <g style="fill: url(#folder__2)">
   <path d="M17.191 14.81C17.191 14.81 34.348 23.049 35 23.375C37.5 24.625 39.5 25.625 41.375 27C44.621 29.38 45.171 36.753 46.25 44.25C46.534 46.221 46.282 37.353 50 31.375C52.841 26.807 55.375 25 59 23.125C59.523 22.854 24.021 6.291 23.875 6C23.875 6 17.583 7.627 15.25 13.75"/>
  </g>
  <g style="fill: #0072ba">
   <path d="M35.077 9.817C35.498 10.098 46.032 14.943 46.243 15.084C46.453 15.225 48.478 12.845 48.684 12.696C48.876 12.556 38.711 7.71 38.29 7.64C37.868 7.569 35.077 9.817 35.077 9.817z"/>
  </g>
  <g style="fill:none; stroke: #5ed8ff; stroke-width: 0.81; stroke-linecap: round; stroke-miterlimit: 4">
   <path d="M36.024 9.824C36.024 9.824 37.644 8.542 38.117 8.609C38.589 8.676 46.529 12.42 47.026 12.794"/>
  </g>
 </g>
</svg>
