<svg width="153" height="127">
 <!-- Aopenfolder.eps converted by ill2svg.pl -->
 <defs>
  <linearGradient id="folder__1"
        x1="74.945" y1="40.525" x2="45.881" y2="90.867"
        >
   <stop offset="0%" style="stop-color:#f2cc0c"/>
   <stop offset="100%" style="stop-color:#ffffff"/>
  </linearGradient>
  <linearGradient id="folder__2"
        x1="90.531" y1="101.184" x2="90.531" y2="1.22"
        >
   <stop offset="0%" style="stop-color:#f2cc0c"/>
   <stop offset="100%" style="stop-color:#ffffff"/>
  </linearGradient>
  <linearGradient id="paper2__1"
        x1="-12845.013" y1="-11736.48" x2="-12845.013" y2="-11736.48"
        >
   <stop offset="0%" style="stop-color:#ffffff"/>
   <stop offset="53%" style="stop-color:#c6c6c6"/>
   <stop offset="100%" style="stop-color:#ffffff"/>
  </linearGradient>
 </defs>
 <g> <!-- Layer: Layer 1 -->
  <g style="fill: #000000; stroke: #000000; stroke-width: 2; stroke-miterlimit: 4">
   <path d="M1.341 8.28C1.341 8.28 21.118 29.151 24.576 53.3C28.091 77.85 26.076 79.69 26.076 80.05C26.076 80.41 111.992 123.467 114.38 124.74C114.38 124.74 115.111 102.501 117.62 90.18C121.58 70.74 126.324 64.82 131.326 58.8C135.555 53.709 147.527 48.617 151.1 47.7C152.659 47.3 118.056 29.68 115.701 28.633C114.081 27.913 120.753 22.82 123.159 20.8C124.538 19.643 95.179 6.16 92.659 5.8C91.695 5.662 82.326 12.55 81.981 13.14C81.326 14.261 60.381 1.98 58.941 1.62C57.501 1.26 41.326 4.967 34.326 22.967C34.731 21.925 1.341 8.28 1.341 8.28"/>
   <!-- 0 1 0 0 -1 -4014 4716 Bc -->
   <!-- 0.53 0 0 -1 -4014 4716 Bm -->
   <!-- 0.47 0 0 -1 -4013.47 4716 Bm -->
   <!-- 1 0 0 -1 -4014 4716 Bc -->
  </g>
  <g style="fill: url(#paper2__1)">
   <path d="M8.001 13.5"/>
   <!-- 0 -12063.8165 -20895.5197 -129.5781 74.8106 12379.965 21286.9274 Bc -->
   <!-- -29.064 -50.3412 -129.5781 74.8106 316.1485 391.4076 Bm -->
   <!-- -12063.8165 -20895.5197 -129.5781 74.8106 287.0845 341.0665 Bc -->
  </g>
  <g style="fill: url(#folder__1); stroke: #000000; stroke-width: 2; stroke-miterlimit: 4">
   <path d="M8.001 13.5C8.001 13.5 30.668 30.167 30.334 77.167C30.324 78.607 110.334 119.5 110.334 119.5C110.334 119.5 109.438 80.038 101.084 64.167C97.751 57.833 88.099 53.031 84.769 51.207C72.834 44.667 8.001 13.5 8.001 13.5"/>
   <!-- 2 0 24127.9999 112.1479 0 211.4924 -23760.1835 Bc -->
   <!-- 0 99.9634 112.1479 0 211.4924 367.8163 Bm -->
   <!-- 0 24127.9999 112.1479 0 211.4924 467.7797 Bc -->
  </g>
  <g style="fill: url(#folder__2)">
   <path d="M41.992 25.133C41.992 25.133 87.136 47.22 88.576 48.3C90.016 49.38 96.654 52.892 98.492 54.3C110.576 63.55 109.576 72.55 113.659 90.8C114.762 95.731 112.58 78.84 121.76 64.08C128.774 52.802 133.552 50.553 141.38 46.08C142.64 45.36 58.941 5.94 58.581 5.22C58.581 5.22 44.252 8.013 38.492 23.133"/>
  </g>
  <g style="fill: #0072ba">
   <path d="M86.034 13.633C87.034 14.3 112.034 25.8 112.534 26.133C113.034 26.466 117.839 20.82 118.326 20.467C118.784 20.133 94.659 8.633 93.659 8.467C92.659 8.3 86.034 13.633 86.034 13.633z"/>
  </g>
  <g style="fill:none; stroke: #5ed8ff; stroke-width: 2; stroke-linecap: round; stroke-miterlimit: 4">
   <path d="M88.492 13.133C88.492 13.133 92.492 9.967 93.659 10.133C94.826 10.3 114.43 19.545 115.659 20.467"/>
  </g>
 </g>
</svg>
