<svg width="113" height="132">
 <!-- Aclosedfolder.eps converted by ill2svg.pl -->
 <defs>
  <linearGradient id="folder__1"
        x1="69.721" y1="35.66" x2="32.351" y2="100.388"
        >
   <stop offset="0%" style="stop-color:#f2cc0c"/>
   <stop offset="100%" style="stop-color:#ffffff"/>
  </linearGradient>
  <linearGradient id="folder__2"
        x1="62.569" y1="84.528" x2="62.569" y2="5.088"
        >
   <stop offset="0%" style="stop-color:#f2cc0c"/>
   <stop offset="100%" style="stop-color:#ffffff"/>
  </linearGradient>
 </defs>
 <g> <!-- Layer: Layer 1 -->
  <g style="fill: #000000">
   <path d="M0.636 5.127C1.604 8.517 7.657 34.907 7.657 47.497C7.657 60.087 7.657 85.266 7.415 86.235C7.173 87.203 97.965 131.51 100.144 131.51C100.91 131.51 97.85 81.164 112.135 43.636C112.52 42.624 69.208 23.491 65.334 21.796C64.42 21.396 20.976 -0.181 20.007 0.303C19.039 0.787 16.373 13.117 16.131 12.39C15.889 11.664 0.636 5.127 0.636 5.127z"/>
   <!-- 0 -12546.481 -21731.4346 -124.4484 71.8493 12876.4454 22131.8347 Bc -->
   <!-- -37.3698 -64.7272 -124.4484 71.8493 329.9644 400.4001 Bm -->
   <!-- -12546.481 -21731.4346 -124.4484 71.8493 292.5946 335.6729 Bc -->
  </g>
  <g style="fill: url(#folder__1); stroke: #000000; stroke-width: 3.12; stroke-miterlimit: 4">
   <path d="M5.72 11.18C5.72 11.18 11.773 36.602 11.047 50.402C10.487 61.043 11.531 83.572 11.531 83.572C11.531 83.572 95.786 125.941 95.786 125.215C95.786 124.489 99.418 76.308 86.344 51.371C85.365 49.504 5.72 11.18 5.72 11.18"/>
   <!-- 2 0 25093.143 93.1983 0 214.8871 -24705.6788 Bc -->
   <!-- 0 79.4403 93.1983 0 214.8871 387.4642 Bm -->
   <!-- 0 25093.143 93.1983 0 214.8871 466.9044 Bc -->
  </g>
  <g style="fill: url(#folder__2)">
   <path d="M98.449 80.424C98.449 80.424 100.852 60.929 105.548 46.843C105.925 45.712 22.694 7.236 22.694 7.236C22.694 7.236 21.048 11.223 21.048 14.083C21.048 14.688 85.951 45.417 89.31 47.8C93.93 51.076 98.449 77.491 98.449 80.424z"/>
  </g>
  <g style="fill: #000000">
   <path d="M55.838 36.844"/>
   <path d="M51.589 15.879C51.589 14.184 56.461 4.965 57.188 4.723C57.914 4.481 86.397 18.037 87.608 18.763C88.818 19.489 84.228 23.703 83.064 30.89"/>
  </g>
  <g style="fill: #0072ba">
   <path d="M55.499 16.345C56.952 17.314 79.226 27.483 79.953 27.967C79.689 27.791 83.045 20.067 83.188 20.496C82.912 19.668 60.72 9.645 59.268 9.403C57.815 9.161 55.499 16.345 55.499 16.345z"/>
  </g>
 </g>
</svg>
