<svg width="44" height="52">
 <!-- closedfolder62000a.eps converted by ill2svg.pl -->
 <defs>
  <linearGradient id="folder__1"
        x1="778.913" y1="766.115" x2="764.436" y2="791.19"
        >
   <stop offset="0%" style="stop-color:#f2cc0c"/>
    <stop offset="100%" style="stop-color:#ffffff"/>
  </linearGradient>
  <linearGradient id="folder__2"
        x1="776.143" y1="785.046" x2="776.143" y2="754.27"
        >
   <stop offset="0%" style="stop-color:#f2cc0c"/>
    <stop offset="100%" style="stop-color:#ffffff"/>
  </linearGradient>
 </defs>
 <g> <!-- Layer: Layer 1 -->
  <g style="fill: #000000">
   <path d="M0.582 2.723C0.957 4.036 3.177 15.458 3.302 19.138C3.469 24.012 3.302 33.771 3.208 34.146C3.114 34.521 38.289 51.685 39.133 51.685C39.43 51.685 38.245 32.181 43.778 17.643C43.928 17.249 27.148 9.837 25.647 9.181C25.293 9.025 8.462 0.666 8.087 0.853C7.711 1.041 6.679 5.818 6.584 5.537C6.491 5.255 0.582 2.723 0.582 2.723z"/>
   <!-- 0 1 1 1 -14.477 -25.0755 -48.2128 27.835 292.5137 403.6172 Xm -->
   <!-- -3262.0879 -5650.2378 -48.2128 27.835 3554.6016 6053.855 Bc -->
   <!-- -14.477 -25.0755 -48.2128 27.835 292.5137 403.6172 Bm -->
   <!-- -3262.0879 -5650.2378 -48.2128 27.835 278.0366 378.542 Bc -->
  </g>
  <g style="fill: url(#folder__1)">
   <path d="M2.552 5.068C2.552 5.068 4.726 14.166 4.855 22.562C4.933 27.599 4.803 33.114 4.803 33.114C4.803 33.114 37.444 49.529 37.444 49.247C37.444 48.966 38.852 30.3 33.787 20.638C33.407 19.915 2.552 5.068 2.552 5.068z"/>
   <!-- 0 0 30.7754 36.8677 0 247.4209 398.7998 Xm -->
   <!-- -0.0003 6521.937 36.8677 0 247.4214 -6123.1367 Bc -->
   <!-- 0 30.7754 36.8677 0 247.4209 398.7998 Bm -->
   <!-- -0.0003 6521.937 36.8677 0 247.4209 429.5752 Bc -->
  </g>
  <g style="fill: url(#folder__2)">
   <path d="M38.477 31.894C38.477 31.894 39.712 23.756 41.531 18.3C41.677 17.861 8.858 2.932 8.858 2.932C8.858 2.932 8.341 4.998 8.084 6.16C8.032 6.389 33.634 18.332 34.935 19.255C36.725 20.524 38.477 30.758 38.477 31.894z"/>
  </g>
  <g style="fill: #000000">
   <path d="M21.968 15.011"/>
   <path d="M20.323 6.889C20.323 6.231 22.209 2.661 22.491 2.566C22.772 2.473 33.808 7.724 34.276 8.005C34.746 8.287 32.967 9.919 32.516 12.704"/>
  </g>
  <g style="fill: #0072ba">
   <path d="M21.837 7.069C22.399 7.444 31.029 11.383 31.31 11.571C31.209 11.503 32.509 8.511 32.563 8.678C32.457 8.356 23.859 4.474 23.296 4.379C22.734 4.285 21.837 7.069 21.837 7.069z"/>
  </g>
 </g>
</svg>
