<svg width="45" height="50">
 <!-- 3document62000a.eps converted by ill2svg.pl -->
 <defs>
  <linearGradient id="paper_5__1"
        x1="1301.404" y1="1311.013" x2="1305.872" y2="1316.338"
        >
   <stop offset="6%" style="stop-color:#ffffff"/>
    <stop offset="94%" style="stop-color:#cccccc"/>
  </linearGradient>
  <linearGradient id="paper2__1"
        x1="2221.489" y1="2247.835" x2="2221.489" y2="2200.4"
        >
   <stop offset="0%" style="stop-color:#ffffff"/>
    <stop offset="53%" style="stop-color:#c6c6c6"/>
    <stop offset="100%" style="stop-color:#ffffff"/>
  </linearGradient>
 </defs>
 <g> <!-- Layer: Layer 1 -->
  <g style="fill: #000000">
   <path d="M6.672 0.4C6.672 0.4 43.911 0.262 44.135 0.486C44.358 0.71 41.16 9.148 40.836 16.816C40.446 26.058 42.2 37.114 39.324 41.116C39.3 41.15 35.448 46.682 29.388 48.892C26.844 49.82 1.305 49.446 0.409 49.446C-0.487 49.446 2.047 44.891 2.928 38.109C3.936 30.353 3.293 20.089 3.36 16.276C3.468 10.12 6.112 0.512 6.672 0.4z"/>
   <!-- 0 1 1 1 0 47.4356 43.049 0 149.9844 417.1768 Xm -->
   <!-- -0.0001 1845.2501 43.049 0 149.9844 -1428.0732 Bc -->
   <!-- 0 25.1409 43.049 0 149.9844 417.1768 Bm -->
   <!-- 0 22.2947 43.049 0 149.9844 442.3179 Bm -->
   <!-- -0.0001 1845.2501 43.049 0 149.9844 464.6123 Bc -->
  </g>
  <g style="fill: url(#paper2__1)">
   <path d="M1.848 48.244C1.848 48.244 5.428 40.664 4.98 22.972C4.708 12.228 5.47 9.265 7.572 1.696C7.592 1.623 39.532 1.374 42.564 1.481C43.169 1.502 39.544 7.984 39.376 18.062C39.208 28.139 40.62 36.472 38.136 38.956C36.959 40.133 33.128 40.416 31.224 40.36C30.889 40.351 29.55 47.347 26.364 47.92C24.638 48.231 3.468 48.46 1.848 48.244z"/>
   <!-- 0 4.4684 -5.3252 -11.0378 -9.2619 185.5596 429.7686 Xm -->
   <!-- 1824.46 -2174.2993 -11.0378 -9.2619 -1638.6323 2603.7485 Bc -->
   <!-- 3.9322 -4.6862 -11.0378 -9.2619 185.8276 429.4492 Bm -->
   <!-- 1824.46 -2174.2993 -11.0378 -9.2619 189.7598 424.7632 Bc -->
  </g>
  <g style="fill: url(#paper_5__1)">
   <path d="M29.55 47.347C29.108 47.677 32.405 46.367 34.421 44.408C36.436 42.448 37.612 41.384 38.284 40.377C38.284 40.377 37.007 41.135 35.68 41.356C34.336 41.58 32.644 41.552 32.363 41.552C32.084 41.552 32.182 42.14 31.734 43.652C31.336 44.994 29.998 47.011 29.55 47.347z"/>
  </g>
 </g>
</svg>
