<svg width="110" height="122">
 <!-- Adocument4.eps converted by ill2svg.pl -->
 <defs>
  <linearGradient id="Paper__1"
        x1="36.263" y1="-1.979" x2="72.476" y2="124.31"
        >
   <stop offset="0%" style="stop-color:#ffffff"/>
   <stop offset="100%" style="stop-color:#a8a8a8"/>
  </linearGradient>
 </defs>
 <g> <!-- Layer: Layer 1 -->
  <g style="fill: #000000; stroke: #000000; stroke-width: 1.6679; stroke-miterlimit: 4">
   <path d="M1.626 120.976L93.918 120.976C93.918 120.976 101.021 96.011 100.59 67.324C100.314 48.942 101.285 38.413 101.285 38.413C101.285 38.413 103.092 17.147 108.374 1.024L15.665 1.024C15.665 1.024 9.132 21.317 8.993 41.054C8.854 60.792 7.881 81.779 7.881 81.779C7.881 81.779 4.128 114.582 1.626 120.976"/>
   <!-- 0 5386.9761 -18786.4912 -123.1628 -35.3166 -5089.5731 19273.3152 Bc -->
   <!-- 36.2128 -126.2882 -123.1628 -35.3166 297.403 486.824 Bm -->
   <!-- 5386.9761 -18786.4912 -123.1628 -35.3166 333.6158 360.5358 Bc -->
  </g>
  <g style="fill: url(#Paper__1)">
   <path d="M19.661 6.156L102.483 6.156C102.483 6.156 96.003 23.436 96.003 59.211C96.003 83.377 95.463 82.565 95.463 82.565C95.463 82.565 94.518 101.6 89.32 116.112L7.444 116.045C7.444 116.045 12.574 101.06 13.249 64.206C13.249 64.206 12.709 27.081 19.661 6.156z"/>
  </g>
 </g>
</svg>
