<?xml version="1.0" encoding="UTF-8"?>
<svg height="32" viewBox="0 0 32 32" width="32" xmlns="http://www.w3.org/2000/svg"><path d="m 24.280293,2.0062078 c -0.481458,-0.00805 -0.958881,0.2164956 -1.25586,0.640625 C 21.160613,5.3086441 19.074164,8.2896442 17.175781,11 h 3.664063 L 25.481465,4.3675359 C 25.956631,3.6889279 25.792885,2.7528581 25.114277,2.2776921 24.859799,2.0995049 24.569167,2.011036 24.280293,2.0062078 Z M 6,4 c -3.3137085,0 -6,2.6862915 -6,6 0,3.313708 2.6862915,6 6,6 2.469539,9.21e-4 5.044744,0.0019 7.673828,0.002 -1.574514,2.248607 -3.116145,4.451425 -4.5917968,6.560547 -1.9006649,2.714431 -1.2417751,6.454804 1.4726568,8.355469 2.71443,1.900665 6.456756,1.241776 8.357421,-1.472657 1.900665,-2.71443 1.239822,-6.456756 -1.474609,-8.357421 -0.862956,-0.603936 -1.868654,-0.969037 -2.917969,-1.060547 L 17.337891,16.002 C 21.551311,16.001619 26.332337,16 30.492608,16 c 0.828427,0 1.5,-0.671573 1.5,-1.5 0,-0.828427 -0.671573,-1.5 -1.5,-1.5 H 24.71875 19.439453 15.775391 15 11.195312 C 11.722219,12.087966 11.999744,11.053296 12,10 12,6.6862915 9.3137085,4 6,4 Z m 0,2 c 2.209139,0 4,1.790861 4,4 0,2.209139 -1.790861,4 -4,4 C 3.790861,14 2,12.209139 2,10 2,7.790861 3.790861,6 6,6 Z m 8.066406,16.003906 c 0.770332,0.01288 1.546002,0.24749 2.22461,0.722656 1.809621,1.26711 2.249531,3.760692 0.982422,5.570313 -1.26711,1.80962 -3.760693,2.249532 -5.570313,0.982422 -1.809621,-1.26711 -2.2495316,-3.760692 -0.982422,-5.570313 0.791944,-1.131013 2.061816,-1.726537 3.345703,-1.705078 z" fill="#222222"/></svg>
