<?xml version="1.0" encoding="UTF-8"?>
<svg height="16px" viewBox="0 0 16 16" width="16px" xmlns="http://www.w3.org/2000/svg">
    <path d="m 1 4 v 1 h 8 v -1 z m 0 0" fill="#2e3436"/>
    <path d="m 3 1 c -1.644531 0 -3 1.355469 -3 3 v 8 c 0 1.644531 1.355469 3 3 3 h 4 v -2 h -4 c -0.5625 0 -1 -0.4375 -1 -1 v -8 c 0 -0.5625 0.4375 -1 1 -1 h 3.585938 l 1.707031 1.707031 c 0.1875 0.1875 0.441406 0.292969 0.707031 0.292969 h 4 c 0.5625 0 1 0.4375 1 1 v 2 h 2 v -2 c 0 -1.644531 -1.355469 -3 -3 -3 h -3.585938 l -1.707031 -1.707031 c -0.1875 -0.1875 -0.441406 -0.292969 -0.707031 -0.292969 z m 0 0" fill="#2e3436"/>
    <path d="m 11.5 8 c -1.921875 0 -3.5 1.578125 -3.5 3.5 s 1.578125 3.5 3.5 3.5 s 3.5 -1.578125 3.5 -3.5 s -1.578125 -3.5 -3.5 -3.5 z m 0 2 c 0.839844 0 1.5 0.660156 1.5 1.5 s -0.660156 1.5 -1.5 1.5 s -1.5 -0.660156 -1.5 -1.5 s 0.660156 -1.5 1.5 -1.5 z m 0 0"/>
    <path d="m 12.558594 12.5625 c -0.386719 0.386719 -0.386719 1.023438 0 1.414062 l 1.734375 1.730469 c 0.390625 0.390625 1.023437 0.390625 1.414062 0 s 0.390625 -1.023437 0 -1.414062 l -1.734375 -1.730469 c -0.386718 -0.390625 -1.023437 -0.390625 -1.414062 0 z m 0 0"/>
</svg>
