<svg xmlns="http://www.w3.org/2000/svg" xmlns:xlink="http://www.w3.org/1999/xlink" width="128" height="128"><defs><clipPath id="g"><path d="M0 0h192v152H0z"/></clipPath><clipPath id="m"><path d="M0 0h192v152H0z"/></clipPath><clipPath id="b"><path d="M0 0h192v152H0z"/></clipPath><clipPath id="K"><path d="M0 0h128v128H0z"/></clipPath><clipPath id="l"><path d="M0 0h192v152H0z"/></clipPath><clipPath id="c"><path d="M0 0h192v152H0z"/></clipPath><clipPath id="k"><path d="M0 0h192v152H0z"/></clipPath><clipPath id="j"><path d="M0 0h192v152H0z"/></clipPath><clipPath id="d"><path d="M0 0h192v152H0z"/></clipPath><clipPath id="i"><path d="M0 0h192v152H0z"/></clipPath><clipPath id="e"><path d="M0 0h192v152H0z"/></clipPath><clipPath id="h"><path d="M0 0h192v152H0z"/></clipPath><clipPath id="f"><path d="M0 0h192v152H0z"/></clipPath><clipPath id="H"><path d="M0 0h128v128H0z"/></clipPath><clipPath id="n"><path d="M0 0h128v128H0z"/></clipPath><clipPath id="M"><path d="M0 0h128v128H0z"/></clipPath><linearGradient id="v" gradientUnits="userSpaceOnUse" x1="50" y1="238" x2="74" y2="238" gradientTransform="translate(2 -162)"><stop offset="0" stop-color="#deddda"/><stop offset=".045" stop-color="#eeeeec"/><stop offset=".091" stop-color="#deddda"/><stop offset=".909" stop-color="#deddda"/><stop offset=".955" stop-color="#eeeeec"/><stop offset="1" stop-color="#c0bfbc"/></linearGradient><linearGradient id="aa" gradientUnits="userSpaceOnUse" x1="65" y1="204" x2="65" y2="200" gradientTransform="translate(0 -108)"><stop offset="0" stop-color="#9a9996"/><stop offset="1" stop-color="#c0bfbc"/></linearGradient><linearGradient id="p" gradientUnits="userSpaceOnUse" x1="50" y1="238" x2="74" y2="238" gradientTransform="translate(2 -194)"><stop offset="0" stop-color="#deddda"/><stop offset=".045" stop-color="#eeeeec"/><stop offset=".091" stop-color="#deddda"/><stop offset=".909" stop-color="#deddda"/><stop offset=".955" stop-color="#eeeeec"/><stop offset="1" stop-color="#c0bfbc"/></linearGradient><linearGradient id="Q" gradientUnits="userSpaceOnUse" x1="50" y1="238" x2="74" y2="238" gradientTransform="translate(2 -194)"><stop offset="0" stop-color="#deddda"/><stop offset=".045" stop-color="#eeeeec"/><stop offset=".091" stop-color="#deddda"/><stop offset=".909" stop-color="#deddda"/><stop offset=".955" stop-color="#eeeeec"/><stop offset="1" stop-color="#c0bfbc"/></linearGradient><linearGradient id="Y" gradientUnits="userSpaceOnUse" x1="50" y1="238" x2="74" y2="238" gradientTransform="translate(2 -130)"><stop offset="0" stop-color="#deddda"/><stop offset=".045" stop-color="#eeeeec"/><stop offset=".091" stop-color="#deddda"/><stop offset=".909" stop-color="#deddda"/><stop offset=".955" stop-color="#eeeeec"/><stop offset="1" stop-color="#c0bfbc"/></linearGradient><linearGradient id="s" gradientUnits="userSpaceOnUse" x1="65" y1="204" x2="65" y2="200" gradientTransform="translate(0 -172)"><stop offset="0" stop-color="#9a9996"/><stop offset="1" stop-color="#c0bfbc"/></linearGradient><linearGradient id="W" gradientUnits="userSpaceOnUse" x1="65" y1="204" x2="65" y2="200" gradientTransform="translate(0 -140)"><stop offset="0" stop-color="#9a9996"/><stop offset="1" stop-color="#c0bfbc"/></linearGradient><linearGradient id="o" gradientUnits="userSpaceOnUse" x1="20" y1="238" x2="108" y2="238" gradientTransform="translate(0 -172)"><stop offset="0" stop-color="#deddda"/><stop offset=".045" stop-color="#eeeeec"/><stop offset=".091" stop-color="#deddda"/><stop offset=".909" stop-color="#deddda"/><stop offset=".955" stop-color="#eeeeec"/><stop offset="1" stop-color="#c0bfbc"/></linearGradient><linearGradient id="U" gradientUnits="userSpaceOnUse" x1="50" y1="238" x2="74" y2="238" gradientTransform="translate(2 -162)"><stop offset="0" stop-color="#deddda"/><stop offset=".045" stop-color="#eeeeec"/><stop offset=".091" stop-color="#deddda"/><stop offset=".909" stop-color="#deddda"/><stop offset=".955" stop-color="#eeeeec"/><stop offset="1" stop-color="#c0bfbc"/></linearGradient><linearGradient id="y" gradientUnits="userSpaceOnUse" x1="65" y1="204" x2="65" y2="200" gradientTransform="translate(0 -140)"><stop offset="0" stop-color="#9a9996"/><stop offset="1" stop-color="#c0bfbc"/></linearGradient><linearGradient id="L" gradientUnits="userSpaceOnUse" x1="300" y1="235" x2="428" y2="235" gradientTransform="matrix(0 .37 -.98462 0 295.385 -30.36)"><stop offset="0" stop-color="#f9f06b"/><stop offset="1" stop-color="#f5c211"/></linearGradient><linearGradient id="B" gradientUnits="userSpaceOnUse" x1="50" y1="238" x2="74" y2="238" gradientTransform="translate(2 -130)"><stop offset="0" stop-color="#deddda"/><stop offset=".045" stop-color="#eeeeec"/><stop offset=".091" stop-color="#deddda"/><stop offset=".909" stop-color="#deddda"/><stop offset=".955" stop-color="#eeeeec"/><stop offset="1" stop-color="#c0bfbc"/></linearGradient><linearGradient id="S" gradientUnits="userSpaceOnUse" x1="65" y1="204" x2="65" y2="200" gradientTransform="translate(0 -172)"><stop offset="0" stop-color="#9a9996"/><stop offset="1" stop-color="#c0bfbc"/></linearGradient><linearGradient id="E" gradientUnits="userSpaceOnUse" x1="65" y1="204" x2="65" y2="200" gradientTransform="translate(0 -108)"><stop offset="0" stop-color="#9a9996"/><stop offset="1" stop-color="#c0bfbc"/></linearGradient><linearGradient id="P" gradientUnits="userSpaceOnUse" x1="20" y1="238" x2="108" y2="238" gradientTransform="translate(0 -172)"><stop offset="0" stop-color="#deddda"/><stop offset=".045" stop-color="#eeeeec"/><stop offset=".091" stop-color="#deddda"/><stop offset=".909" stop-color="#deddda"/><stop offset=".955" stop-color="#eeeeec"/><stop offset="1" stop-color="#c0bfbc"/></linearGradient><mask id="u"><g filter="url(#a)"><path fill-opacity=".1" d="M0 0h128v128H0z"/></g></mask><mask id="r"><g filter="url(#a)"><path fill-opacity=".1" d="M0 0h128v128H0z"/></g></mask><mask id="ab"><g filter="url(#a)"><path fill-opacity=".1" d="M0 0h128v128H0z"/></g></mask><mask id="x"><g filter="url(#a)"><path fill-opacity=".1" d="M0 0h128v128H0z"/></g></mask><mask id="X"><g filter="url(#a)"><path fill-opacity=".1" d="M0 0h128v128H0z"/></g></mask><mask id="T"><g filter="url(#a)"><path fill-opacity=".1" d="M0 0h128v128H0z"/></g></mask><mask id="A"><g filter="url(#a)"><path fill-opacity=".1" d="M0 0h128v128H0z"/></g></mask><mask id="ad"><use xlink:href="#J"/></mask><mask id="V"><g filter="url(#a)"><path fill-opacity=".1" d="M0 0h128v128H0z"/></g></mask><mask id="D"><g filter="url(#a)"><path fill-opacity=".1" d="M0 0h128v128H0z"/></g></mask><mask id="Z"><g filter="url(#a)"><path fill-opacity=".1" d="M0 0h128v128H0z"/></g></mask><mask id="R"><g filter="url(#a)"><path fill-opacity=".1" d="M0 0h128v128H0z"/></g></mask><mask id="G"><g filter="url(#a)"><path fill-opacity=".1" d="M0 0h128v128H0z"/></g></mask><mask id="O"><g filter="url(#a)"><path fill-opacity=".8" d="M0 0h128v128H0z"/></g></mask><g id="w" clip-path="url(#d)"><path d="M61.5 78h21a1.5 1.5 0 011.5 1.5v1a1.5 1.5 0 01-1.5 1.5h-21a1.5 1.5 0 01-1.5-1.5v-1a1.5 1.5 0 011.5-1.5zm0 0"/></g><g id="F" clip-path="url(#g)"><path d="M64 110h16v2H64zm0 0"/></g><g id="C" clip-path="url(#f)"><path d="M61.5 110h21a1.5 1.5 0 011.5 1.5v1a1.5 1.5 0 01-1.5 1.5h-21a1.5 1.5 0 01-1.5-1.5v-1a1.5 1.5 0 011.5-1.5zm0 0"/></g><g id="J" clip-path="url(#H)" filter="url(#a)"><use xlink:href="#I"/></g><g id="z" clip-path="url(#e)"><path d="M64 78h16v2H64zm0 0"/></g><g id="I" clip-path="url(#n)"><path d="M28 62h72a8 8 0 018 8v42a8 8 0 01-8 8H28a8 8 0 01-8-8V70a8 8 0 018-8zm0 0" fill="url(#o)"/><path d="M28 8h72a8 8 0 018 8v92a8 8 0 01-8 8H28a8 8 0 01-8-8V16a8 8 0 018-8zm0 0" fill="#f6f5f4"/><path d="M28 14h72c2.21 0 4 1.79 4 4v90c0 2.21-1.79 4-4 4H28c-2.21 0-4-1.79-4-4V18c0-2.21 1.79-4 4-4zm0 0" fill="#1a5fb4"/><path d="M28 12h72c2.21 0 4 1.79 4 4v90c0 2.21-1.79 4-4 4H28c-2.21 0-4-1.79-4-4V16c0-2.21 1.79-4 4-4zm0 0" fill="#3584e4"/><path d="M24 44h80v2H24zm0 0M24 76h80v2H24zm0 0" fill="#1c71d8"/><path d="M55 24h18c1.66 0 3 1 3 3v5h-3.969L72 28H56l.031 4H52v-5c0-1.66 1.34-3 3-3zm0 0" fill="url(#p)"/><use xlink:href="#q" transform="translate(-8 -16)" mask="url(#r)"/><path d="M55 28c-1.66 0-3 1.34-3 3v1h4v-2h16v2h4v-1c0-1.66-1.34-3-3-3zm0 0" fill="url(#s)"/><use xlink:href="#t" transform="translate(-8 -16)" mask="url(#u)"/><path d="M55 56h18c1.66 0 3 1 3 3v5h-3.969L72 60H56l.031 4H52v-5c0-1.66 1.34-3 3-3zm0 0" fill="url(#v)"/><use xlink:href="#w" transform="translate(-8 -16)" mask="url(#x)"/><path d="M55 60c-1.66 0-3 1.34-3 3v1h4v-2h16v2h4v-1c0-1.66-1.34-3-3-3zm0 0" fill="url(#y)"/><use xlink:href="#z" transform="translate(-8 -16)" mask="url(#A)"/><path d="M55 88h18c1.66 0 3 1 3 3v5h-3.969L72 92H56l.031 4H52v-5c0-1.66 1.34-3 3-3zm0 0" fill="url(#B)"/><use xlink:href="#C" transform="translate(-8 -16)" mask="url(#D)"/><path d="M55 92c-1.66 0-3 1.34-3 3v1h4v-2h16v2h4v-1c0-1.66-1.34-3-3-3zm0 0" fill="url(#E)"/><use xlink:href="#F" transform="translate(-8 -16)" mask="url(#G)"/></g><g id="t" clip-path="url(#c)"><path d="M64 46h16v2H64zm0 0"/></g><g id="q" clip-path="url(#b)"><path d="M61.5 46h21a1.5 1.5 0 011.5 1.5v1a1.5 1.5 0 01-1.5 1.5h-21a1.5 1.5 0 01-1.5-1.5v-1a1.5 1.5 0 011.5-1.5zm0 0"/></g><g id="N" clip-path="url(#K)"><path d="M128 80.64V128H0V80.64zm0 0" fill="url(#L)"/><path d="M13.309 80.64L60.664 128H81.88l-47.36-47.36zm42.421 0L103.094 128h21.215L76.945 80.64zm42.43 0L128 110.48V89.27l-8.629-8.63zM0 88.548v21.215L18.238 128h21.215zm0 0"/></g><g id="ac" clip-path="url(#M)"><use xlink:href="#N" mask="url(#O)"/></g><filter id="a" filterUnits="objectBoundingBox" x="0%" y="0%" width="100%" height="100%"><feColorMatrix in="SourceGraphic" values="0 0 0 0 1 0 0 0 0 1 0 0 0 0 1 0 0 0 1 0"/></filter></defs><path d="M28 62h72a8 8 0 018 8v42a8 8 0 01-8 8H28a8 8 0 01-8-8V70a8 8 0 018-8zm0 0" fill="url(#P)"/><path d="M28 8h72a8 8 0 018 8v92a8 8 0 01-8 8H28a8 8 0 01-8-8V16a8 8 0 018-8zm0 0" fill="#f6f5f4"/><path d="M28 14h72c2.21 0 4 1.79 4 4v90c0 2.21-1.79 4-4 4H28c-2.21 0-4-1.79-4-4V18c0-2.21 1.79-4 4-4zm0 0" fill="#1a5fb4"/><path d="M28 12h72c2.21 0 4 1.79 4 4v90c0 2.21-1.79 4-4 4H28c-2.21 0-4-1.79-4-4V16c0-2.21 1.79-4 4-4zm0 0" fill="#3584e4"/><path d="M24 44h80v2H24zm0 0M24 76h80v2H24zm0 0" fill="#1c71d8"/><path d="M55 24h18c1.66 0 3 1 3 3v5h-3.969L72 28H56l.031 4H52v-5c0-1.66 1.34-3 3-3zm0 0" fill="url(#Q)"/><use xlink:href="#q" transform="translate(-8 -16)" mask="url(#R)"/><path d="M55 28c-1.66 0-3 1.34-3 3v1h4v-2h16v2h4v-1c0-1.66-1.34-3-3-3zm0 0" fill="url(#S)"/><use xlink:href="#t" transform="translate(-8 -16)" mask="url(#T)"/><path d="M55 56h18c1.66 0 3 1 3 3v5h-3.969L72 60H56l.031 4H52v-5c0-1.66 1.34-3 3-3zm0 0" fill="url(#U)"/><use xlink:href="#w" transform="translate(-8 -16)" mask="url(#V)"/><path d="M55 60c-1.66 0-3 1.34-3 3v1h4v-2h16v2h4v-1c0-1.66-1.34-3-3-3zm0 0" fill="url(#W)"/><use xlink:href="#z" transform="translate(-8 -16)" mask="url(#X)"/><path d="M55 88h18c1.66 0 3 1 3 3v5h-3.969L72 92H56l.031 4H52v-5c0-1.66 1.34-3 3-3zm0 0" fill="url(#Y)"/><use xlink:href="#C" transform="translate(-8 -16)" mask="url(#Z)"/><path d="M55 92c-1.66 0-3 1.34-3 3v1h4v-2h16v2h4v-1c0-1.66-1.34-3-3-3zm0 0" fill="url(#aa)"/><use xlink:href="#F" transform="translate(-8 -16)" mask="url(#ab)"/><use xlink:href="#ac" mask="url(#ad)"/></svg>